<?xml version="1.0" encoding="utf-8"?>
<!-- Generator: Adobe Illustrator 17.0.0, SVG Export Plug-In . SVG Version: 6.00 Build 0)  -->
<!DOCTYPE svg PUBLIC "-//W3C//DTD SVG 1.1//EN" "http://www.w3.org/Graphics/SVG/1.1/DTD/svg11.dtd">
<svg version="1.1" id="Layer_1" xmlns="http://www.w3.org/2000/svg" xmlns:xlink="http://www.w3.org/1999/xlink" x="0px" y="0px"
	 width="85px" height="85px" viewBox="0 0 85 85" enable-background="new 0 0 85 85" xml:space="preserve">
<path id="Blue_1_" fill="#3C5A99" d="M236.26,70.26c1.575,0,2.853-1.278,2.853-2.853V21.418c0-1.576-1.277-2.853-2.853-2.853
	h-45.989c-1.576,0-2.853,1.277-2.853,2.853v45.989c0,1.576,1.277,2.853,2.853,2.853C190.271,70.26,236.26,70.26,236.26,70.26z"/>
<path id="f" fill="#FFFFFF" d="M223.086,70.26V50.241h6.719l1.006-7.802h-7.726v-4.981c0-2.259,0.627-3.798,3.866-3.798l4.131-0.002
	V26.68c-0.714-0.095-3.167-0.308-6.02-0.308c-5.956,0-10.034,3.636-10.034,10.313v5.754h-6.737v7.802h6.737V70.26H223.086z"/>
<g>
	<path fill="#DC4A38" d="M152.359,18.776h-49.31c-0.907,0-1.641,0.734-1.641,1.64v48.133c0,0.908,0.734,1.642,1.641,1.642h49.31
		c0.907,0,1.641-0.735,1.641-1.642V20.417C154,19.51,153.265,18.776,152.359,18.776z"/>
	<g>
		<path fill="#FFFFFF" d="M129.016,46.992l-1.659-1.288c-0.505-0.419-1.196-0.972-1.196-1.985c0-1.017,0.691-1.663,1.291-2.262
			c1.933-1.521,3.864-3.141,3.864-6.553c0-3.509-2.208-5.355-3.266-6.23h2.853l2.995-1.882h-9.072c-2.489,0-6.077,0.589-8.703,2.757
			c-1.98,1.708-2.945,4.063-2.945,6.183c0,3.599,2.763,7.247,7.642,7.247c0.461,0,0.965-0.045,1.472-0.092
			c-0.228,0.554-0.458,1.016-0.458,1.8c0,1.429,0.734,2.306,1.382,3.136c-2.073,0.142-5.944,0.372-8.797,2.126
			c-2.717,1.616-3.544,3.968-3.544,5.628c0,3.417,3.22,6.599,9.898,6.599c7.919,0,12.111-4.382,12.111-8.72
			C132.884,50.268,131.043,48.699,129.016,46.992z M122.984,41.686c-3.962,0-5.756-5.121-5.756-8.211
			c0-1.203,0.228-2.445,1.011-3.415c0.739-0.924,2.025-1.523,3.226-1.523c3.819,0,5.8,5.167,5.8,8.49
			c0,0.831-0.092,2.305-1.151,3.37C125.374,41.135,124.135,41.686,122.984,41.686z M123.03,60.241c-4.926,0-8.103-2.357-8.103-5.633
			s2.946-4.384,3.959-4.751c1.933-0.65,4.42-0.741,4.835-0.741c0.46,0,0.691,0,1.057,0.046c3.502,2.492,5.022,3.735,5.022,6.094
			C129.8,58.113,127.451,60.241,123.03,60.241z"/>
		<polygon fill="#FFFFFF" points="140.644,41.616 140.644,37.002 138.365,37.002 138.365,41.616 133.759,41.616 133.759,43.92 
			138.365,43.92 138.365,48.561 140.644,48.561 140.644,43.92 145.273,43.92 145.273,41.616 		"/>
	</g>
</g>
<g>
	<g>
		<g>
			<g opacity="0.1">
				<path fill="#CCCCCC" d="M70.326,16.674c0,0-3.564,1.225-8.896,2.409c-5.324,1.148-12.417,2.112-19.502,2.141
					c-7.085-0.029-14.178-0.992-19.502-2.14c-5.332-1.185-8.896-2.409-8.896-2.409s3.535,1.136,8.853,2.21
					c5.325,1.11,12.431,2.028,19.545,2c7.114,0.029,14.22-0.889,19.545-1.999C66.791,17.811,70.326,16.674,70.326,16.674z"/>
				<path fill="#CCCCCC" d="M69.573,19.404c0,0-3.469,1.111-8.659,2.186c-5.183,1.039-12.088,1.912-18.986,1.941
					c-6.898-0.029-13.804-0.902-18.986-1.94c-5.19-1.076-8.659-2.186-8.659-2.186s3.442,1.022,8.619,1.987
					c5.184,1.001,12.101,1.828,19.026,1.8c6.924,0.029,13.841-0.798,19.026-1.799C66.13,20.427,69.573,19.404,69.573,19.404z"/>
				<path fill="#CCCCCC" d="M68.649,22.199c0,0-3.359,0.981-8.387,1.932c-5.021,0.914-11.712,1.682-18.396,1.707
					c-6.684-0.032-13.375-0.808-18.396-1.729c-5.027-0.957-8.387-1.943-8.387-1.943s3.336,0.897,8.352,1.743
					c5.022,0.883,11.723,1.612,18.431,1.588c6.708,0.033,13.408-0.689,18.431-1.565C65.313,23.092,68.649,22.199,68.649,22.199z"/>
				<path fill="#CCCCCC" d="M67.812,24.978c0,0-3.268,0.858-8.161,1.689c-4.887,0.795-11.399,1.46-17.905,1.478
					c-6.506-0.039-13.019-0.726-17.905-1.536c-4.892-0.847-8.161-1.716-8.161-1.716s3.248,0.78,8.13,1.516
					c4.888,0.773,11.409,1.413,17.936,1.395c6.527,0.039,13.048-0.58,17.936-1.336C64.564,25.747,67.812,24.978,67.812,24.978z"/>
				<path fill="#CCCCCC" d="M67.061,27.74c0,0-3.165,0.732-7.904,1.444c-4.734,0.676-11.044,1.244-17.348,1.267
					c-6.304-0.034-12.614-0.615-17.348-1.3c-4.739-0.721-7.904-1.46-7.904-1.46s3.148,0.65,7.878,1.261
					c4.735,0.647,11.052,1.181,17.374,1.158c6.322,0.035,12.639-0.487,17.374-1.125C63.914,28.385,67.061,27.74,67.061,27.74z"/>
				<path fill="#CCCCCC" d="M66.277,30.508c0,0-3.073,0.609-7.674,1.203c-4.598,0.558-10.726,1.027-16.849,1.048
					c-6.124-0.036-12.252-0.52-16.85-1.089c-4.602-0.605-7.675-1.222-7.675-1.222s3.058,0.529,7.653,1.023
					c4.599,0.531,10.733,0.968,16.871,0.948c6.138,0.036,12.272-0.386,16.871-0.906C63.219,31.029,66.277,30.508,66.277,30.508z"/>
				<path fill="#CCCCCC" d="M65.577,33.252c0,0-2.969,0.488-7.417,0.967c-4.445,0.444-10.369,0.82-16.29,0.847
					c-5.921-0.03-11.845-0.411-16.29-0.857c-4.448-0.483-7.417-0.973-7.417-0.973s2.958,0.403,7.4,0.774
					c4.445,0.408,10.374,0.741,16.307,0.715c5.933,0.031,11.862-0.299,16.307-0.704C62.62,33.652,65.577,33.252,65.577,33.252z"/>
				<path fill="#CCCCCC" d="M64.959,35.973c0,0-2.897,0.376-7.239,0.749c-4.339,0.337-10.123,0.624-15.905,0.65
					c-5.782-0.031-11.566-0.325-15.905-0.666c-4.342-0.378-7.239-0.757-7.239-0.757s2.889,0.293,7.226,0.559
					c4.34,0.303,10.128,0.549,15.918,0.524c5.791,0.032,11.579-0.208,15.918-0.507C62.07,36.263,64.959,35.973,64.959,35.973z"/>
				<path fill="#CCCCCC" d="M64.194,38.689c0,0-2.8,0.265-6.998,0.533c-4.196,0.231-9.789,0.431-15.381,0.458
					c-5.592-0.031-11.185-0.235-15.381-0.469c-4.197-0.271-6.998-0.538-6.998-0.538s2.794,0.181,6.989,0.341
					c4.196,0.196,9.792,0.352,15.389,0.326c5.598,0.031,11.193-0.121,15.39-0.314C61.399,38.868,64.194,38.689,64.194,38.689z"/>
				<path fill="#CCCCCC" d="M63.618,41.363c0,0-2.727,0.165-6.816,0.337c-4.088,0.136-9.537,0.258-14.986,0.285
					c-5.449-0.03-10.899-0.153-14.986-0.291c-4.089-0.174-6.816-0.341-6.816-0.341s2.724,0.081,6.81,0.144
					c4.088,0.099,9.539,0.175,14.991,0.147c5.452,0.03,10.903-0.043,14.991-0.14C60.894,41.443,63.618,41.363,63.618,41.363z"/>
				<path fill="#CCCCCC" d="M63.226,44.009c0,0-2.649,0.073-6.621,0.157c-3.972,0.049-9.269,0.098-14.565,0.126
					c-5.296-0.028-10.593-0.077-14.565-0.125c-3.973-0.084-6.621-0.157-6.621-0.157s2.648-0.012,6.62-0.039
					c3.972,0.009,9.269,0.009,14.566-0.02c5.297,0.028,10.594,0.028,14.566,0.019C60.578,43.997,63.226,44.009,63.226,44.009z"/>
				<path fill="#CCCCCC" d="M62.562,46.366c0,0-2.578,0.013-6.446,0.047c-3.869-0.002-9.028,0.013-14.187,0.071
					c-5.16,0-10.32,0.045-14.19,0.098c-3.87,0.017-6.449,0.045-6.449,0.045s2.581-0.112,6.451-0.24
					c3.87-0.092,9.029-0.186,14.187-0.243c5.159,0,10.317,0.034,14.186,0.075C59.982,46.296,62.562,46.366,62.562,46.366z"/>
				<path fill="#CCCCCC" d="M49.194,67.237c0,0-0.944-0.028-2.365-0.055c-0.711-0.021-1.541-0.038-2.431-0.042
					c-0.89-0.016-1.84-0.02-2.79-0.009c-1.9-0.005-3.799,0.05-5.22,0.086c-1.421,0.036-2.364,0.07-2.364,0.07
					s0.953-0.135,2.376-0.263c1.424-0.129,3.317-0.216,5.209-0.233c0.946,0.005,1.893,0.024,2.78,0.054
					c0.888,0.042,1.717,0.094,2.428,0.145C48.242,67.109,49.194,67.237,49.194,67.237z"/>
				<path fill="#CCCCCC" d="M52.866,65.243c0,0-1.386-0.122-3.469-0.218c-1.043-0.062-2.26-0.117-3.565-0.148
					c-1.305-0.043-2.698-0.063-4.091-0.053c-2.786-0.006-5.572,0.115-7.656,0.229c-2.083,0.103-3.469,0.23-3.469,0.23
					s1.396-0.207,3.484-0.425c2.088-0.208,4.865-0.359,7.641-0.375c1.388,0.005,2.777,0.04,4.079,0.097
					c1.302,0.069,2.519,0.159,3.562,0.251C51.471,65.042,52.866,65.243,52.866,65.243z"/>
				<path fill="#CCCCCC" d="M62.994,56.783c0,0-0.612-0.07-1.683-0.177c-1.072-0.111-2.603-0.259-4.442-0.4
					c-3.68-0.316-8.589-0.587-13.5-0.603c-4.912-0.072-9.821,0.112-13.502,0.363c-1.841,0.13-3.371,0.229-4.443,0.323
					c-1.072,0.089-1.684,0.148-1.684,0.148s0.615-0.082,1.69-0.21c1.074-0.122,2.611-0.312,4.451-0.453
					c3.68-0.291,8.584-0.526,13.485-0.513c4.902,0.071,9.807,0.392,13.487,0.748c1.841,0.194,3.377,0.389,4.452,0.532
					C62.379,56.69,62.994,56.783,62.994,56.783z"/>
				<path fill="#CCCCCC" d="M59.778,53.898c0,0-2.256-0.171-5.644-0.315c-1.695-0.086-3.672-0.166-5.791-0.214
					c-2.12-0.06-4.381-0.09-6.643-0.08c-4.523-0.006-9.046,0.158-12.434,0.322c-3.388,0.152-5.643,0.327-5.643,0.327
					s2.264-0.261,5.655-0.528c3.391-0.256,7.907-0.445,12.423-0.461c2.258,0.005,4.516,0.049,6.633,0.121
					c2.118,0.085,4.095,0.197,5.789,0.313C57.514,53.643,59.778,53.898,59.778,53.898z"/>
				<path fill="#CCCCCC" d="M60.961,51.461c0,0-0.598-0.03-1.644-0.076c-1.046-0.049-2.541-0.113-4.335-0.171
					c-3.59-0.148-8.378-0.262-13.167-0.231c-4.789-0.027-9.577,0.091-13.167,0.242c-1.795,0.08-3.289,0.122-4.335,0.174
					c-1.046,0.046-1.644,0.077-1.644,0.077s0.599-0.054,1.647-0.14c1.048-0.08,2.546-0.215,4.34-0.305
					c3.59-0.19,8.375-0.359,13.159-0.389c4.784,0.027,9.569,0.191,13.159,0.379c1.796,0.11,3.292,0.22,4.34,0.302
					C60.362,51.407,60.961,51.461,60.961,51.461z"/>
				<path fill="#CCCCCC" d="M61.847,48.943c0,0-0.624-0.017-1.716-0.041c-1.092-0.027-2.652-0.063-4.524-0.093
					c-3.745-0.093-8.74-0.162-13.736-0.133c-4.996-0.028-9.99,0.042-13.736,0.137c-1.872,0.031-3.432,0.067-4.524,0.095
					c-1.092,0.024-1.716,0.041-1.716,0.041s0.625-0.04,1.718-0.104c1.093-0.061,2.654-0.143,4.527-0.226
					c3.745-0.134,8.738-0.253,13.73-0.283c4.992,0.028,9.985,0.147,13.73,0.279c1.873,0.083,3.434,0.164,4.527,0.225
					C61.222,48.903,61.847,48.943,61.847,48.943z"/>
				<path fill="#CCCCCC" d="M15.409,16.131c0,0,0.47,1.456,1.073,3.633c0.286,1.085,0.601,2.349,0.908,3.703
					c0.294,1.351,0.579,2.792,0.832,4.232c0.477,2.875,0.81,5.75,0.962,7.905c0.141,2.154,0.172,3.593,0.172,3.593
					s-0.107-1.443-0.366-3.615c-0.248-2.17-0.619-5.062-1.129-7.954c-0.24-1.443-0.513-2.886-0.795-4.238
					c-0.269-1.349-0.548-2.607-0.801-3.685C15.788,17.558,15.409,16.131,15.409,16.131z"/>
				<path fill="#CCCCCC" d="M18.15,17.255c0,0,0.573,1.954,1.258,4.876c0.328,1.458,0.678,3.158,1.002,4.978
					c0.311,1.818,0.593,3.757,0.821,5.695c0.428,3.873,0.61,7.746,0.604,10.653c-0.017,2.907-0.139,4.85-0.139,4.85
					s0.046-1.938-0.052-4.854c-0.087-2.915-0.304-6.805-0.763-10.696c-0.216-1.943-0.487-3.886-0.786-5.707
					c-0.287-1.819-0.603-3.515-0.899-4.968C18.631,19.183,18.15,17.255,18.15,17.255z"/>
				<path fill="#CCCCCC" d="M20.837,18.158c0,0,0.6,2.256,1.284,5.631c0.327,1.685,0.67,3.65,0.972,5.753
					c0.29,2.102,0.538,4.344,0.717,6.585c0.332,4.48,0.36,8.96,0.21,12.325c-0.161,3.365-0.407,5.614-0.407,5.614
					s0.168-2.24,0.216-5.607c0.058-3.368-0.001-7.865-0.363-12.362c-0.167-2.247-0.404-4.494-0.683-6.6
					c-0.267-2.104-0.575-4.067-0.872-5.748C21.346,20.391,20.837,18.158,20.837,18.158z"/>
				<path fill="#CCCCCC" d="M23.509,18.973c0,0,0.15,0.649,0.39,1.783c0.236,1.134,0.558,2.753,0.887,4.695
					c0.626,3.878,1.237,9.045,1.482,14.208c0.188,5.16,0.012,10.325-0.286,14.201c-0.144,1.937-0.35,3.557-0.487,4.689
					c-0.142,1.133-0.237,1.781-0.237,1.781s0.072-0.645,0.177-1.774c0.11-1.13,0.227-2.741,0.36-4.681
					c0.258-3.879,0.381-9.053,0.131-14.232c-0.192-5.176-0.755-10.348-1.341-14.224c-0.276-1.936-0.55-3.547-0.753-4.675
					C23.635,19.617,23.509,18.973,23.509,18.973z"/>
				<path fill="#CCCCCC" d="M26.122,19.461c0,0,0.132,0.644,0.342,1.77c0.207,1.126,0.489,2.733,0.778,4.661
					c0.544,3.85,1.073,8.982,1.28,14.11c0.15,5.125-0.019,10.255-0.291,14.104c-0.152,1.926-0.319,3.531-0.446,4.656
					c-0.13,1.125-0.215,1.768-0.215,1.768s0.063-0.64,0.156-1.761c0.095-1.122,0.218-2.724,0.319-4.649
					c0.232-3.851,0.349-8.989,0.137-14.13c-0.155-5.139-0.635-10.274-1.139-14.124c-0.235-1.922-0.47-3.523-0.643-4.644
					C26.229,20.101,26.122,19.461,26.122,19.461z"/>
				<g>
				</g>
				<path fill="#CCCCCC" d="M31.943,25.535c0,0,0.076,0.631,0.194,1.736c0.115,1.104,0.27,2.681,0.421,4.572
					c0.271,3.78,0.498,8.819,0.507,13.856c-0.048,5.036-0.314,10.076-0.614,13.856c-0.167,1.891-0.334,3.469-0.458,4.573
					c-0.127,1.104-0.208,1.736-0.208,1.736s0.057-0.629,0.145-1.73c0.091-1.101,0.213-2.675,0.327-4.564
					c0.261-3.781,0.478-8.824,0.47-13.869c0.048-5.046-0.128-10.089-0.36-13.87c-0.1-1.889-0.209-3.463-0.292-4.565
					C31.995,26.164,31.943,25.535,31.943,25.535z"/>
				<path fill="#CCCCCC" d="M34.618,28.784c0,0,0.206,2.402,0.406,6c0.086,1.799,0.166,3.897,0.22,6.145
					c0.042,2.247,0.056,4.644,0.036,7.041c-0.067,4.794-0.289,9.588-0.564,13.187c-0.287,3.6-0.553,6.003-0.553,6.003
					s0.178-2.394,0.348-5.99c0.181-3.596,0.383-8.396,0.429-13.196c0.037-2.4,0.038-4.8,0.009-7.05
					c-0.017-2.25-0.064-4.349-0.12-6.148C34.742,31.18,34.618,28.784,34.618,28.784z"/>
				<path fill="#CCCCCC" d="M37.094,30.883c0,0,0.137,2.338,0.27,5.843c0.053,1.752,0.102,3.796,0.133,5.986
					c0.02,2.189,0.021,4.525,0.001,6.86c-0.067,4.671-0.235,9.342-0.446,12.847c-0.222,3.506-0.422,5.845-0.422,5.845
					s0.109-2.333,0.214-5.836c0.116-3.503,0.264-8.178,0.313-12.852c0.038-2.338,0.052-4.675,0.046-6.866
					c0.006-2.191-0.009-4.236-0.033-5.988C37.15,33.217,37.094,30.883,37.094,30.883z"/>
				<path fill="#CCCCCC" d="M39.35,31.756c0,0,0.089,2.327,0.183,5.815c0.033,1.744,0.065,3.779,0.088,5.959
					c0.011,2.18,0.013,4.505,0.004,6.83c-0.046,4.65-0.145,9.3-0.285,12.79c-0.151,3.489-0.282,5.817-0.282,5.817
					s0.04-2.324,0.073-5.811c0.044-3.488,0.125-8.14,0.152-12.792c0.027-2.326,0.041-4.653,0.044-6.833
					c0.014-2.181,0.017-4.216,0.013-5.96C39.359,34.081,39.35,31.756,39.35,31.756z"/>
				<path fill="#CCCCCC" d="M41.578,32.357c0,0,0.054,2.343,0.125,5.857c0.022,1.757,0.047,3.807,0.073,6.004
					c0.014,2.196,0.028,4.539,0.042,6.882c0.001,4.686-0.004,9.372-0.05,12.886c-0.058,3.515-0.103,5.858-0.103,5.858
					s-0.046-2.343-0.108-5.857c-0.05-3.514-0.063-8.2-0.081-12.886c0.005-2.343,0.007-4.686,0.007-6.883
					c0.012-2.197,0.021-4.247,0.028-6.004C41.552,34.7,41.578,32.357,41.578,32.357z"/>
				<path fill="#CCCCCC" d="M67.808,16.682c0,0-0.38,1.47-0.853,3.681c-0.252,1.11-0.528,2.405-0.792,3.793
					c-0.277,1.392-0.543,2.876-0.776,4.362c-0.493,2.976-0.841,5.951-1.068,8.184c-0.238,2.234-0.329,3.719-0.329,3.719
					s0.014-1.482,0.135-3.7c0.132-2.219,0.441-5.178,0.903-8.137c0.245-1.482,0.524-2.965,0.813-4.355
					c0.302-1.393,0.614-2.694,0.898-3.81C67.337,18.179,67.808,16.682,67.808,16.682z"/>
				<path fill="#CCCCCC" d="M65.082,17.779c0,0-0.472,1.951-1.019,4.886c-0.289,1.471-0.594,3.187-0.87,5.027
					c-0.289,1.842-0.547,3.808-0.75,5.775c-0.433,3.936-0.621,7.872-0.685,10.82c-0.075,2.949-0.013,4.91-0.013,4.91
					s-0.138-1.966-0.178-4.908c-0.029-2.942,0.125-6.861,0.527-10.779c0.215-1.961,0.485-3.922,0.785-5.762
					c0.312-1.841,0.653-3.561,0.972-5.036C64.519,19.755,65.082,17.779,65.082,17.779z"/>
				<path fill="#CCCCCC" d="M62.408,18.656c0,0-0.492,2.239-1.033,5.605c-0.285,1.686-0.581,3.654-0.834,5.763
					c-0.265,2.111-0.488,4.364-0.643,6.617c-0.336,4.509-0.373,9.017-0.299,12.393c0.063,3.376,0.24,5.621,0.24,5.621
					s-0.255-2.255-0.431-5.629c-0.165-3.374-0.16-7.866,0.146-12.357c0.167-2.247,0.401-4.494,0.677-6.602
					c0.289-2.109,0.618-4.079,0.933-5.768C61.826,20.917,62.408,18.656,62.408,18.656z"/>
				<path fill="#CCCCCC" d="M59.749,19.448c0,0-0.12,0.641-0.309,1.764c-0.193,1.123-0.454,2.729-0.716,4.657
					c-0.557,3.861-1.088,9.012-1.259,14.168c-0.228,5.158-0.094,10.311,0.167,14.174c0.135,1.932,0.251,3.537,0.362,4.662
					c0.104,1.124,0.176,1.766,0.176,1.766s-0.094-0.645-0.236-1.773c-0.136-1.128-0.342-2.74-0.488-4.67
					c-0.301-3.86-0.487-9.005-0.321-14.145c0.224-5.142,0.803-10.289,1.401-14.152c0.315-1.934,0.624-3.546,0.85-4.676
					C59.605,20.094,59.749,19.448,59.749,19.448z"/>
				<path fill="#CCCCCC" d="M57.148,19.914c0,0-0.102,0.637-0.263,1.753c-0.164,1.117-0.386,2.712-0.608,4.628
					c-0.477,3.836-0.928,8.954-1.063,14.075c-0.193,5.123-0.068,10.243,0.166,14.08c0.101,1.918,0.224,3.515,0.318,4.632
					c0.091,1.117,0.154,1.755,0.154,1.755s-0.085-0.641-0.214-1.762c-0.126-1.12-0.292-2.721-0.445-4.64
					c-0.274-3.836-0.451-8.947-0.319-14.055c0.188-5.11,0.688-10.224,1.204-14.061c0.275-1.921,0.544-3.522,0.742-4.644
					C57.021,20.555,57.148,19.914,57.148,19.914z"/>
				<path fill="#CCCCCC" d="M54.529,20.426c0,0-0.385,2.735-0.761,6.844c-0.412,4.113-0.78,9.598-0.837,15.087
					c-0.114,5.49,0.085,10.977,0.372,15.09c0.252,4.111,0.555,6.847,0.555,6.847s-0.385-2.747-0.745-6.862
					c-0.326-4.112-0.574-9.592-0.52-15.069c0.111-5.478,0.526-10.959,0.978-15.072C54.058,23.174,54.529,20.426,54.529,20.426z"/>
				<path fill="#CCCCCC" d="M51.387,25.935c0,0-0.048,0.628-0.121,1.726c-0.076,1.099-0.176,2.669-0.267,4.554
					c-0.213,3.772-0.371,8.803-0.315,13.837c0,5.033,0.213,10.064,0.467,13.836c0.111,1.885,0.228,3.455,0.315,4.553
					c0.084,1.098,0.139,1.726,0.139,1.726s-0.079-0.63-0.202-1.732c-0.121-1.101-0.283-2.675-0.446-4.562
					c-0.293-3.772-0.556-8.799-0.611-13.824c0.002-5.024,0.21-10.051,0.463-13.823c0.142-1.887,0.288-3.46,0.396-4.561
					C51.316,26.565,51.387,25.935,51.387,25.935z"/>
				<path fill="#CCCCCC" d="M48.738,29.163c0,0-0.11,2.391-0.182,5.982c-0.05,1.796-0.09,3.891-0.101,6.137
					c-0.023,2.246-0.019,4.641,0.019,7.037c0.049,4.791,0.243,9.582,0.414,13.172c0.159,3.589,0.326,5.979,0.326,5.979
					s-0.255-2.398-0.532-5.992c-0.265-3.593-0.479-8.379-0.548-13.164c-0.021-2.393-0.011-4.785,0.026-7.029
					c0.048-2.244,0.122-4.338,0.201-6.134C48.545,31.56,48.738,29.163,48.738,29.163z"/>
				<path fill="#CCCCCC" d="M46.279,31.248c0,0-0.045,2.332-0.055,5.832c-0.018,1.75-0.029,3.792-0.02,5.981
					c-0.003,2.188,0.012,4.523,0.049,6.858c0.047,4.669,0.183,9.338,0.287,12.837c0.091,3.499,0.188,5.829,0.188,5.829
					s-0.187-2.336-0.396-5.838c-0.198-3.502-0.354-8.167-0.419-12.832c-0.019-2.332-0.019-4.665-0.002-6.852
					c0.028-2.187,0.073-4.228,0.12-5.978C46.153,33.583,46.279,31.248,46.279,31.248z"/>
				<path fill="#CCCCCC" d="M43.915,32.113c0,0,0.003,2.323,0.032,5.809c0.001,1.743,0.007,3.777,0.024,5.955
					c0.004,2.179,0.018,4.503,0.042,6.828c0.021,4.649,0.083,9.297,0.108,12.782c0.013,3.485,0.034,5.808,0.034,5.808
					s-0.113-2.325-0.244-5.812c-0.12-3.486-0.201-8.133-0.24-12.78c-0.006-2.323-0.003-4.647,0.006-6.825
					c0.021-2.178,0.049-4.211,0.077-5.954C43.838,34.437,43.915,32.113,43.915,32.113z"/>
				<path fill="none" d="M23.08,64.843"/>
				<path fill="none" d="M25.153,66.381"/>
				<path fill="#FFFFFF" d="M63.85,63.671"/>
				<path fill="#FFFFFF" d="M62.573,53.881"/>
				<path fill="none" d="M60.717,64.832"/>
				<path fill="none" d="M58.642,66.371"/>
			</g>
			<g opacity="0.1">
				<path fill="#CCCCCC" d="M28.847,20.445c0,0,0.451,2.555,0.931,6.382c0.445,3.823,0.872,8.919,1.026,14.011
					c0.099,5.091-0.073,10.185-0.325,14.007c-0.286,3.824-0.605,6.377-0.605,6.377s0.242-2.544,0.422-6.365
					c0.214-3.824,0.335-8.924,0.177-14.028c-0.103-5.102-0.482-10.201-0.889-14.023C29.214,22.987,28.847,20.445,28.847,20.445z"/>
			</g>
		</g>
	</g>
	<g>
		<g>
			<g opacity="0.1">
				<path fill="#CCCCCC" d="M70.326,16.674c0,0-3.564,1.225-8.896,2.409c-5.324,1.148-12.417,2.112-19.502,2.141
					c-7.085-0.029-14.178-0.992-19.502-2.14c-5.332-1.185-8.896-2.409-8.896-2.409s3.535,1.136,8.853,2.21
					c5.325,1.11,12.431,2.028,19.545,2c7.114,0.029,14.22-0.889,19.545-1.999C66.791,17.811,70.326,16.674,70.326,16.674z"/>
				<path fill="#CCCCCC" d="M69.573,19.404c0,0-3.469,1.111-8.659,2.186c-5.183,1.039-12.088,1.912-18.986,1.941
					c-6.898-0.029-13.804-0.902-18.986-1.94c-5.19-1.076-8.659-2.186-8.659-2.186s3.442,1.022,8.619,1.987
					c5.184,1.001,12.101,1.828,19.026,1.8c6.925,0.029,13.841-0.798,19.026-1.799C66.13,20.427,69.573,19.404,69.573,19.404z"/>
				<path fill="#CCCCCC" d="M68.649,22.199c0,0-3.359,0.981-8.387,1.932c-5.021,0.914-11.712,1.682-18.396,1.707
					c-6.684-0.032-13.375-0.808-18.396-1.729c-5.027-0.957-8.387-1.943-8.387-1.943s3.336,0.897,8.352,1.743
					c5.022,0.883,11.723,1.612,18.431,1.588c6.708,0.033,13.408-0.689,18.431-1.565C65.313,23.092,68.649,22.199,68.649,22.199z"/>
				<path fill="#CCCCCC" d="M67.812,24.978c0,0-3.268,0.858-8.161,1.689c-4.887,0.795-11.399,1.46-17.905,1.478
					c-6.506-0.039-13.019-0.726-17.905-1.536c-4.892-0.847-8.161-1.716-8.161-1.716s3.248,0.78,8.13,1.516
					c4.888,0.773,11.409,1.413,17.936,1.395c6.527,0.039,13.048-0.58,17.936-1.336C64.564,25.747,67.812,24.978,67.812,24.978z"/>
				<path fill="#CCCCCC" d="M67.061,27.74c0,0-3.165,0.732-7.904,1.444c-4.734,0.676-11.044,1.244-17.348,1.267
					c-6.304-0.034-12.614-0.615-17.348-1.3c-4.739-0.721-7.904-1.46-7.904-1.46s3.148,0.65,7.878,1.261
					c4.735,0.647,11.052,1.181,17.374,1.158c6.322,0.035,12.639-0.487,17.374-1.125C63.914,28.385,67.061,27.74,67.061,27.74z"/>
				<path fill="#CCCCCC" d="M66.277,30.508c0,0-3.073,0.609-7.674,1.203c-4.598,0.558-10.726,1.027-16.849,1.048
					c-6.124-0.036-12.252-0.52-16.849-1.089c-4.602-0.605-7.675-1.222-7.675-1.222s3.058,0.529,7.653,1.023
					c4.599,0.531,10.733,0.968,16.871,0.948c6.138,0.036,12.272-0.386,16.871-0.906C63.219,31.029,66.277,30.508,66.277,30.508z"/>
				<path fill="#CCCCCC" d="M65.577,33.252c0,0-2.969,0.488-7.417,0.967c-4.445,0.444-10.369,0.82-16.29,0.847
					c-5.921-0.03-11.845-0.411-16.29-0.857c-4.448-0.483-7.417-0.973-7.417-0.973s2.958,0.403,7.4,0.774
					c4.445,0.408,10.374,0.741,16.307,0.715c5.933,0.031,11.862-0.299,16.307-0.704C62.62,33.652,65.577,33.252,65.577,33.252z"/>
				<path fill="#CCCCCC" d="M64.959,35.973c0,0-2.897,0.376-7.239,0.749c-4.339,0.337-10.123,0.624-15.905,0.65
					c-5.782-0.031-11.566-0.325-15.905-0.666c-4.342-0.378-7.239-0.757-7.239-0.757s2.889,0.293,7.226,0.559
					c4.34,0.303,10.128,0.549,15.918,0.524c5.791,0.032,11.579-0.208,15.918-0.507C62.07,36.263,64.959,35.973,64.959,35.973z"/>
				<path fill="#CCCCCC" d="M64.194,38.689c0,0-2.8,0.265-6.998,0.533c-4.196,0.231-9.789,0.431-15.381,0.458
					c-5.592-0.031-11.185-0.235-15.381-0.469c-4.197-0.271-6.998-0.538-6.998-0.538s2.794,0.181,6.989,0.341
					c4.196,0.196,9.792,0.352,15.389,0.326c5.598,0.031,11.193-0.121,15.39-0.314C61.399,38.868,64.194,38.689,64.194,38.689z"/>
				<path fill="#CCCCCC" d="M63.618,41.363c0,0-2.727,0.165-6.816,0.337c-4.088,0.136-9.537,0.258-14.986,0.285
					c-5.449-0.03-10.899-0.153-14.986-0.291c-4.089-0.174-6.816-0.341-6.816-0.341s2.724,0.081,6.81,0.144
					c4.088,0.099,9.539,0.175,14.991,0.147c5.452,0.03,10.903-0.043,14.991-0.14C60.894,41.443,63.618,41.363,63.618,41.363z"/>
				<path fill="#CCCCCC" d="M63.226,44.009c0,0-2.649,0.073-6.621,0.157c-3.972,0.049-9.269,0.098-14.565,0.126
					c-5.296-0.028-10.593-0.077-14.565-0.125c-3.973-0.084-6.621-0.157-6.621-0.157s2.648-0.012,6.62-0.039
					c3.972,0.009,9.269,0.009,14.566-0.02c5.297,0.028,10.594,0.028,14.566,0.019C60.578,43.997,63.226,44.009,63.226,44.009z"/>
				<path fill="#CCCCCC" d="M62.562,46.366c0,0-2.578,0.013-6.446,0.047c-3.869-0.002-9.028,0.013-14.187,0.071
					c-5.16,0-10.32,0.045-14.19,0.098c-3.87,0.017-6.449,0.045-6.449,0.045s2.581-0.112,6.451-0.24
					c3.87-0.092,9.029-0.186,14.187-0.243c5.159,0,10.317,0.034,14.186,0.075C59.982,46.296,62.562,46.366,62.562,46.366z"/>
				<path fill="#CCCCCC" d="M49.194,67.237c0,0-0.944-0.028-2.365-0.055c-0.711-0.021-1.541-0.038-2.431-0.042
					c-0.89-0.016-1.84-0.02-2.79-0.009c-1.9-0.005-3.799,0.05-5.22,0.086c-1.421,0.036-2.364,0.07-2.364,0.07
					s0.953-0.135,2.376-0.263c1.424-0.129,3.317-0.216,5.209-0.233c0.946,0.005,1.893,0.024,2.78,0.054
					c0.888,0.042,1.717,0.094,2.428,0.145C48.242,67.109,49.194,67.237,49.194,67.237z"/>
				<path fill="#CCCCCC" d="M52.866,65.243c0,0-1.386-0.122-3.469-0.218c-1.043-0.062-2.26-0.117-3.565-0.148
					c-1.305-0.043-2.698-0.063-4.091-0.053c-2.786-0.006-5.572,0.115-7.656,0.229c-2.083,0.103-3.469,0.23-3.469,0.23
					s1.396-0.207,3.484-0.425c2.088-0.208,4.865-0.359,7.641-0.375c1.388,0.005,2.777,0.04,4.079,0.097
					c1.302,0.069,2.519,0.159,3.562,0.251C51.471,65.042,52.866,65.243,52.866,65.243z"/>
				<path fill="#CCCCCC" d="M62.994,56.783c0,0-0.612-0.07-1.683-0.177c-1.072-0.111-2.603-0.259-4.442-0.4
					c-3.68-0.316-8.589-0.587-13.5-0.603c-4.912-0.072-9.821,0.112-13.502,0.363c-1.841,0.13-3.371,0.229-4.443,0.323
					c-1.072,0.089-1.684,0.148-1.684,0.148s0.615-0.082,1.69-0.21c1.074-0.122,2.611-0.312,4.451-0.453
					c3.68-0.291,8.584-0.526,13.485-0.513c4.902,0.071,9.807,0.392,13.487,0.748c1.841,0.194,3.377,0.389,4.452,0.532
					C62.379,56.69,62.994,56.783,62.994,56.783z"/>
				<path fill="#CCCCCC" d="M59.778,53.898c0,0-2.256-0.171-5.644-0.315c-1.695-0.086-3.672-0.166-5.791-0.214
					c-2.12-0.06-4.381-0.09-6.643-0.08c-4.523-0.006-9.046,0.158-12.434,0.322c-3.388,0.152-5.643,0.327-5.643,0.327
					s2.264-0.261,5.655-0.528c3.391-0.256,7.907-0.445,12.423-0.461c2.258,0.005,4.516,0.049,6.633,0.121
					c2.118,0.085,4.095,0.197,5.789,0.313C57.514,53.643,59.778,53.898,59.778,53.898z"/>
				<path fill="#CCCCCC" d="M60.961,51.461c0,0-0.598-0.03-1.644-0.076c-1.046-0.049-2.541-0.113-4.335-0.171
					c-3.59-0.148-8.378-0.262-13.167-0.231c-4.789-0.027-9.577,0.091-13.167,0.242c-1.795,0.08-3.289,0.122-4.335,0.174
					c-1.046,0.046-1.644,0.077-1.644,0.077s0.599-0.054,1.647-0.14c1.048-0.08,2.546-0.215,4.34-0.305
					c3.59-0.19,8.375-0.359,13.159-0.389c4.784,0.027,9.569,0.191,13.159,0.379c1.796,0.11,3.292,0.22,4.34,0.302
					C60.362,51.407,60.961,51.461,60.961,51.461z"/>
				<path fill="#CCCCCC" d="M61.847,48.943c0,0-0.624-0.017-1.716-0.041c-1.092-0.027-2.652-0.063-4.524-0.093
					c-3.745-0.093-8.74-0.162-13.736-0.133c-4.996-0.028-9.99,0.042-13.736,0.137c-1.872,0.031-3.432,0.067-4.524,0.095
					c-1.092,0.024-1.716,0.041-1.716,0.041s0.625-0.04,1.718-0.104c1.093-0.061,2.654-0.143,4.527-0.226
					c3.745-0.134,8.738-0.253,13.73-0.283c4.992,0.028,9.985,0.147,13.73,0.279c1.873,0.083,3.434,0.164,4.527,0.225
					C61.222,48.903,61.847,48.943,61.847,48.943z"/>
				<path fill="#CCCCCC" d="M15.409,16.131c0,0,0.47,1.456,1.073,3.633c0.286,1.085,0.601,2.349,0.908,3.703
					c0.294,1.351,0.579,2.792,0.832,4.232c0.477,2.875,0.81,5.75,0.962,7.905c0.141,2.154,0.172,3.593,0.172,3.593
					s-0.107-1.443-0.366-3.615c-0.248-2.17-0.619-5.062-1.129-7.954c-0.24-1.443-0.513-2.886-0.795-4.238
					c-0.269-1.349-0.548-2.607-0.801-3.685C15.788,17.558,15.409,16.131,15.409,16.131z"/>
				<path fill="#CCCCCC" d="M18.15,17.255c0,0,0.573,1.954,1.258,4.876c0.328,1.458,0.678,3.158,1.002,4.978
					c0.311,1.818,0.593,3.757,0.821,5.695c0.428,3.873,0.61,7.746,0.604,10.653c-0.017,2.907-0.139,4.85-0.139,4.85
					s0.046-1.938-0.052-4.854c-0.087-2.915-0.304-6.805-0.763-10.696c-0.216-1.943-0.487-3.886-0.786-5.707
					c-0.287-1.819-0.603-3.515-0.899-4.968C18.631,19.183,18.15,17.255,18.15,17.255z"/>
				<path fill="#CCCCCC" d="M20.837,18.158c0,0,0.6,2.256,1.284,5.631c0.327,1.685,0.67,3.65,0.972,5.753
					c0.29,2.102,0.538,4.344,0.717,6.585c0.332,4.48,0.36,8.96,0.21,12.325c-0.161,3.365-0.407,5.614-0.407,5.614
					s0.168-2.24,0.216-5.607c0.058-3.368-0.001-7.865-0.363-12.362c-0.167-2.247-0.404-4.494-0.683-6.6
					c-0.267-2.104-0.575-4.067-0.872-5.748C21.346,20.391,20.837,18.158,20.837,18.158z"/>
				<path fill="#CCCCCC" d="M23.509,18.973c0,0,0.15,0.649,0.39,1.783c0.236,1.134,0.558,2.753,0.887,4.695
					c0.626,3.878,1.237,9.045,1.482,14.208c0.188,5.16,0.012,10.325-0.286,14.201c-0.144,1.937-0.35,3.557-0.487,4.689
					c-0.142,1.133-0.237,1.781-0.237,1.781s0.072-0.645,0.177-1.774c0.11-1.13,0.227-2.741,0.36-4.681
					c0.258-3.879,0.381-9.053,0.131-14.232c-0.192-5.176-0.755-10.348-1.341-14.224c-0.276-1.936-0.55-3.547-0.753-4.675
					C23.635,19.617,23.509,18.973,23.509,18.973z"/>
				<path fill="#CCCCCC" d="M26.122,19.461c0,0,0.132,0.644,0.342,1.77c0.207,1.126,0.489,2.733,0.778,4.661
					c0.544,3.85,1.073,8.982,1.28,14.11c0.15,5.125-0.019,10.255-0.291,14.104c-0.152,1.926-0.319,3.531-0.446,4.656
					c-0.13,1.125-0.215,1.768-0.215,1.768s0.063-0.64,0.156-1.761c0.095-1.122,0.218-2.724,0.319-4.649
					c0.232-3.851,0.349-8.989,0.137-14.13c-0.155-5.139-0.635-10.274-1.139-14.124c-0.235-1.922-0.47-3.523-0.643-4.644
					C26.229,20.101,26.122,19.461,26.122,19.461z"/>
				<g>
				</g>
				<path fill="#CCCCCC" d="M31.943,25.535c0,0,0.076,0.631,0.194,1.736c0.115,1.104,0.27,2.681,0.421,4.572
					c0.271,3.78,0.498,8.819,0.507,13.856c-0.048,5.036-0.314,10.076-0.614,13.856c-0.167,1.891-0.334,3.469-0.458,4.573
					c-0.127,1.104-0.208,1.736-0.208,1.736s0.057-0.629,0.145-1.73c0.091-1.101,0.213-2.675,0.327-4.564
					c0.261-3.781,0.478-8.824,0.47-13.869c0.048-5.046-0.128-10.089-0.36-13.87c-0.1-1.889-0.209-3.463-0.292-4.565
					C31.995,26.164,31.943,25.535,31.943,25.535z"/>
				<path fill="#CCCCCC" d="M34.618,28.784c0,0,0.206,2.402,0.406,6c0.086,1.799,0.166,3.897,0.22,6.145
					c0.042,2.247,0.056,4.644,0.036,7.041c-0.067,4.794-0.289,9.588-0.564,13.187c-0.287,3.6-0.553,6.003-0.553,6.003
					s0.178-2.394,0.348-5.99c0.181-3.596,0.383-8.396,0.429-13.196c0.037-2.4,0.038-4.8,0.009-7.05
					c-0.017-2.25-0.064-4.349-0.12-6.148C34.742,31.18,34.618,28.784,34.618,28.784z"/>
				<path fill="#CCCCCC" d="M37.094,30.883c0,0,0.137,2.338,0.27,5.843c0.053,1.752,0.102,3.796,0.133,5.986
					c0.02,2.189,0.021,4.525,0.001,6.86c-0.067,4.671-0.235,9.342-0.446,12.847c-0.222,3.506-0.422,5.845-0.422,5.845
					s0.109-2.334,0.214-5.836c0.116-3.503,0.264-8.178,0.313-12.852c0.038-2.338,0.052-4.675,0.046-6.866
					c0.006-2.191-0.009-4.236-0.033-5.988C37.15,33.217,37.094,30.883,37.094,30.883z"/>
				<path fill="#CCCCCC" d="M39.35,31.756c0,0,0.089,2.327,0.183,5.815c0.033,1.744,0.065,3.779,0.088,5.959
					c0.011,2.18,0.013,4.505,0.004,6.83c-0.046,4.65-0.145,9.3-0.285,12.79c-0.151,3.489-0.282,5.817-0.282,5.817
					s0.04-2.324,0.073-5.811c0.044-3.488,0.125-8.14,0.152-12.792c0.027-2.326,0.041-4.653,0.044-6.833
					c0.014-2.181,0.017-4.216,0.013-5.96C39.359,34.081,39.35,31.756,39.35,31.756z"/>
				<path fill="#CCCCCC" d="M41.578,32.357c0,0,0.054,2.343,0.125,5.857c0.022,1.757,0.047,3.807,0.073,6.004
					c0.014,2.196,0.028,4.539,0.042,6.882c0.001,4.686-0.004,9.372-0.05,12.886c-0.058,3.515-0.103,5.858-0.103,5.858
					s-0.046-2.343-0.108-5.857c-0.05-3.514-0.063-8.2-0.081-12.886c0.005-2.343,0.007-4.686,0.007-6.883
					c0.012-2.197,0.021-4.247,0.028-6.004C41.552,34.7,41.578,32.357,41.578,32.357z"/>
				<path fill="#CCCCCC" d="M67.808,16.682c0,0-0.38,1.47-0.853,3.681c-0.252,1.11-0.528,2.405-0.792,3.793
					c-0.277,1.392-0.543,2.876-0.776,4.362c-0.493,2.976-0.841,5.951-1.068,8.184c-0.238,2.234-0.329,3.719-0.329,3.719
					s0.014-1.482,0.135-3.7c0.132-2.219,0.441-5.178,0.903-8.137c0.245-1.482,0.524-2.965,0.813-4.355
					c0.302-1.393,0.614-2.694,0.898-3.81C67.337,18.179,67.808,16.682,67.808,16.682z"/>
				<path fill="#CCCCCC" d="M65.082,17.779c0,0-0.472,1.951-1.019,4.886c-0.289,1.471-0.594,3.187-0.87,5.027
					c-0.289,1.842-0.547,3.808-0.75,5.775c-0.433,3.936-0.621,7.872-0.685,10.82c-0.075,2.949-0.013,4.91-0.013,4.91
					s-0.138-1.966-0.178-4.908c-0.029-2.942,0.125-6.861,0.527-10.779c0.215-1.961,0.485-3.922,0.785-5.762
					c0.312-1.841,0.653-3.561,0.972-5.036C64.519,19.755,65.082,17.779,65.082,17.779z"/>
				<path fill="#CCCCCC" d="M62.408,18.656c0,0-0.492,2.239-1.033,5.605c-0.285,1.686-0.581,3.654-0.834,5.763
					c-0.265,2.111-0.488,4.364-0.643,6.617c-0.336,4.509-0.373,9.017-0.299,12.393c0.063,3.376,0.24,5.621,0.24,5.621
					s-0.255-2.255-0.431-5.629c-0.165-3.374-0.16-7.866,0.146-12.357c0.167-2.247,0.401-4.494,0.677-6.602
					c0.289-2.109,0.618-4.079,0.933-5.768C61.826,20.917,62.408,18.656,62.408,18.656z"/>
				<path fill="#CCCCCC" d="M59.749,19.448c0,0-0.12,0.641-0.309,1.764c-0.193,1.123-0.454,2.729-0.716,4.657
					c-0.557,3.861-1.088,9.012-1.259,14.168c-0.228,5.158-0.094,10.311,0.167,14.174c0.135,1.932,0.251,3.537,0.362,4.662
					c0.104,1.124,0.176,1.766,0.176,1.766s-0.094-0.645-0.236-1.773c-0.136-1.128-0.342-2.74-0.488-4.67
					c-0.301-3.86-0.487-9.005-0.321-14.145c0.224-5.142,0.803-10.289,1.401-14.152c0.315-1.934,0.624-3.546,0.85-4.676
					C59.605,20.094,59.749,19.448,59.749,19.448z"/>
				<path fill="#CCCCCC" d="M57.148,19.914c0,0-0.102,0.637-0.263,1.753c-0.164,1.117-0.386,2.712-0.608,4.628
					c-0.477,3.836-0.928,8.954-1.063,14.075c-0.193,5.123-0.068,10.243,0.166,14.08c0.101,1.918,0.224,3.515,0.318,4.632
					c0.091,1.117,0.154,1.755,0.154,1.755s-0.085-0.641-0.214-1.762c-0.126-1.12-0.292-2.721-0.445-4.64
					c-0.274-3.836-0.451-8.947-0.319-14.055c0.188-5.11,0.688-10.224,1.204-14.061c0.275-1.921,0.544-3.522,0.742-4.644
					C57.021,20.555,57.148,19.914,57.148,19.914z"/>
				<path fill="#CCCCCC" d="M54.529,20.426c0,0-0.385,2.735-0.761,6.844c-0.413,4.113-0.78,9.598-0.837,15.087
					c-0.114,5.49,0.085,10.977,0.372,15.09c0.252,4.111,0.555,6.847,0.555,6.847s-0.385-2.747-0.745-6.862
					c-0.326-4.112-0.574-9.592-0.52-15.069c0.111-5.478,0.526-10.959,0.978-15.072C54.058,23.174,54.529,20.426,54.529,20.426z"/>
				<path fill="#CCCCCC" d="M51.387,25.935c0,0-0.048,0.628-0.121,1.726c-0.076,1.099-0.176,2.669-0.267,4.554
					c-0.213,3.772-0.371,8.803-0.315,13.837c0,5.033,0.213,10.064,0.467,13.836c0.111,1.885,0.228,3.455,0.315,4.553
					c0.084,1.098,0.139,1.726,0.139,1.726s-0.079-0.63-0.202-1.732c-0.121-1.101-0.283-2.675-0.446-4.562
					c-0.293-3.772-0.556-8.799-0.611-13.824c0.002-5.024,0.21-10.051,0.463-13.823c0.142-1.887,0.288-3.46,0.396-4.561
					C51.316,26.565,51.387,25.935,51.387,25.935z"/>
				<path fill="#CCCCCC" d="M48.738,29.163c0,0-0.11,2.391-0.182,5.982c-0.05,1.796-0.09,3.891-0.101,6.137
					c-0.023,2.246-0.019,4.641,0.019,7.037c0.049,4.791,0.243,9.582,0.414,13.172c0.159,3.589,0.326,5.979,0.326,5.979
					s-0.255-2.398-0.532-5.992c-0.265-3.593-0.479-8.379-0.548-13.164c-0.021-2.393-0.011-4.785,0.026-7.029
					c0.048-2.244,0.122-4.338,0.201-6.134C48.545,31.56,48.738,29.163,48.738,29.163z"/>
				<path fill="#CCCCCC" d="M46.279,31.248c0,0-0.045,2.332-0.055,5.832c-0.018,1.75-0.029,3.792-0.02,5.981
					c-0.003,2.188,0.012,4.523,0.049,6.858c0.047,4.669,0.183,9.338,0.287,12.837c0.091,3.499,0.188,5.829,0.188,5.829
					s-0.187-2.336-0.396-5.838c-0.198-3.502-0.354-8.167-0.419-12.832c-0.019-2.332-0.019-4.665-0.002-6.852
					c0.028-2.187,0.073-4.228,0.12-5.978C46.153,33.583,46.279,31.248,46.279,31.248z"/>
				<path fill="#CCCCCC" d="M43.915,32.113c0,0,0.003,2.323,0.032,5.809c0.001,1.743,0.007,3.777,0.024,5.956
					c0.004,2.179,0.018,4.503,0.042,6.828c0.021,4.649,0.083,9.297,0.108,12.782c0.013,3.485,0.034,5.808,0.034,5.808
					s-0.113-2.325-0.244-5.812c-0.12-3.486-0.201-8.133-0.24-12.78c-0.006-2.323-0.003-4.647,0.006-6.825
					c0.021-2.178,0.049-4.211,0.077-5.954C43.838,34.437,43.915,32.113,43.915,32.113z"/>
				<path fill="none" d="M23.08,64.843"/>
				<path fill="none" d="M25.153,66.381"/>
				<path fill="#FFFFFF" d="M63.85,63.671"/>
				<path fill="#FFFFFF" d="M62.573,53.881"/>
				<path fill="none" d="M60.717,64.832"/>
				<path fill="none" d="M58.642,66.371"/>
			</g>
			<g opacity="0.1">
				<path fill="#CCCCCC" d="M28.847,20.445c0,0,0.451,2.555,0.931,6.382c0.445,3.823,0.872,8.919,1.026,14.011
					c0.099,5.091-0.073,10.185-0.325,14.007c-0.286,3.824-0.605,6.377-0.605,6.377s0.242-2.544,0.422-6.365
					c0.214-3.824,0.335-8.924,0.177-14.028c-0.103-5.102-0.482-10.201-0.889-14.023C29.214,22.987,28.847,20.445,28.847,20.445z"/>
			</g>
		</g>
	</g>
	<g>
		<linearGradient id="SVGID_1_" gradientUnits="userSpaceOnUse" x1="41.7535" y1="18.1364" x2="41.7535" y2="73.9192">
			<stop  offset="0" style="stop-color:#00013A"/>
			<stop  offset="1" style="stop-color:#0E3F9D"/>
		</linearGradient>
		<path fill="url(#SVGID_1_)" d="M69.644,18.199c-10.807-5.241-42.997-4.775-55.78,0c0,0-0.639,48.34,27.86,54.737v0.028
			C70.283,66.62,69.644,18.199,69.644,18.199z"/>
	</g>
	
		<polygon fill="#D32020" stroke="#000000" stroke-width="0.7866" stroke-linecap="square" stroke-linejoin="round" stroke-miterlimit="10" points="
		66.372,71.038 55.763,67.34 58.143,60.511 68.752,64.209 64.623,66.467 	"/>
	
		<line fill="none" stroke="#231F20" stroke-width="0.7866" stroke-linecap="round" stroke-linejoin="round" stroke-miterlimit="10" x1="55.989" y1="67.227" x2="61.347" y2="64.376"/>
	
		<line fill="none" stroke="#231F20" stroke-width="0.7866" stroke-linecap="round" stroke-linejoin="round" stroke-miterlimit="10" x1="14.699" y1="64.209" x2="18.828" y2="66.467"/>
	<polyline opacity="0.6" points="23.005,64.558 27.653,67.115 27.034,64.326 	"/>
	<polyline opacity="0.6" points="60.812,64.442 56.163,66.999 56.783,64.21 	"/>
	<g>
		<g>
			<g opacity="0.1">
				<path fill="#CCCCCC" d="M70.326,16.674c0,0-3.564,1.225-8.896,2.409c-5.324,1.148-12.417,2.112-19.502,2.141
					c-7.085-0.029-14.178-0.992-19.502-2.14c-5.332-1.185-8.896-2.409-8.896-2.409s3.535,1.136,8.853,2.21
					c5.325,1.11,12.431,2.028,19.545,2c7.114,0.029,14.22-0.889,19.545-1.999C66.791,17.811,70.326,16.674,70.326,16.674z"/>
				<path fill="#CCCCCC" d="M69.573,19.404c0,0-3.469,1.111-8.659,2.186c-5.183,1.039-12.088,1.912-18.986,1.941
					c-6.898-0.029-13.804-0.902-18.986-1.94c-5.19-1.076-8.659-2.186-8.659-2.186s3.442,1.022,8.619,1.987
					c5.184,1.001,12.101,1.828,19.026,1.8c6.924,0.029,13.841-0.798,19.026-1.799C66.13,20.427,69.573,19.404,69.573,19.404z"/>
				<path fill="#CCCCCC" d="M68.649,22.199c0,0-3.359,0.981-8.387,1.932c-5.021,0.914-11.712,1.682-18.396,1.707
					c-6.684-0.032-13.375-0.808-18.396-1.729c-5.027-0.957-8.387-1.943-8.387-1.943s3.336,0.897,8.352,1.743
					c5.022,0.883,11.723,1.612,18.431,1.588c6.708,0.033,13.408-0.689,18.431-1.565C65.313,23.092,68.649,22.199,68.649,22.199z"/>
				<path fill="#CCCCCC" d="M67.812,24.978c0,0-3.268,0.858-8.161,1.689c-4.887,0.795-11.399,1.46-17.905,1.478
					c-6.506-0.039-13.019-0.726-17.905-1.536c-4.892-0.847-8.161-1.716-8.161-1.716s3.248,0.78,8.13,1.516
					c4.888,0.773,11.409,1.413,17.936,1.395c6.527,0.039,13.048-0.58,17.936-1.336C64.564,25.747,67.812,24.978,67.812,24.978z"/>
				<path fill="#CCCCCC" d="M67.061,27.74c0,0-3.165,0.732-7.904,1.444c-4.734,0.676-11.044,1.244-17.348,1.267
					c-6.304-0.034-12.614-0.615-17.348-1.3c-4.739-0.721-7.904-1.46-7.904-1.46s3.148,0.65,7.878,1.261
					c4.735,0.647,11.052,1.181,17.374,1.158c6.322,0.035,12.639-0.487,17.374-1.125C63.914,28.385,67.061,27.74,67.061,27.74z"/>
				<path fill="#CCCCCC" d="M66.277,30.508c0,0-3.073,0.609-7.674,1.203c-4.598,0.558-10.726,1.027-16.849,1.048
					c-6.124-0.036-12.252-0.52-16.85-1.089c-4.602-0.605-7.675-1.222-7.675-1.222s3.058,0.529,7.653,1.023
					c4.599,0.531,10.733,0.968,16.871,0.948c6.138,0.036,12.272-0.386,16.871-0.906C63.219,31.029,66.277,30.508,66.277,30.508z"/>
				<path fill="#CCCCCC" d="M65.577,33.252c0,0-2.969,0.488-7.417,0.967c-4.445,0.444-10.369,0.82-16.29,0.847
					c-5.921-0.03-11.845-0.411-16.29-0.857c-4.448-0.483-7.417-0.973-7.417-0.973s2.958,0.403,7.4,0.774
					c4.445,0.408,10.374,0.741,16.307,0.715c5.933,0.031,11.862-0.299,16.307-0.704C62.62,33.652,65.577,33.252,65.577,33.252z"/>
				<path fill="#CCCCCC" d="M64.959,35.973c0,0-2.897,0.376-7.239,0.749c-4.339,0.337-10.123,0.624-15.905,0.65
					c-5.782-0.031-11.566-0.325-15.905-0.666c-4.342-0.378-7.239-0.757-7.239-0.757s2.889,0.293,7.226,0.559
					c4.34,0.303,10.128,0.549,15.918,0.524c5.791,0.032,11.579-0.208,15.918-0.507C62.07,36.263,64.959,35.973,64.959,35.973z"/>
				<path fill="#CCCCCC" d="M64.194,38.689c0,0-2.8,0.265-6.998,0.533c-4.196,0.231-9.789,0.431-15.381,0.458
					c-5.592-0.031-11.185-0.235-15.381-0.469c-4.197-0.271-6.998-0.538-6.998-0.538s2.794,0.181,6.989,0.341
					c4.196,0.196,9.792,0.352,15.389,0.326c5.598,0.031,11.193-0.121,15.39-0.314C61.399,38.868,64.194,38.689,64.194,38.689z"/>
				<path fill="#CCCCCC" d="M63.618,41.363c0,0-2.727,0.165-6.816,0.337c-4.088,0.136-9.537,0.258-14.986,0.285
					c-5.449-0.03-10.899-0.153-14.986-0.291c-4.089-0.174-6.816-0.341-6.816-0.341s2.724,0.081,6.81,0.144
					c4.088,0.099,9.539,0.175,14.991,0.147c5.452,0.03,10.903-0.043,14.991-0.14C60.894,41.443,63.618,41.363,63.618,41.363z"/>
				<path fill="#CCCCCC" d="M63.226,44.009c0,0-2.649,0.073-6.621,0.157c-3.972,0.049-9.269,0.098-14.565,0.126
					c-5.296-0.028-10.593-0.077-14.565-0.125c-3.973-0.084-6.621-0.157-6.621-0.157s2.648-0.012,6.62-0.039
					c3.972,0.009,9.269,0.009,14.566-0.02c5.297,0.028,10.594,0.028,14.566,0.019C60.578,43.997,63.226,44.009,63.226,44.009z"/>
				<path fill="#CCCCCC" d="M62.562,46.366c0,0-2.578,0.013-6.446,0.047c-3.869-0.002-9.028,0.013-14.187,0.071
					c-5.16,0-10.32,0.045-14.19,0.098c-3.87,0.017-6.449,0.045-6.449,0.045s2.581-0.112,6.451-0.24
					c3.87-0.092,9.029-0.186,14.187-0.243c5.159,0,10.317,0.034,14.186,0.075C59.982,46.296,62.562,46.366,62.562,46.366z"/>
				<path fill="#CCCCCC" d="M49.194,67.237c0,0-0.944-0.028-2.365-0.055c-0.711-0.021-1.541-0.038-2.431-0.042
					c-0.89-0.016-1.84-0.02-2.79-0.009c-1.9-0.005-3.799,0.05-5.22,0.086c-1.421,0.036-2.364,0.07-2.364,0.07
					s0.953-0.135,2.376-0.263c1.424-0.129,3.317-0.216,5.209-0.233c0.946,0.005,1.893,0.024,2.78,0.054
					c0.888,0.042,1.717,0.094,2.428,0.145C48.242,67.109,49.194,67.237,49.194,67.237z"/>
				<path fill="#CCCCCC" d="M52.866,65.243c0,0-1.386-0.122-3.469-0.218c-1.043-0.062-2.26-0.117-3.565-0.148
					c-1.305-0.043-2.698-0.063-4.091-0.053c-2.786-0.006-5.572,0.115-7.656,0.229c-2.083,0.103-3.469,0.23-3.469,0.23
					s1.396-0.207,3.484-0.425c2.088-0.208,4.865-0.359,7.641-0.375c1.388,0.005,2.777,0.04,4.079,0.097
					c1.302,0.069,2.519,0.159,3.562,0.251C51.471,65.042,52.866,65.243,52.866,65.243z"/>
				<path fill="#CCCCCC" d="M62.994,56.783c0,0-0.612-0.07-1.683-0.177c-1.072-0.111-2.603-0.259-4.442-0.4
					c-3.68-0.316-8.589-0.587-13.5-0.603c-4.912-0.072-9.821,0.112-13.502,0.363c-1.841,0.13-3.371,0.229-4.443,0.323
					c-1.072,0.089-1.684,0.148-1.684,0.148s0.615-0.082,1.69-0.21c1.074-0.122,2.611-0.312,4.451-0.453
					c3.68-0.291,8.584-0.526,13.485-0.513c4.902,0.071,9.807,0.392,13.487,0.748c1.841,0.194,3.377,0.389,4.452,0.532
					C62.379,56.69,62.994,56.783,62.994,56.783z"/>
				<path fill="#CCCCCC" d="M59.778,53.898c0,0-2.256-0.171-5.644-0.315c-1.695-0.086-3.672-0.166-5.791-0.214
					c-2.12-0.06-4.381-0.09-6.643-0.08c-4.523-0.006-9.046,0.158-12.434,0.322c-3.388,0.152-5.643,0.327-5.643,0.327
					s2.264-0.261,5.655-0.528c3.391-0.256,7.907-0.445,12.423-0.461c2.258,0.005,4.516,0.049,6.633,0.121
					c2.118,0.085,4.095,0.197,5.789,0.313C57.514,53.643,59.778,53.898,59.778,53.898z"/>
				<path fill="#CCCCCC" d="M60.961,51.461c0,0-0.598-0.03-1.644-0.076c-1.046-0.049-2.541-0.113-4.335-0.171
					c-3.59-0.148-8.378-0.262-13.167-0.231c-4.789-0.027-9.577,0.091-13.167,0.242c-1.795,0.08-3.289,0.122-4.335,0.174
					c-1.046,0.046-1.644,0.077-1.644,0.077s0.599-0.054,1.647-0.14c1.048-0.08,2.546-0.215,4.34-0.305
					c3.59-0.19,8.375-0.359,13.159-0.389c4.784,0.027,9.569,0.191,13.159,0.379c1.796,0.11,3.292,0.22,4.34,0.302
					C60.362,51.407,60.961,51.461,60.961,51.461z"/>
				<path fill="#CCCCCC" d="M61.847,48.943c0,0-0.624-0.017-1.716-0.041c-1.092-0.027-2.652-0.063-4.524-0.093
					c-3.745-0.093-8.74-0.162-13.736-0.133c-4.996-0.028-9.99,0.042-13.736,0.137c-1.872,0.031-3.432,0.067-4.524,0.095
					c-1.092,0.024-1.716,0.041-1.716,0.041s0.625-0.04,1.718-0.104c1.093-0.061,2.654-0.143,4.527-0.226
					c3.745-0.134,8.738-0.253,13.73-0.283c4.992,0.028,9.985,0.147,13.73,0.279c1.873,0.083,3.434,0.164,4.527,0.225
					C61.222,48.903,61.847,48.943,61.847,48.943z"/>
				<path fill="#CCCCCC" d="M15.409,16.131c0,0,0.47,1.456,1.073,3.633c0.286,1.085,0.601,2.349,0.908,3.703
					c0.294,1.351,0.579,2.792,0.832,4.232c0.477,2.875,0.81,5.75,0.962,7.905c0.141,2.154,0.172,3.593,0.172,3.593
					s-0.107-1.443-0.366-3.615c-0.248-2.17-0.619-5.062-1.129-7.954c-0.24-1.443-0.513-2.886-0.795-4.238
					c-0.269-1.349-0.548-2.607-0.801-3.685C15.788,17.558,15.409,16.131,15.409,16.131z"/>
				<path fill="#CCCCCC" d="M18.15,17.255c0,0,0.573,1.954,1.258,4.876c0.328,1.458,0.678,3.158,1.002,4.978
					c0.311,1.818,0.593,3.757,0.821,5.695c0.428,3.873,0.61,7.746,0.604,10.653c-0.017,2.907-0.139,4.85-0.139,4.85
					s0.046-1.938-0.052-4.854c-0.087-2.915-0.304-6.805-0.763-10.696c-0.216-1.943-0.487-3.886-0.786-5.707
					c-0.287-1.819-0.603-3.515-0.899-4.968C18.631,19.183,18.15,17.255,18.15,17.255z"/>
				<path fill="#CCCCCC" d="M20.837,18.158c0,0,0.6,2.256,1.284,5.631c0.327,1.685,0.67,3.65,0.972,5.753
					c0.29,2.102,0.538,4.344,0.717,6.585c0.332,4.48,0.36,8.96,0.21,12.325c-0.161,3.365-0.407,5.614-0.407,5.614
					s0.168-2.24,0.216-5.607c0.058-3.368-0.001-7.865-0.363-12.362c-0.167-2.247-0.404-4.494-0.683-6.6
					c-0.267-2.104-0.575-4.067-0.872-5.748C21.346,20.391,20.837,18.158,20.837,18.158z"/>
				<path fill="#CCCCCC" d="M23.509,18.973c0,0,0.15,0.649,0.39,1.783c0.236,1.134,0.558,2.753,0.887,4.695
					c0.626,3.878,1.237,9.045,1.482,14.208c0.188,5.16,0.012,10.325-0.286,14.201c-0.144,1.937-0.35,3.557-0.487,4.689
					c-0.142,1.133-0.237,1.781-0.237,1.781s0.072-0.645,0.177-1.774c0.11-1.13,0.227-2.741,0.36-4.681
					c0.258-3.879,0.381-9.053,0.131-14.232c-0.192-5.176-0.755-10.348-1.341-14.224c-0.276-1.936-0.55-3.547-0.753-4.675
					C23.635,19.617,23.509,18.973,23.509,18.973z"/>
				<path fill="#CCCCCC" d="M26.122,19.461c0,0,0.132,0.644,0.342,1.77c0.207,1.126,0.489,2.733,0.778,4.661
					c0.544,3.85,1.073,8.982,1.28,14.11c0.15,5.125-0.019,10.255-0.291,14.104c-0.152,1.926-0.319,3.531-0.446,4.656
					c-0.13,1.125-0.215,1.768-0.215,1.768s0.063-0.64,0.156-1.761c0.095-1.122,0.218-2.724,0.319-4.649
					c0.232-3.851,0.349-8.989,0.137-14.13c-0.155-5.139-0.635-10.274-1.139-14.124c-0.235-1.922-0.47-3.523-0.643-4.644
					C26.229,20.101,26.122,19.461,26.122,19.461z"/>
				<g>
				</g>
				<path fill="#CCCCCC" d="M31.943,25.535c0,0,0.076,0.631,0.194,1.736c0.115,1.104,0.27,2.681,0.421,4.572
					c0.271,3.78,0.498,8.819,0.507,13.856c-0.048,5.036-0.314,10.076-0.614,13.856c-0.167,1.891-0.334,3.469-0.458,4.573
					c-0.127,1.104-0.208,1.736-0.208,1.736s0.057-0.629,0.145-1.73c0.091-1.101,0.213-2.675,0.327-4.564
					c0.261-3.781,0.478-8.824,0.47-13.869c0.048-5.046-0.128-10.089-0.36-13.87c-0.1-1.889-0.209-3.463-0.292-4.565
					C31.995,26.164,31.943,25.535,31.943,25.535z"/>
				<path fill="#CCCCCC" d="M34.618,28.784c0,0,0.206,2.402,0.406,6c0.086,1.799,0.166,3.897,0.22,6.145
					c0.042,2.247,0.056,4.644,0.036,7.041c-0.067,4.794-0.289,9.588-0.564,13.187c-0.287,3.6-0.553,6.003-0.553,6.003
					s0.178-2.394,0.348-5.99c0.181-3.596,0.383-8.396,0.429-13.196c0.037-2.4,0.038-4.8,0.009-7.05
					c-0.017-2.25-0.064-4.349-0.12-6.148C34.742,31.18,34.618,28.784,34.618,28.784z"/>
				<path fill="#CCCCCC" d="M37.094,30.883c0,0,0.137,2.338,0.27,5.843c0.053,1.752,0.102,3.796,0.133,5.986
					c0.02,2.189,0.021,4.525,0.001,6.86c-0.067,4.671-0.235,9.342-0.446,12.847c-0.222,3.506-0.422,5.845-0.422,5.845
					s0.109-2.333,0.214-5.836c0.116-3.503,0.264-8.178,0.313-12.852c0.038-2.338,0.052-4.675,0.046-6.866
					c0.006-2.191-0.009-4.236-0.033-5.988C37.15,33.217,37.094,30.883,37.094,30.883z"/>
				<path fill="#CCCCCC" d="M39.35,31.756c0,0,0.089,2.327,0.183,5.815c0.033,1.744,0.065,3.779,0.088,5.959
					c0.011,2.18,0.013,4.505,0.004,6.83c-0.046,4.65-0.145,9.3-0.285,12.79c-0.151,3.489-0.282,5.817-0.282,5.817
					s0.04-2.324,0.073-5.811c0.044-3.488,0.125-8.14,0.152-12.792c0.027-2.326,0.041-4.653,0.044-6.833
					c0.014-2.181,0.017-4.216,0.013-5.96C39.359,34.081,39.35,31.756,39.35,31.756z"/>
				<path fill="#CCCCCC" d="M41.578,32.357c0,0,0.054,2.343,0.125,5.857c0.022,1.757,0.047,3.807,0.073,6.004
					c0.014,2.196,0.028,4.539,0.042,6.882c0.001,4.686-0.004,9.372-0.05,12.886c-0.058,3.515-0.103,5.858-0.103,5.858
					s-0.046-2.343-0.108-5.857c-0.05-3.514-0.063-8.2-0.081-12.886c0.005-2.343,0.007-4.686,0.007-6.883
					c0.012-2.197,0.021-4.247,0.028-6.004C41.552,34.7,41.578,32.357,41.578,32.357z"/>
				<path fill="#CCCCCC" d="M67.808,16.682c0,0-0.38,1.47-0.853,3.681c-0.252,1.11-0.528,2.405-0.792,3.793
					c-0.277,1.392-0.543,2.876-0.776,4.362c-0.493,2.976-0.841,5.951-1.068,8.184c-0.238,2.234-0.329,3.719-0.329,3.719
					s0.014-1.482,0.135-3.7c0.132-2.219,0.441-5.178,0.903-8.137c0.245-1.482,0.524-2.965,0.813-4.355
					c0.302-1.393,0.614-2.694,0.898-3.81C67.337,18.179,67.808,16.682,67.808,16.682z"/>
				<path fill="#CCCCCC" d="M65.082,17.779c0,0-0.472,1.951-1.019,4.886c-0.289,1.471-0.594,3.187-0.87,5.027
					c-0.289,1.842-0.547,3.808-0.75,5.775c-0.433,3.936-0.621,7.872-0.685,10.82c-0.075,2.949-0.013,4.91-0.013,4.91
					s-0.138-1.966-0.178-4.908c-0.029-2.942,0.125-6.861,0.527-10.779c0.215-1.961,0.485-3.922,0.785-5.762
					c0.312-1.841,0.653-3.561,0.972-5.036C64.519,19.755,65.082,17.779,65.082,17.779z"/>
				<path fill="#CCCCCC" d="M62.408,18.656c0,0-0.492,2.239-1.033,5.605c-0.285,1.686-0.581,3.654-0.834,5.763
					c-0.265,2.111-0.488,4.364-0.643,6.617c-0.336,4.509-0.373,9.017-0.299,12.393c0.063,3.376,0.24,5.621,0.24,5.621
					s-0.255-2.255-0.431-5.629c-0.165-3.374-0.16-7.866,0.146-12.357c0.167-2.247,0.401-4.494,0.677-6.602
					c0.289-2.109,0.618-4.079,0.933-5.768C61.826,20.917,62.408,18.656,62.408,18.656z"/>
				<path fill="#CCCCCC" d="M59.749,19.448c0,0-0.12,0.641-0.309,1.764c-0.193,1.123-0.454,2.729-0.716,4.657
					c-0.557,3.861-1.088,9.012-1.259,14.168c-0.228,5.158-0.094,10.311,0.167,14.174c0.135,1.932,0.251,3.537,0.362,4.662
					c0.104,1.124,0.176,1.766,0.176,1.766s-0.094-0.645-0.236-1.773c-0.136-1.128-0.342-2.74-0.488-4.67
					c-0.301-3.86-0.487-9.005-0.321-14.145c0.224-5.142,0.803-10.289,1.401-14.152c0.315-1.934,0.624-3.546,0.85-4.676
					C59.605,20.094,59.749,19.448,59.749,19.448z"/>
				<path fill="#CCCCCC" d="M57.148,19.914c0,0-0.102,0.637-0.263,1.753c-0.164,1.117-0.386,2.712-0.608,4.628
					c-0.477,3.836-0.928,8.954-1.063,14.075c-0.193,5.123-0.068,10.243,0.166,14.08c0.101,1.918,0.224,3.515,0.318,4.632
					c0.091,1.117,0.154,1.755,0.154,1.755s-0.085-0.641-0.214-1.762c-0.126-1.12-0.292-2.721-0.445-4.64
					c-0.274-3.836-0.451-8.947-0.319-14.055c0.188-5.11,0.688-10.224,1.204-14.061c0.275-1.921,0.544-3.522,0.742-4.644
					C57.021,20.555,57.148,19.914,57.148,19.914z"/>
				<path fill="#CCCCCC" d="M54.529,20.426c0,0-0.385,2.735-0.761,6.844c-0.412,4.113-0.78,9.598-0.837,15.087
					c-0.114,5.49,0.085,10.977,0.372,15.09c0.252,4.111,0.555,6.847,0.555,6.847s-0.385-2.747-0.745-6.862
					c-0.326-4.112-0.574-9.592-0.52-15.069c0.111-5.478,0.526-10.959,0.978-15.072C54.058,23.174,54.529,20.426,54.529,20.426z"/>
				<path fill="#CCCCCC" d="M51.387,25.935c0,0-0.048,0.628-0.121,1.726c-0.076,1.099-0.176,2.669-0.267,4.554
					c-0.213,3.772-0.371,8.803-0.315,13.837c0,5.033,0.213,10.064,0.467,13.836c0.111,1.885,0.228,3.455,0.315,4.553
					c0.084,1.098,0.139,1.726,0.139,1.726s-0.079-0.63-0.202-1.732c-0.121-1.101-0.283-2.675-0.446-4.562
					c-0.293-3.772-0.556-8.799-0.611-13.824c0.002-5.024,0.21-10.051,0.463-13.823c0.142-1.887,0.288-3.46,0.396-4.561
					C51.316,26.565,51.387,25.935,51.387,25.935z"/>
				<path fill="#CCCCCC" d="M48.738,29.163c0,0-0.11,2.391-0.182,5.982c-0.05,1.796-0.09,3.891-0.101,6.137
					c-0.023,2.246-0.019,4.641,0.019,7.037c0.049,4.791,0.243,9.582,0.414,13.172c0.159,3.589,0.326,5.979,0.326,5.979
					s-0.255-2.398-0.532-5.992c-0.265-3.593-0.479-8.379-0.548-13.164c-0.021-2.393-0.011-4.785,0.026-7.029
					c0.048-2.244,0.122-4.338,0.201-6.134C48.545,31.56,48.738,29.163,48.738,29.163z"/>
				<path fill="#CCCCCC" d="M46.279,31.248c0,0-0.045,2.332-0.055,5.832c-0.018,1.75-0.029,3.792-0.02,5.981
					c-0.003,2.188,0.012,4.523,0.049,6.858c0.047,4.669,0.183,9.338,0.287,12.837c0.091,3.499,0.188,5.829,0.188,5.829
					s-0.187-2.336-0.396-5.838c-0.198-3.502-0.354-8.167-0.419-12.832c-0.019-2.332-0.019-4.665-0.002-6.852
					c0.028-2.187,0.073-4.228,0.12-5.978C46.153,33.583,46.279,31.248,46.279,31.248z"/>
				<path fill="#CCCCCC" d="M43.915,32.113c0,0,0.003,2.323,0.032,5.809c0.001,1.743,0.007,3.777,0.024,5.955
					c0.004,2.179,0.018,4.503,0.042,6.828c0.021,4.649,0.083,9.297,0.108,12.782c0.013,3.485,0.034,5.808,0.034,5.808
					s-0.113-2.325-0.244-5.812c-0.12-3.486-0.201-8.133-0.24-12.78c-0.006-2.323-0.003-4.647,0.006-6.825
					c0.021-2.178,0.049-4.211,0.077-5.954C43.838,34.437,43.915,32.113,43.915,32.113z"/>
				<path fill="none" d="M23.08,64.843"/>
				<path fill="none" d="M25.153,66.381"/>
				<path fill="#FFFFFF" d="M63.85,63.671"/>
				<path fill="#FFFFFF" d="M62.573,53.881"/>
				<path fill="none" d="M60.717,64.832"/>
				<path fill="none" d="M58.642,66.371"/>
			</g>
			<g opacity="0.1">
				<path fill="#CCCCCC" d="M28.847,20.445c0,0,0.451,2.555,0.931,6.382c0.445,3.823,0.872,8.919,1.026,14.011
					c0.099,5.091-0.073,10.185-0.325,14.007c-0.286,3.824-0.605,6.377-0.605,6.377s0.242-2.544,0.422-6.365
					c0.214-3.824,0.335-8.924,0.177-14.028c-0.103-5.102-0.482-10.201-0.889-14.023C29.214,22.987,28.847,20.445,28.847,20.445z"/>
			</g>
		</g>
	</g>
	<g>
		<path fill="none" d="M30.365,63.861"/>
	</g>
	<g>
		<path fill="none" d="M30.365,24.234"/>
	</g>
	<g>
		<path d="M43.26,16.186c10.654,0,19.707,1.166,24.629,3.145c-0.136,7.106-1.993,46.008-26.106,51.827
			c-24.035-5.733-26.008-44.346-26.163-51.723C21.834,17.42,32.237,16.186,43.26,16.186 M43.26,14.441
			c-11.238,0-22.856,1.315-29.397,3.758c0,0-0.639,48.34,27.86,54.737v0.028c28.56-6.344,27.92-54.764,27.92-54.764
			C64.366,15.64,53.986,14.441,43.26,14.441L43.26,14.441z"/>
	</g>
	<g>
		
			<circle fill="#9EE073" stroke="#003399" stroke-width="1.06" stroke-linecap="square" stroke-linejoin="round" stroke-miterlimit="10" cx="41.848" cy="20.819" r="11.343"/>
		<path fill="#66C65C" d="M32.689,14.356c0,0-4.997,8.251,1.162,14.178c0.977,0.94,1.162-5.346,1.162-5.346L32.689,14.356z"/>
		<g>
			<path d="M33.879,28.854c0,0,0.16-0.24,0.352-0.678c0.193-0.434,0.395-1.06,0.494-1.788c0.029-0.181,0.046-0.369,0.043-0.568
				c0.013-0.193,0.024-0.391,0.008-0.599c0.003-0.203-0.017-0.414-0.053-0.629c-0.028-0.213-0.038-0.43-0.092-0.653
				c-0.053-0.444-0.228-0.893-0.334-1.359c-0.14-0.465-0.3-0.933-0.51-1.396c-0.191-0.525-0.381-1.049-0.569-1.566
				c-0.197-0.506-0.335-1.023-0.458-1.606c-0.124-0.562-0.248-1.088-0.252-1.634c-0.037-0.531-0.053-1.024,0.054-1.521
				c0.052-0.243,0.045-0.46,0.144-0.681c0.09-0.21,0.175-0.41,0.256-0.598c0.206-0.346,0.426-0.634,0.639-0.794
				c0.412-0.352,0.661-0.461,0.66-0.478l0.119,0.085c0,0-0.185,0.22-0.448,0.614c-0.149,0.188-0.252,0.46-0.368,0.764
				c-0.069,0.322-0.161,0.683-0.125,1.096c-0.027,0.409,0.069,0.848,0.152,1.312c0.054,0.47,0.246,0.937,0.384,1.432
				c0.132,0.497,0.34,0.993,0.547,1.499c0.204,0.507,0.411,1.021,0.618,1.536c0.216,0.518,0.376,1.056,0.516,1.591
				c0.119,0.539,0.231,1.074,0.254,1.603c0.03,0.263,0.033,0.522,0.019,0.776c0.001,0.255-0.016,0.502-0.057,0.742
				c-0.025,0.241-0.066,0.473-0.128,0.693c-0.046,0.224-0.113,0.434-0.189,0.631c-0.287,0.798-0.697,1.387-1.022,1.755
				c-0.324,0.369-0.566,0.534-0.566,0.534L33.879,28.854z"/>
		</g>
		<path fill="#66C65C" d="M52.793,22.491c0-4.781-0.349-8.367-1.395-7.205c-1.739,1.932-9.994,6.723-9.994,11.505
			s1.088,3.636,3.37,4.881C46.053,32.369,52.793,27.272,52.793,22.491z"/>
		<g>
			<path d="M44.724,31.865c0,0-0.373-0.08-0.973-0.354c-0.591-0.283-1.439-0.746-2.252-1.655c-0.405-0.452-0.816-1.021-1.08-1.751
				c-0.279-0.717-0.422-1.612-0.265-2.499c0.146-0.883,0.482-1.753,0.989-2.451c0.497-0.703,1.075-1.318,1.684-1.833
				c0.662-0.511,1.212-0.866,1.781-1.264c0.567-0.408,1.081-0.71,1.599-1.075c0.504-0.369,1.017-0.693,1.479-1.027
				c0.452-0.342,0.898-0.65,1.286-0.955c0.384-0.31,0.735-0.595,1.033-0.865c0.285-0.276,0.54-0.521,0.717-0.746
				c0.375-0.441,0.478-0.783,0.466-0.768l0.181-0.04c0.002,0.005,0.019,0.107,0.006,0.28c-0.021,0.17-0.065,0.419-0.18,0.711
				c-0.213,0.592-0.691,1.349-1.372,2.156c-0.683,0.805-1.564,1.67-2.575,2.511c-0.507,0.417-1.037,0.852-1.589,1.259
				c-0.55,0.411-1.123,0.819-1.651,1.253c-1.061,0.854-1.985,1.954-2.261,3.197c-0.3,1.246,0.147,2.451,0.692,3.305
				c0.553,0.87,1.188,1.475,1.64,1.872c0.458,0.397,0.746,0.584,0.746,0.584L44.724,31.865z"/>
		</g>
		
			<circle fill="none" stroke="#000000" stroke-width="1.06" stroke-linecap="square" stroke-linejoin="round" stroke-miterlimit="10" cx="41.848" cy="20.819" r="11.343"/>
	</g>
	
		<polygon fill="#D32020" stroke="#000000" stroke-width="0.7866" stroke-linecap="square" stroke-linejoin="round" stroke-miterlimit="10" points="
		17.079,71.038 27.688,67.34 25.308,60.511 14.699,64.209 18.828,66.467 	"/>
	<polygon fill="#EE1A18" stroke="#FFFFFF" stroke-width="0.1162" stroke-miterlimit="10" points="19.093,56.191 22.23,64.442 
		61.16,64.326 64.298,55.959 	"/>
	
		<polyline fill="none" stroke="#000000" stroke-width="0.8403" stroke-linecap="square" stroke-linejoin="round" stroke-miterlimit="10" points="
		43.489,64.385 22.115,64.385 18.803,55.939 42.8,55.939 	"/>
	<text transform="matrix(1 0 0 1 23.2764 62.4668)"><tspan x="0" y="0" font-family="'Palatino-Bold'" font-size="6.9725">A</tspan><tspan x="4.9" y="0" font-family="'Palatino-Bold'" font-size="6.9725">CADEMY</tspan></text>
	
		<polyline fill="none" stroke="#231F20" stroke-width="0.7866" stroke-linecap="round" stroke-linejoin="round" stroke-miterlimit="10" points="
		18.803,55.939 22.104,64.376 27.462,67.227 	"/>
	
		<polyline fill="none" stroke="#000000" stroke-width="0.8403" stroke-linecap="square" stroke-linejoin="round" stroke-miterlimit="10" points="
		39.962,64.385 61.335,64.385 64.648,55.939 40.651,55.939 	"/>
	
		<line fill="none" stroke="#231F20" stroke-width="0.7866" stroke-linecap="round" stroke-linejoin="round" stroke-miterlimit="10" x1="27.647" y1="67.227" x2="22.288" y2="64.376"/>
	<polyline opacity="0.6" points="22.824,64.442 27.472,66.999 26.852,64.21 	"/>
	<g>
		<g>
			<path fill="#FFFFFF" d="M21.99,34.787c0.946,3.146,1.415,4.786,2.353,8.16c-0.509-0.059-0.764-0.089-1.273-0.152
				c-0.251-0.888-0.376-1.328-0.627-2.199c-0.789-0.074-1.183-0.113-1.97-0.195c-0.268,0.792-0.401,1.182-0.667,1.952
				c-0.338-0.05-0.507-0.075-0.844-0.127c0.986-2.825,1.485-4.321,2.488-7.438C21.665,34.787,21.773,34.787,21.99,34.787z
				 M20.706,39.72c0.611,0.055,0.917,0.081,1.529,0.132c-0.298-1.024-0.447-1.53-0.746-2.53
				C21.175,38.295,21.018,38.775,20.706,39.72z"/>
			<path fill="#FFFFFF" d="M25.007,34.91c0.74,0.001,1.11,0.002,1.851,0.003c0.475,0.001,0.911,0.064,1.309,0.193
				c0.398,0.129,0.74,0.318,1.026,0.569c0.286,0.25,0.509,0.558,0.667,0.923c0.158,0.365,0.236,0.782,0.234,1.249
				c-0.002,0.419-0.071,0.812-0.208,1.176c-0.137,0.364-0.336,0.677-0.597,0.936c-0.262,0.259-0.582,0.456-0.961,0.59
				c-0.379,0.134-0.813,0.184-1.302,0.15c-0.818-0.056-1.227-0.085-2.045-0.149C24.992,38.294,24.997,37.166,25.007,34.91z
				 M26.231,40.056c0.266,0.017,0.399,0.026,0.665,0.042c0.246,0.015,0.477-0.022,0.695-0.114c0.218-0.091,0.408-0.233,0.571-0.427
				c0.163-0.193,0.293-0.436,0.388-0.727c0.096-0.291,0.144-0.628,0.146-1.012c0.002-0.331-0.041-0.638-0.128-0.921
				c-0.087-0.283-0.209-0.528-0.367-0.736c-0.158-0.208-0.346-0.37-0.565-0.487c-0.219-0.117-0.459-0.175-0.719-0.178
				c-0.266-0.002-0.399-0.003-0.666-0.006C26.244,37.317,26.24,38.23,26.231,40.056z"/>
			<path fill="#FFFFFF" d="M33.1,34.787c0.945,2.495,1.419,3.764,2.369,6.318c-0.512-0.015-0.769-0.023-1.281-0.04
				c-0.253-0.68-0.38-1.019-0.632-1.695c-0.793-0.022-1.189-0.034-1.982-0.061c-0.271,0.651-0.406,0.975-0.677,1.618
				c-0.341-0.017-0.512-0.026-0.853-0.044c1.007-2.385,1.511-3.61,2.516-6.096C32.776,34.787,32.884,34.787,33.1,34.787z
				 M31.809,38.752c0.615,0.018,0.922,0.026,1.537,0.041c-0.299-0.797-0.449-1.195-0.748-1.985
				C32.283,37.59,32.125,37.979,31.809,38.752z"/>
			<path fill="#FFFFFF" d="M36.117,34.922c0.487,0,0.73,0,1.217,0.001c0.701,1.702,1.052,2.559,1.756,4.274
				c0.7-1.704,1.049-2.56,1.745-4.273c0.477,0,0.715,0,1.192,0c0.001,2.507,0.001,3.76,0.002,6.267
				c-0.501,0.001-0.752,0.001-1.253-0.001c0.001-1.633,0.001-2.45,0.002-4.084c-0.667,1.633-1.002,2.449-1.672,4.071
				c-0.194-0.002-0.291-0.003-0.485-0.006c-0.688-1.657-1.032-2.485-1.717-4.131c-0.004,1.64-0.006,2.46-0.01,4.101
				c-0.317-0.007-0.476-0.011-0.793-0.019C36.107,38.642,36.111,37.402,36.117,34.922z"/>
			<path fill="#FFFFFF" d="M45.042,41.259c-0.306,0.005-0.575-0.035-0.805-0.12c-0.23-0.085-0.426-0.204-0.588-0.358
				c-0.162-0.154-0.29-0.337-0.385-0.551c-0.095-0.213-0.16-0.447-0.196-0.702c0.347-0.002,0.521-0.003,0.868-0.006
				c0.031,0.155,0.076,0.3,0.133,0.436c0.058,0.136,0.131,0.253,0.219,0.351c0.089,0.099,0.194,0.176,0.316,0.231
				c0.122,0.055,0.263,0.082,0.424,0.08c0.108-0.002,0.214-0.017,0.318-0.047c0.104-0.029,0.197-0.075,0.28-0.138
				c0.082-0.063,0.149-0.145,0.199-0.246c0.05-0.101,0.075-0.225,0.075-0.371c0-0.186-0.04-0.35-0.118-0.492
				c-0.078-0.142-0.181-0.271-0.309-0.387c-0.128-0.117-0.274-0.225-0.438-0.326c-0.164-0.101-0.331-0.202-0.501-0.305
				c-0.17-0.102-0.337-0.21-0.501-0.321c-0.164-0.112-0.31-0.238-0.438-0.378c-0.128-0.14-0.231-0.298-0.309-0.474
				c-0.078-0.176-0.117-0.378-0.117-0.606c0-0.249,0.044-0.48,0.132-0.693c0.088-0.213,0.216-0.397,0.384-0.552
				c0.168-0.155,0.374-0.277,0.617-0.365s0.52-0.132,0.83-0.132c0.258,0,0.49,0.044,0.698,0.131s0.391,0.206,0.55,0.355
				c0.159,0.15,0.293,0.326,0.402,0.529c0.109,0.203,0.193,0.422,0.251,0.656c-0.315,0.002-0.473,0.003-0.788,0.005
				c-0.046-0.148-0.099-0.289-0.159-0.423c-0.06-0.134-0.134-0.251-0.223-0.353c-0.089-0.102-0.195-0.182-0.319-0.242
				c-0.124-0.06-0.274-0.089-0.448-0.089c-0.162,0-0.3,0.027-0.412,0.08c-0.112,0.053-0.203,0.12-0.272,0.2
				c-0.069,0.081-0.119,0.171-0.148,0.27c-0.03,0.1-0.044,0.198-0.044,0.294c0,0.167,0.04,0.318,0.121,0.454
				c0.08,0.136,0.187,0.261,0.319,0.376c0.133,0.115,0.283,0.225,0.45,0.33c0.167,0.105,0.339,0.211,0.515,0.318
				c0.176,0.106,0.348,0.217,0.517,0.331c0.169,0.115,0.32,0.242,0.453,0.381c0.133,0.139,0.24,0.294,0.32,0.464
				c0.081,0.17,0.121,0.362,0.122,0.577c0.001,0.252-0.042,0.488-0.127,0.706c-0.086,0.218-0.212,0.41-0.381,0.575
				c-0.168,0.165-0.377,0.296-0.627,0.393C45.656,41.202,45.368,41.253,45.042,41.259z"/>
			<path fill="#FFFFFF" d="M50.741,41.13c-0.275,0.012-0.538-0.013-0.789-0.076c-0.251-0.063-0.485-0.158-0.701-0.286
				c-0.216-0.127-0.412-0.285-0.59-0.473c-0.178-0.188-0.329-0.402-0.454-0.641c-0.125-0.239-0.222-0.501-0.291-0.785
				c-0.069-0.283-0.104-0.584-0.105-0.903c-0.001-0.312,0.032-0.609,0.099-0.888c0.067-0.28,0.162-0.537,0.286-0.772
				c0.123-0.235,0.273-0.447,0.449-0.636c0.176-0.189,0.371-0.349,0.585-0.479c0.214-0.13,0.447-0.229,0.697-0.3
				c0.25-0.07,0.513-0.105,0.787-0.105c0.274,0,0.537,0.035,0.788,0.104c0.251,0.069,0.484,0.167,0.699,0.295
				c0.215,0.127,0.412,0.281,0.589,0.462c0.177,0.181,0.329,0.383,0.454,0.607c0.125,0.224,0.222,0.469,0.292,0.734
				c0.069,0.265,0.105,0.546,0.106,0.843c0.001,0.314-0.031,0.611-0.098,0.891c-0.067,0.28-0.162,0.54-0.285,0.78
				c-0.123,0.239-0.273,0.456-0.448,0.651c-0.176,0.194-0.371,0.362-0.585,0.503c-0.214,0.141-0.447,0.252-0.698,0.333
				C51.279,41.071,51.016,41.118,50.741,41.13z M50.739,40.614c0.249-0.01,0.468-0.087,0.657-0.229
				c0.189-0.142,0.348-0.335,0.476-0.579c0.128-0.243,0.224-0.529,0.288-0.858c0.064-0.329,0.095-0.685,0.094-1.07
				c-0.002-0.379-0.036-0.727-0.103-1.042c-0.067-0.315-0.166-0.587-0.295-0.814s-0.29-0.404-0.48-0.53
				c-0.19-0.126-0.41-0.189-0.658-0.189c-0.251,0.001-0.471,0.066-0.662,0.195c-0.191,0.129-0.349,0.311-0.476,0.544
				c-0.127,0.233-0.223,0.511-0.287,0.835c-0.064,0.324-0.096,0.68-0.095,1.067c0.001,0.393,0.036,0.756,0.103,1.087
				c0.067,0.331,0.165,0.616,0.294,0.854c0.129,0.238,0.289,0.422,0.481,0.55C50.267,40.565,50.488,40.624,50.739,40.614z"/>
			<path fill="#FFFFFF" d="M54.614,34.915c0.319,0,0.479-0.001,0.798-0.001c1.17,1.481,1.755,2.2,2.922,3.572
				c-0.006-1.43-0.009-2.146-0.016-3.576c0.314-0.001,0.47-0.001,0.784-0.001c0.009,2.258,0.014,3.387,0.023,5.645
				c-0.216,0.018-0.323,0.027-0.539,0.045c-1.267-1.471-1.902-2.249-3.173-3.859c0.008,1.6,0.012,2.401,0.019,4.001
				c-0.316,0.021-0.474,0.031-0.791,0.05C54.631,38.44,54.625,37.265,54.614,34.915z"/>
			<path fill="#FFFFFF" d="M62.122,42.631c-0.303,0.043-0.569,0.026-0.797-0.051c-0.228-0.078-0.422-0.203-0.583-0.375
				c-0.161-0.173-0.289-0.387-0.383-0.644c-0.095-0.256-0.161-0.542-0.197-0.857c0.345-0.032,0.518-0.048,0.863-0.082
				c0.031,0.188,0.076,0.363,0.133,0.525c0.057,0.161,0.13,0.298,0.218,0.41c0.088,0.112,0.193,0.195,0.314,0.25
				c0.121,0.055,0.261,0.072,0.42,0.052c0.107-0.014,0.212-0.044,0.315-0.09c0.103-0.047,0.195-0.112,0.277-0.196
				s0.147-0.189,0.197-0.316c0.05-0.127,0.074-0.277,0.074-0.451c0-0.223-0.039-0.416-0.116-0.579
				c-0.077-0.163-0.18-0.31-0.307-0.44c-0.127-0.131-0.272-0.251-0.435-0.361c-0.163-0.11-0.329-0.223-0.498-0.337
				c-0.169-0.114-0.335-0.235-0.499-0.363c-0.163-0.128-0.309-0.275-0.437-0.442c-0.128-0.167-0.231-0.358-0.309-0.573
				c-0.078-0.215-0.118-0.466-0.119-0.751c-0.001-0.31,0.042-0.6,0.129-0.866c0.087-0.266,0.215-0.496,0.382-0.69
				c0.168-0.194,0.373-0.344,0.616-0.453c0.243-0.108,0.52-0.161,0.83-0.161c0.258,0,0.49,0.053,0.698,0.157
				c0.208,0.104,0.391,0.244,0.55,0.42c0.159,0.176,0.292,0.383,0.401,0.62c0.108,0.237,0.191,0.492,0.248,0.766
				c-0.314,0.013-0.471,0.019-0.786,0.031c-0.045-0.175-0.098-0.341-0.158-0.499c-0.06-0.158-0.134-0.297-0.222-0.417
				c-0.088-0.12-0.195-0.215-0.319-0.286c-0.124-0.07-0.273-0.104-0.447-0.102c-0.162,0.002-0.299,0.036-0.411,0.101
				c-0.112,0.066-0.202,0.148-0.271,0.248c-0.069,0.1-0.118,0.211-0.148,0.334c-0.029,0.123-0.044,0.243-0.044,0.362
				c0.001,0.205,0.041,0.389,0.121,0.553c0.08,0.164,0.187,0.313,0.319,0.447c0.132,0.134,0.282,0.262,0.449,0.381
				c0.167,0.12,0.338,0.239,0.513,0.357c0.175,0.118,0.346,0.241,0.514,0.367c0.168,0.126,0.317,0.267,0.449,0.423
				c0.132,0.156,0.238,0.33,0.317,0.524c0.079,0.194,0.119,0.416,0.119,0.668c0,0.297-0.043,0.577-0.128,0.842
				c-0.085,0.266-0.211,0.505-0.378,0.719c-0.167,0.214-0.374,0.395-0.621,0.54C62.728,42.489,62.444,42.586,62.122,42.631z"/>
			<path fill="#FFFFFF" d="M31.412,42.474c-0.001,0.235-0.002,0.352-0.003,0.587c-0.809-0.051-1.214-0.08-2.022-0.141
				c-0.012,2.484-0.018,3.727-0.03,6.211c-0.572-0.077-0.859-0.118-1.43-0.204c0.012-2.449,0.018-3.674,0.03-6.123
				c-0.808-0.069-1.211-0.106-2.017-0.185c0.001-0.222,0.002-0.333,0.003-0.555C28.126,42.263,29.221,42.345,31.412,42.474z"/>
			<path fill="#FFFFFF" d="M36.805,42.707c-0.001,0.242-0.001,0.363-0.001,0.605c-1.175-0.035-1.762-0.057-2.935-0.114
				c-0.003,0.927-0.005,1.39-0.008,2.317c0.975,0.06,1.463,0.085,2.44,0.125c-0.001,0.243-0.001,0.365-0.002,0.608
				c-0.977-0.043-1.465-0.069-2.44-0.132c-0.004,1.114-0.006,1.671-0.01,2.785c1.176,0.094,1.764,0.133,2.942,0.191
				c-0.001,0.292-0.001,0.438-0.002,0.729c-1.754-0.091-2.63-0.158-4.379-0.333c0.011-2.783,0.017-4.174,0.028-6.957
				C34.184,42.624,35.057,42.659,36.805,42.707z"/>
			<path fill="#FFFFFF" d="M37.998,42.736c0.367,0.008,0.55,0.011,0.917,0.016c1.333,1.841,2.002,2.765,3.342,4.581
				c-0.001-1.825-0.001-2.738-0.002-4.563c0.36-0.002,0.541-0.003,0.901-0.006c0.002,2.911,0.004,4.366,0.006,7.277
				c-0.249,0.004-0.374,0.006-0.623,0.009c-1.458-1.998-2.185-3.019-3.635-5.057c-0.003,1.966-0.004,2.948-0.007,4.914
				c-0.365-0.011-0.547-0.017-0.912-0.031C37.99,47.02,37.993,45.592,37.998,42.736z"/>
			<path fill="#FFFFFF" d="M44.596,42.745c0.367-0.007,0.55-0.01,0.917-0.019c1.339,1.784,2.01,2.665,3.353,4.365
				c-0.006-1.79-0.009-2.685-0.016-4.475c0.36-0.015,0.54-0.023,0.9-0.041c0.011,2.842,0.016,4.263,0.027,7.105
				c-0.249,0.023-0.373,0.034-0.622,0.055c-1.46-1.85-2.19-2.815-3.646-4.775c0.004,1.959,0.006,2.939,0.01,4.898
				c-0.365,0.016-0.547,0.023-0.912,0.035C44.602,47.034,44.6,45.604,44.596,42.745z"/>
			<path fill="#FFFFFF" d="M51.248,42.498c0.573-0.032,0.859-0.05,1.432-0.087c0.013,2.739,0.019,4.109,0.032,6.848
				c-0.573,0.071-0.86,0.104-1.434,0.165C51.266,46.653,51.26,45.268,51.248,42.498z"/>
			<path fill="#FFFFFF" d="M56.211,48.861c-0.349,0.057-0.655,0.059-0.917,0.005c-0.262-0.054-0.486-0.152-0.671-0.293
				c-0.185-0.141-0.332-0.32-0.441-0.537c-0.109-0.217-0.185-0.461-0.227-0.732c0.397-0.048,0.595-0.072,0.992-0.124
				c0.036,0.162,0.088,0.311,0.154,0.448c0.066,0.137,0.15,0.251,0.252,0.343c0.102,0.092,0.222,0.158,0.361,0.198
				c0.139,0.04,0.3,0.045,0.483,0.017c0.123-0.019,0.243-0.053,0.362-0.101c0.118-0.048,0.224-0.112,0.318-0.192
				c0.094-0.08,0.169-0.177,0.225-0.292c0.057-0.115,0.085-0.249,0.084-0.402c-0.001-0.196-0.046-0.361-0.135-0.499
				c-0.089-0.137-0.207-0.257-0.353-0.361c-0.146-0.104-0.313-0.198-0.5-0.282c-0.187-0.084-0.378-0.169-0.572-0.256
				c-0.194-0.087-0.385-0.18-0.573-0.28c-0.188-0.1-0.355-0.217-0.502-0.353c-0.147-0.136-0.265-0.295-0.355-0.476
				c-0.09-0.181-0.135-0.396-0.136-0.643c-0.001-0.269,0.048-0.523,0.148-0.761c0.1-0.238,0.246-0.448,0.438-0.63
				c0.192-0.182,0.427-0.331,0.705-0.447c0.278-0.116,0.594-0.188,0.949-0.218c0.295-0.025,0.561-0.002,0.798,0.068
				c0.238,0.07,0.447,0.175,0.629,0.313c0.182,0.138,0.335,0.306,0.46,0.504c0.125,0.198,0.22,0.414,0.287,0.65
				c-0.359,0.044-0.539,0.065-0.899,0.106c-0.053-0.149-0.113-0.29-0.182-0.423c-0.069-0.133-0.154-0.248-0.255-0.345
				c-0.101-0.097-0.223-0.17-0.365-0.219c-0.142-0.049-0.313-0.065-0.512-0.047c-0.185,0.017-0.342,0.059-0.47,0.126
				c-0.128,0.067-0.231,0.148-0.31,0.241c-0.079,0.093-0.135,0.194-0.169,0.303c-0.034,0.11-0.05,0.216-0.05,0.319
				c0.001,0.178,0.047,0.336,0.14,0.472c0.092,0.136,0.214,0.257,0.366,0.364c0.152,0.106,0.324,0.205,0.515,0.296
				c0.191,0.091,0.388,0.18,0.588,0.269c0.201,0.089,0.398,0.181,0.59,0.277c0.193,0.096,0.365,0.206,0.516,0.332
				c0.152,0.125,0.273,0.269,0.365,0.432c0.092,0.164,0.138,0.356,0.139,0.579c0.001,0.262-0.047,0.513-0.144,0.754
				c-0.097,0.241-0.241,0.463-0.432,0.665c-0.191,0.202-0.428,0.377-0.712,0.522C56.909,48.696,56.582,48.8,56.211,48.861z"/>
		</g>
	</g>
	<text transform="matrix(-1 0 0 -1 60.833 31.4194)" fill="#FFFFFF" font-family="'MyriadPro-Regular'" font-size="5.3322"></text>
</g>
</svg>
