<?xml version="1.0" encoding="utf-8"?>
<!-- Generator: Adobe Illustrator 17.0.0, SVG Export Plug-In . SVG Version: 6.00 Build 0)  -->
<!DOCTYPE svg PUBLIC "-//W3C//DTD SVG 1.1//EN" "http://www.w3.org/Graphics/SVG/1.1/DTD/svg11.dtd">
<svg version="1.1" id="Layer_1" xmlns="http://www.w3.org/2000/svg" xmlns:xlink="http://www.w3.org/1999/xlink" x="0px" y="0px"
	 width="85px" height="85px" viewBox="0 0 85 85" enable-background="new 0 0 85 85" xml:space="preserve">
<path id="Blue_1_" fill="#3C5A99" d="M236.26,70.26c1.575,0,2.853-1.278,2.853-2.853V21.418c0-1.576-1.277-2.853-2.853-2.853
	h-45.989c-1.576,0-2.853,1.277-2.853,2.853v45.989c0,1.576,1.277,2.853,2.853,2.853C190.271,70.26,236.26,70.26,236.26,70.26z"/>
<path id="f" fill="#FFFFFF" d="M223.086,70.26V50.241h6.719l1.006-7.802h-7.726v-4.981c0-2.259,0.627-3.798,3.866-3.798l4.131-0.002
	V26.68c-0.714-0.095-3.167-0.308-6.02-0.308c-5.956,0-10.034,3.636-10.034,10.313v5.754h-6.737v7.802h6.737V70.26H223.086z"/>
<g>
	<path fill="#565656" d="M42.007,72.107c-25.521-5.869-26.841-47.456-26.901-52.96c6.188-2.152,16.959-3.479,28.37-3.479
		c11.096,0,20.499,1.275,25.373,3.424C68.796,24.365,67.555,66.164,42.007,72.107z"/>
	<path fill="#231F20" d="M43.475,16.536c10.597,0,19.602,1.16,24.498,3.129c-0.135,7.068-1.982,45.762-25.966,51.55
		C18.1,65.513,16.138,27.106,15.983,19.768C22.163,17.764,32.511,16.536,43.475,16.536 M43.475,14.801
		c-11.178,0-22.734,1.308-29.24,3.738c0,0-0.636,48.082,27.711,54.445v0.028c28.408-6.31,27.772-54.472,27.772-54.472
		C64.469,15.993,54.144,14.801,43.475,14.801L43.475,14.801z"/>
</g>
<polygon fill="#ADADAD" stroke="#231F20" stroke-width="0.7824" stroke-linecap="square" stroke-linejoin="round" stroke-miterlimit="10" points="
	66.464,71.095 55.912,67.417 58.279,60.625 68.831,64.303 64.724,66.549 "/>
<line fill="none" stroke="#231F20" stroke-width="0.7824" stroke-linecap="round" stroke-linejoin="round" stroke-miterlimit="10" x1="56.136" y1="67.305" x2="61.466" y2="64.469"/>
<g>
	<g>
		<g opacity="0.1">
			<path fill="#CCCCCC" d="M70.397,17.022c0,0-3.545,1.218-8.848,2.396c-5.295,1.142-12.351,2.101-19.398,2.129
				c-7.047-0.028-14.103-0.987-19.398-2.129c-5.303-1.178-8.849-2.397-8.849-2.397s3.516,1.13,8.805,2.198
				c5.297,1.104,12.365,2.017,19.441,1.989c7.076,0.028,14.144-0.884,19.441-1.989C66.88,18.152,70.397,17.022,70.397,17.022z"/>
			<path fill="#CCCCCC" d="M69.648,19.737c0,0-3.45,1.105-8.612,2.174c-5.155,1.033-12.024,1.902-18.885,1.93
				c-6.861-0.028-13.73-0.897-18.885-1.93c-5.162-1.07-8.612-2.175-8.612-2.175s3.424,1.017,8.573,1.976
				c5.157,0.996,12.037,1.818,18.924,1.79c6.888,0.028,13.768-0.794,18.924-1.79C66.224,20.754,69.648,19.737,69.648,19.737z"/>
			<path fill="#CCCCCC" d="M68.729,22.517c0,0-3.342,0.976-8.342,1.922c-4.994,0.91-11.649,1.673-18.298,1.698
				c-6.648-0.032-13.304-0.804-18.298-1.719c-5.001-0.952-8.342-1.932-8.342-1.932s3.318,0.892,8.308,1.734
				c4.996,0.878,11.661,1.604,18.332,1.579c6.672,0.032,13.337-0.685,18.332-1.557C65.41,23.405,68.729,22.517,68.729,22.517z"/>
			<path fill="#CCCCCC" d="M67.897,25.281c0,0-3.251,0.853-8.117,1.68c-4.861,0.79-11.338,1.453-17.81,1.471
				c-6.472-0.039-12.949-0.722-17.81-1.528c-4.866-0.843-8.117-1.707-8.117-1.707s3.231,0.776,8.087,1.508
				c4.862,0.768,11.348,1.405,17.84,1.388c6.492,0.039,12.978-0.577,17.84-1.329C64.666,26.047,67.897,25.281,67.897,25.281z"/>
			<path fill="#CCCCCC" d="M67.15,28.029c0,0-3.148,0.728-7.862,1.437c-4.709,0.672-10.985,1.238-17.255,1.26
				c-6.271-0.034-12.546-0.612-17.255-1.293c-4.714-0.718-7.862-1.452-7.862-1.452s3.131,0.647,7.836,1.254
				c4.71,0.643,10.993,1.174,17.281,1.152c6.288,0.034,12.571-0.484,17.281-1.119C64.019,28.67,67.15,28.029,67.15,28.029z"/>
			<path fill="#CCCCCC" d="M66.369,30.781c0,0-3.056,0.605-7.633,1.196c-4.573,0.555-10.668,1.022-16.759,1.043
				c-6.091-0.036-12.186-0.518-16.76-1.083c-4.577-0.602-7.634-1.215-7.634-1.215s3.042,0.526,7.612,1.018
				c4.574,0.528,10.675,0.963,16.781,0.942c6.106,0.036,12.207-0.384,16.781-0.901C63.327,31.3,66.369,30.781,66.369,30.781z"/>
			<path fill="#CCCCCC" d="M65.673,33.511c0,0-2.953,0.485-7.377,0.962c-4.421,0.441-10.314,0.816-16.203,0.842
				c-5.889-0.03-11.782-0.409-16.203-0.853c-4.424-0.48-7.377-0.967-7.377-0.967s2.942,0.4,7.36,0.77
				c4.422,0.406,10.319,0.737,16.22,0.711c5.901,0.03,11.798-0.297,16.22-0.7C62.732,33.909,65.673,33.511,65.673,33.511z"/>
			<path fill="#CCCCCC" d="M65.058,36.217c0,0-2.882,0.374-7.2,0.745c-4.316,0.335-10.069,0.621-15.82,0.647
				c-5.751-0.031-11.504-0.323-15.82-0.663c-4.319-0.376-7.201-0.753-7.201-0.753s2.873,0.291,7.187,0.556
				c4.317,0.302,10.074,0.546,15.833,0.521c5.76,0.032,11.517-0.207,15.833-0.504C62.185,36.506,65.058,36.217,65.058,36.217z"/>
			<path fill="#CCCCCC" d="M64.297,38.919c0,0-2.785,0.264-6.96,0.53c-4.173,0.23-9.737,0.429-15.299,0.456
				c-5.562-0.03-11.125-0.233-15.299-0.467c-4.175-0.269-6.96-0.535-6.96-0.535s2.779,0.18,6.951,0.339
				c4.174,0.195,9.74,0.35,15.307,0.324c5.568,0.031,11.134-0.12,15.307-0.312C61.518,39.097,64.297,38.919,64.297,38.919z"/>
			<path fill="#CCCCCC" d="M63.725,41.579c0,0-2.712,0.164-6.779,0.336c-4.066,0.136-9.487,0.256-14.906,0.284
				c-5.42-0.029-10.84-0.152-14.906-0.29c-4.067-0.173-6.779-0.339-6.779-0.339s2.709,0.081,6.774,0.143
				c4.066,0.099,9.488,0.174,14.911,0.147c5.423,0.03,10.845-0.043,14.911-0.14C61.016,41.659,63.725,41.579,63.725,41.579z"/>
			<path fill="#CCCCCC" d="M63.334,44.211c0,0-2.635,0.073-6.586,0.157c-3.951,0.049-9.219,0.097-14.487,0.126
				c-5.268-0.028-10.536-0.076-14.487-0.124c-3.951-0.084-6.586-0.156-6.586-0.156s2.634-0.012,6.585-0.039
				c3.951,0.009,9.22,0.009,14.489-0.02c5.269,0.028,10.537,0.028,14.489,0.018C60.701,44.199,63.334,44.211,63.334,44.211z"/>
			<path fill="#CCCCCC" d="M62.675,46.555c0,0-2.564,0.013-6.412,0.047c-3.848-0.002-8.979,0.013-14.112,0.07
				c-5.132,0-10.265,0.045-14.114,0.097c-3.849,0.017-6.415,0.045-6.415,0.045s2.567-0.112,6.416-0.239
				c3.849-0.092,8.981-0.185,14.111-0.242c5.131,0,10.262,0.034,14.11,0.075C60.108,46.485,62.675,46.555,62.675,46.555z"/>
			<path fill="#CCCCCC" d="M49.377,67.315c0,0-0.939-0.028-2.352-0.054c-1.414-0.026-3.303-0.069-5.193-0.05
				c-1.89-0.005-3.779,0.05-5.192,0.086c-1.413,0.036-2.352,0.07-2.352,0.07s0.948-0.134,2.364-0.262
				c1.416-0.128,3.299-0.214,5.181-0.232c1.882,0.006,3.765,0.079,5.181,0.198C48.43,67.187,49.377,67.315,49.377,67.315z"/>
			<path fill="#CCCCCC" d="M53.03,65.332c0,0-1.378-0.122-3.451-0.217c-2.073-0.106-4.844-0.217-7.615-0.2
				c-2.771-0.006-5.542,0.114-7.615,0.228c-2.072,0.103-3.45,0.229-3.45,0.229s1.388-0.206,3.466-0.423
				c2.077-0.207,4.839-0.357,7.6-0.373c2.761,0.007,5.524,0.147,7.6,0.346C51.642,65.131,53.03,65.332,53.03,65.332z"/>
			<path fill="#CCCCCC" d="M63.104,56.916c0,0-2.435-0.294-6.092-0.57c-3.658-0.288-8.543-0.572-13.429-0.603
				c-4.886-0.055-9.771,0.142-13.43,0.366c-3.658,0.213-6.094,0.465-6.094,0.465s2.445-0.337,6.108-0.664
				c3.662-0.316,8.538-0.536,13.413-0.506c4.876,0.054,9.752,0.36,13.415,0.74C60.658,56.536,63.104,56.916,63.104,56.916z"/>
			<path fill="#CCCCCC" d="M59.905,54.047c0,0-2.244-0.17-5.614-0.314c-3.37-0.155-7.869-0.309-12.368-0.292
				c-4.499-0.006-8.997,0.158-12.368,0.32c-3.37,0.151-5.613,0.325-5.613,0.325s2.251-0.259,5.625-0.525
				c3.373-0.255,7.865-0.442,12.356-0.459c4.492,0.007,8.984,0.185,12.356,0.432C57.654,53.794,59.905,54.047,59.905,54.047z"/>
			<path fill="#CCCCCC" d="M61.082,51.623c0,0-2.378-0.132-5.947-0.242c-3.57-0.121-8.333-0.248-13.097-0.234
				c-4.764-0.01-9.527,0.121-13.097,0.245c-3.569,0.112-5.947,0.246-5.947,0.246s2.383-0.22,5.956-0.447
				c3.572-0.216,8.33-0.369,13.089-0.383c4.758,0.01,9.517,0.16,13.089,0.373C58.699,51.405,61.082,51.623,61.082,51.623z"/>
			<path fill="#CCCCCC" d="M61.963,49.118c0,0-2.482-0.076-6.206-0.133c-3.725-0.093-8.693-0.161-13.662-0.132
				c-4.969-0.028-9.937,0.042-13.662,0.136c-3.724,0.058-6.206,0.135-6.206,0.135s2.485-0.16,6.212-0.328
				c3.725-0.133,8.692-0.252,13.657-0.281c4.965,0.028,9.932,0.146,13.657,0.278C59.478,48.959,61.963,49.118,61.963,49.118z"/>
			<path fill="#CCCCCC" d="M15.773,16.481c0,0,0.468,1.448,1.067,3.613c0.587,2.162,1.232,5.028,1.731,7.893
				c0.475,2.86,0.806,5.719,0.957,7.862c0.14,2.142,0.171,3.574,0.171,3.574s-0.107-1.436-0.364-3.596
				c-0.247-2.159-0.616-5.035-1.123-7.911c-0.482-2.871-1.101-5.741-1.588-7.88C16.149,17.901,15.773,16.481,15.773,16.481z"/>
			<path fill="#CCCCCC" d="M18.499,17.6c0,0,0.569,1.943,1.251,4.85c0.67,2.904,1.364,6.761,1.813,10.616
				c0.425,3.852,0.607,7.704,0.6,10.596c-0.017,2.892-0.138,4.825-0.138,4.825s0.046-1.928-0.052-4.828
				c-0.086-2.9-0.303-6.769-0.759-10.639c-0.432-3.867-1.104-7.732-1.677-10.619C18.978,19.517,18.499,17.6,18.499,17.6z"/>
			<path fill="#CCCCCC" d="M21.172,18.497c0,0,0.597,2.244,1.277,5.601c0.669,3.355,1.326,7.814,1.68,12.272
				c0.33,4.456,0.358,8.912,0.208,12.259c-0.16,3.347-0.405,5.584-0.405,5.584s0.168-2.228,0.214-5.577
				c0.058-3.35-0.001-7.823-0.361-12.296c-0.336-4.471-0.973-8.941-1.547-12.283C21.678,20.718,21.172,18.497,21.172,18.497z"/>
			<path fill="#CCCCCC" d="M23.829,19.309c0,0,0.149,0.645,0.387,1.774c0.235,1.128,0.555,2.739,0.882,4.67
				c0.622,3.857,1.23,8.997,1.474,14.133c0.187,5.133,0.012,10.27-0.284,14.125c-0.164,1.929-0.346,3.537-0.484,4.664
				c-0.141,1.127-0.235,1.771-0.235,1.771s0.072-0.641,0.176-1.764c0.107-1.123,0.246-2.728,0.358-4.656
				c0.256-3.858,0.379-9.005,0.131-14.156c-0.191-5.149-0.751-10.293-1.333-14.148c-0.275-1.925-0.547-3.528-0.748-4.65
				C23.954,19.949,23.829,19.309,23.829,19.309z"/>
			<path fill="#CCCCCC" d="M26.428,19.794c0,0,0.131,0.64,0.341,1.76c0.206,1.12,0.486,2.718,0.774,4.636
				c0.541,3.83,1.067,8.934,1.273,14.034c0.149,5.098-0.018,10.2-0.289,14.028c-0.151,1.915-0.317,3.512-0.443,4.631
				c-0.129,1.119-0.214,1.758-0.214,1.758s0.063-0.637,0.155-1.752c0.095-1.116,0.217-2.71,0.317-4.624
				c0.231-3.831,0.347-8.941,0.136-14.055c-0.154-5.112-0.631-10.22-1.133-14.049c-0.234-1.912-0.467-3.505-0.64-4.619
				C26.535,20.43,26.428,19.794,26.428,19.794z"/>
			<path fill="#CCCCCC" d="M32.218,25.835c0,0,0.075,0.628,0.193,1.726c0.114,1.098,0.268,2.667,0.419,4.548
				c0.27,3.76,0.496,8.772,0.505,13.782c-0.047,5.01-0.312,10.022-0.611,13.782c-0.166,1.881-0.332,3.45-0.455,4.548
				c-0.126,1.099-0.207,1.727-0.207,1.727s0.057-0.626,0.144-1.721c0.091-1.095,0.212-2.661,0.325-4.54
				c0.26-3.761,0.475-8.777,0.467-13.795c0.048-5.019-0.128-10.035-0.358-13.796c-0.099-1.879-0.208-3.445-0.29-4.54
				C32.271,26.461,32.218,25.835,32.218,25.835z"/>
			<path fill="#CCCCCC" d="M34.879,29.067c0,0,0.205,2.389,0.404,5.968c0.187,3.579,0.297,8.347,0.254,13.115
				c-0.067,4.768-0.287,9.537-0.561,13.117c-0.285,3.581-0.55,5.971-0.55,5.971s0.177-2.382,0.346-5.958
				c0.181-3.577,0.381-8.351,0.427-13.126c0.07-4.775-0.014-9.55-0.111-13.128C35.003,31.45,34.879,29.067,34.879,29.067z"/>
			<path fill="#CCCCCC" d="M37.342,31.155c0,0,0.136,2.326,0.269,5.812c0.121,3.486,0.177,8.132,0.134,12.777
				c-0.067,4.646-0.234,9.292-0.443,12.779c-0.221,3.488-0.42,5.814-0.42,5.814s0.109-2.321,0.213-5.805
				c0.116-3.484,0.263-8.134,0.311-12.784c0.071-4.65,0.043-9.3,0.012-12.786C37.398,33.477,37.342,31.155,37.342,31.155z"/>
			<path fill="#CCCCCC" d="M39.586,32.023c0,0,0.089,2.314,0.182,5.784c0.082,3.47,0.114,8.095,0.092,12.72
				c-0.045,4.625-0.145,9.251-0.283,12.721c-0.15,3.471-0.281,5.786-0.281,5.786s0.04-2.312,0.072-5.78
				c0.044-3.469,0.124-8.096,0.152-12.724c0.051-4.628,0.048-9.255,0.056-12.725C39.595,34.336,39.586,32.023,39.586,32.023z"/>
			<path fill="#CCCCCC" d="M41.802,32.621c0,0,0.053,2.331,0.124,5.826c0.06,3.496,0.09,8.156,0.114,12.817
				c0.001,4.661-0.004,9.322-0.05,12.818c-0.057,3.496-0.103,5.827-0.103,5.827s-0.046-2.33-0.107-5.825
				c-0.049-3.495-0.063-8.156-0.081-12.817c0.005-4.661,0.005-9.322,0.035-12.818C41.776,34.951,41.802,32.621,41.802,32.621z"/>
			<path fill="#CCCCCC" d="M67.892,17.029c0,0-0.378,1.462-0.849,3.662c-0.484,2.203-1.093,5.156-1.559,8.112
				c-0.49,2.96-0.836,5.92-1.062,8.14c-0.237,2.222-0.327,3.699-0.327,3.699s0.014-1.475,0.134-3.68
				c0.131-2.207,0.439-5.15,0.898-8.093c0.483-2.948,1.119-5.897,1.702-8.122C67.424,18.519,67.892,17.029,67.892,17.029z"/>
			<path fill="#CCCCCC" d="M65.181,18.121c0,0-0.469,1.941-1.014,4.86c-0.557,2.922-1.205,6.832-1.611,10.744
				c-0.43,3.915-0.618,7.83-0.681,10.763c-0.075,2.933-0.013,4.883-0.013,4.883s-0.137-1.956-0.177-4.882
				c-0.029-2.926,0.124-6.824,0.524-10.722c0.423-3.901,1.094-7.802,1.747-10.74C64.621,20.086,65.181,18.121,65.181,18.121z"/>
			<path fill="#CCCCCC" d="M62.521,18.993c0,0-0.489,2.227-1.028,5.576c-0.55,3.351-1.158,7.832-1.469,12.315
				c-0.334,4.485-0.371,8.969-0.297,12.327c0.062,3.358,0.238,5.591,0.238,5.591s-0.254-2.243-0.429-5.599
				c-0.164-3.356-0.159-7.824,0.146-12.291c0.328-4.469,0.957-8.94,1.602-12.304C61.942,21.242,62.521,18.993,62.521,18.993z"/>
			<path fill="#CCCCCC" d="M59.877,19.781c0,0-0.119,0.638-0.308,1.755c-0.192,1.117-0.451,2.714-0.712,4.632
				c-0.554,3.841-1.082,8.964-1.252,14.092c-0.227,5.13-0.094,10.256,0.166,14.099c0.114,1.92,0.253,3.519,0.36,4.637
				c0.104,1.118,0.175,1.757,0.175,1.757s-0.093-0.642-0.235-1.764c-0.138-1.122-0.32-2.724-0.486-4.645
				c-0.3-3.84-0.485-8.957-0.319-14.069c0.223-5.115,0.799-10.235,1.393-14.076c0.314-1.923,0.62-3.527,0.846-4.651
				C59.733,20.423,59.877,19.781,59.877,19.781z"/>
			<path fill="#CCCCCC" d="M57.289,20.244c0,0-0.101,0.634-0.261,1.744c-0.163,1.111-0.384,2.698-0.605,4.603
				c-0.475,3.816-0.923,8.906-1.057,14c-0.192,5.096-0.068,10.188,0.165,14.005c0.101,1.908,0.222,3.496,0.316,4.608
				C55.938,60.316,56,60.95,56,60.95s-0.084-0.637-0.213-1.752c-0.125-1.114-0.291-2.706-0.443-4.615
				c-0.272-3.815-0.448-8.9-0.318-13.98c0.187-5.083,0.684-10.169,1.198-13.986c0.274-1.91,0.541-3.504,0.738-4.619
				C57.163,20.882,57.289,20.244,57.289,20.244z"/>
			<path fill="#CCCCCC" d="M54.684,20.753c0,0-0.383,2.721-0.757,6.807c-0.41,4.091-0.776,9.547-0.832,15.007
				c-0.113,5.461,0.085,10.918,0.37,15.009c0.25,4.089,0.552,6.81,0.552,6.81s-0.383-2.732-0.741-6.825
				c-0.324-4.09-0.571-9.541-0.518-14.989c0.11-5.449,0.524-10.901,0.973-14.992C54.215,23.487,54.684,20.753,54.684,20.753z"/>
			<path fill="#CCCCCC" d="M51.559,26.233c0,0-0.048,0.624-0.121,1.717c-0.076,1.093-0.175,2.655-0.265,4.53
				c-0.212,3.752-0.369,8.756-0.313,13.763c0,5.006,0.212,10.01,0.464,13.762c0.11,1.875,0.226,3.436,0.314,4.529
				c0.084,1.093,0.138,1.717,0.138,1.717s-0.078-0.626-0.201-1.722c-0.12-1.096-0.282-2.66-0.444-4.537
				c-0.292-3.751-0.553-8.752-0.608-13.75c0.002-4.998,0.209-9.998,0.46-13.749c0.141-1.877,0.286-3.441,0.394-4.537
				C51.488,26.859,51.559,26.233,51.559,26.233z"/>
			<path fill="#CCCCCC" d="M48.924,29.444c0,0-0.11,2.379-0.181,5.95c-0.083,3.572-0.154,8.337-0.082,13.104
				c0.049,4.766,0.242,9.531,0.412,13.102c0.158,3.57,0.324,5.947,0.324,5.947s-0.254-2.385-0.529-5.96
				c-0.263-3.574-0.476-8.334-0.545-13.094c-0.046-4.76,0.052-9.519,0.225-13.092C48.732,31.828,48.924,29.444,48.924,29.444z"/>
			<path fill="#CCCCCC" d="M46.478,31.517c0,0-0.045,2.319-0.054,5.801c-0.021,3.482-0.041,8.126,0.029,12.77
				c0.047,4.644,0.183,9.288,0.285,12.768c0.091,3.48,0.187,5.798,0.187,5.798s-0.186-2.324-0.394-5.807
				c-0.197-3.483-0.352-8.123-0.417-12.764c-0.042-4.64,0.006-9.28,0.118-12.762C46.353,33.84,46.478,31.517,46.478,31.517z"/>
			<path fill="#CCCCCC" d="M44.127,32.378c0,0,0.003,2.311,0.032,5.778c0.018,3.467,0.021,8.091,0.065,12.715
				c0.021,4.624,0.083,9.247,0.107,12.714c0.013,3.466,0.034,5.777,0.034,5.777s-0.112-2.313-0.243-5.781
				c-0.119-3.468-0.2-8.09-0.238-12.712c-0.015-4.622,0.011-9.244,0.083-12.711C44.05,34.69,44.127,32.378,44.127,32.378z"/>
			<path fill="none" d="M23.402,64.933"/>
			<path fill="none" d="M25.465,66.464"/>
			<path fill="#FFFFFF" d="M63.956,63.768"/>
			<path fill="#FFFFFF" d="M62.685,54.03"/>
			<path fill="none" d="M60.839,64.923"/>
			<path fill="none" d="M58.776,66.454"/>
		</g>
		<g opacity="0.1">
			<path fill="#CCCCCC" d="M29.139,20.772c0,0,0.448,2.542,0.926,6.348c0.443,3.803,0.867,8.871,1.021,13.936
				c0.098,5.064-0.072,10.13-0.323,13.932c-0.285,3.804-0.602,6.343-0.602,6.343s0.241-2.53,0.42-6.332
				c0.213-3.803,0.333-8.876,0.176-13.953c-0.102-5.075-0.479-10.146-0.884-13.949C29.504,23.3,29.139,20.772,29.139,20.772z"/>
		</g>
	</g>
</g>
<line fill="none" stroke="#231F20" stroke-width="0.7824" stroke-linecap="round" stroke-linejoin="round" stroke-miterlimit="10" x1="15.067" y1="64.303" x2="19.174" y2="66.549"/>
<polyline opacity="0.6" enable-background="new    " points="23.328,64.651 27.952,67.194 27.335,64.419 "/>
<polyline opacity="0.6" enable-background="new    " points="60.933,64.535 56.31,67.078 56.926,64.304 "/>
<g>
	<path fill="none" d="M30.649,63.957"/>
</g>
<g>
	<path fill="none" d="M30.649,24.541"/>
</g>
<g opacity="0.5">
	<g>
		<g opacity="0.1">
			<path fill="#CCCCCC" d="M70.397,17.022c0,0-3.545,1.218-8.848,2.396c-5.295,1.142-12.351,2.101-19.398,2.129
				c-7.047-0.028-14.103-0.987-19.398-2.129c-5.303-1.178-8.849-2.397-8.849-2.397s3.516,1.13,8.805,2.198
				c5.297,1.104,12.365,2.017,19.441,1.989c7.076,0.028,14.144-0.884,19.441-1.989C66.88,18.152,70.397,17.022,70.397,17.022z"/>
			<path fill="#CCCCCC" d="M69.648,19.737c0,0-3.45,1.105-8.612,2.174c-5.155,1.033-12.024,1.902-18.885,1.93
				c-6.861-0.028-13.73-0.897-18.885-1.93c-5.162-1.07-8.612-2.175-8.612-2.175s3.424,1.017,8.574,1.976
				c5.157,0.996,12.037,1.818,18.924,1.79c6.888,0.028,13.768-0.794,18.924-1.79C66.224,20.754,69.648,19.737,69.648,19.737z"/>
			<path fill="#CCCCCC" d="M68.729,22.517c0,0-3.342,0.976-8.342,1.922c-4.994,0.91-11.649,1.673-18.298,1.698
				c-6.648-0.032-13.304-0.804-18.298-1.719c-5.001-0.952-8.342-1.932-8.342-1.932s3.318,0.892,8.308,1.734
				c4.996,0.878,11.661,1.604,18.332,1.579c6.672,0.032,13.337-0.685,18.332-1.557C65.41,23.405,68.729,22.517,68.729,22.517z"/>
			<path fill="#CCCCCC" d="M67.897,25.281c0,0-3.251,0.853-8.117,1.68c-4.861,0.79-11.338,1.453-17.81,1.471
				c-6.472-0.039-12.949-0.722-17.81-1.528c-4.866-0.843-8.117-1.707-8.117-1.707s3.231,0.776,8.087,1.508
				c4.862,0.768,11.348,1.405,17.84,1.388c6.492,0.039,12.978-0.577,17.84-1.329C64.666,26.047,67.897,25.281,67.897,25.281z"/>
			<path fill="#CCCCCC" d="M67.15,28.029c0,0-3.148,0.728-7.862,1.437c-4.709,0.672-10.985,1.238-17.255,1.26
				c-6.271-0.034-12.546-0.612-17.255-1.293c-4.714-0.718-7.862-1.452-7.862-1.452s3.131,0.647,7.836,1.254
				c4.71,0.643,10.993,1.174,17.281,1.152c6.288,0.034,12.571-0.484,17.281-1.119C64.019,28.67,67.15,28.029,67.15,28.029z"/>
			<path fill="#CCCCCC" d="M66.369,30.781c0,0-3.056,0.605-7.633,1.196c-4.573,0.555-10.668,1.022-16.759,1.043
				c-6.091-0.036-12.186-0.518-16.76-1.083c-4.577-0.602-7.634-1.215-7.634-1.215s3.042,0.526,7.612,1.018
				c4.574,0.528,10.675,0.963,16.781,0.942c6.106,0.036,12.207-0.384,16.781-0.901C63.328,31.3,66.369,30.781,66.369,30.781z"/>
			<path fill="#CCCCCC" d="M65.673,33.511c0,0-2.953,0.485-7.377,0.962c-4.421,0.441-10.314,0.816-16.203,0.842
				c-5.889-0.03-11.782-0.409-16.203-0.853c-4.424-0.48-7.377-0.967-7.377-0.967s2.942,0.4,7.36,0.77
				c4.422,0.406,10.319,0.737,16.22,0.711c5.901,0.03,11.798-0.297,16.22-0.7C62.732,33.909,65.673,33.511,65.673,33.511z"/>
			<path fill="#CCCCCC" d="M65.058,36.217c0,0-2.882,0.374-7.2,0.745c-4.316,0.335-10.069,0.621-15.82,0.647
				c-5.751-0.031-11.504-0.323-15.82-0.663c-4.319-0.376-7.201-0.753-7.201-0.753s2.873,0.291,7.187,0.556
				c4.317,0.302,10.074,0.546,15.833,0.521c5.76,0.032,11.517-0.207,15.833-0.504C62.185,36.506,65.058,36.217,65.058,36.217z"/>
			<path fill="#CCCCCC" d="M64.297,38.919c0,0-2.785,0.264-6.96,0.53c-4.173,0.23-9.737,0.429-15.299,0.456
				c-5.562-0.03-11.125-0.233-15.299-0.467c-4.175-0.269-6.96-0.535-6.96-0.535s2.779,0.18,6.951,0.339
				c4.174,0.195,9.74,0.35,15.307,0.324c5.568,0.031,11.134-0.121,15.307-0.312C61.518,39.097,64.297,38.919,64.297,38.919z"/>
			<path fill="#CCCCCC" d="M63.725,41.579c0,0-2.712,0.164-6.779,0.336c-4.066,0.136-9.487,0.256-14.906,0.284
				c-5.42-0.029-10.84-0.152-14.906-0.29c-4.067-0.173-6.779-0.339-6.779-0.339s2.709,0.081,6.774,0.143
				c4.066,0.099,9.488,0.174,14.911,0.147c5.423,0.03,10.845-0.043,14.911-0.14C61.016,41.659,63.725,41.579,63.725,41.579z"/>
			<path fill="#CCCCCC" d="M63.334,44.211c0,0-2.635,0.073-6.586,0.157c-3.951,0.049-9.219,0.097-14.487,0.126
				c-5.268-0.028-10.536-0.076-14.487-0.124c-3.951-0.084-6.586-0.156-6.586-0.156s2.634-0.012,6.585-0.039
				c3.951,0.009,9.22,0.009,14.489-0.02c5.269,0.028,10.537,0.028,14.489,0.018C60.701,44.199,63.334,44.211,63.334,44.211z"/>
			<path fill="#CCCCCC" d="M62.675,46.555c0,0-2.564,0.013-6.412,0.047c-3.848-0.002-8.979,0.013-14.112,0.07
				c-5.132,0-10.265,0.045-14.114,0.097c-3.849,0.017-6.415,0.045-6.415,0.045s2.567-0.112,6.416-0.239
				c3.849-0.092,8.981-0.185,14.111-0.242c5.131,0,10.262,0.034,14.11,0.075C60.108,46.485,62.675,46.555,62.675,46.555z"/>
			<path fill="#CCCCCC" d="M49.377,67.315c0,0-0.939-0.028-2.352-0.054c-1.414-0.026-3.303-0.069-5.193-0.05
				c-1.89-0.005-3.779,0.05-5.192,0.086c-1.413,0.036-2.352,0.07-2.352,0.07s0.948-0.134,2.364-0.262
				c1.416-0.128,3.299-0.214,5.181-0.232c1.882,0.006,3.765,0.079,5.181,0.198C48.43,67.187,49.377,67.315,49.377,67.315z"/>
			<path fill="#CCCCCC" d="M53.03,65.332c0,0-1.378-0.122-3.451-0.217c-2.073-0.106-4.844-0.217-7.615-0.2
				c-2.771-0.006-5.542,0.114-7.615,0.228c-2.072,0.103-3.45,0.229-3.45,0.229s1.388-0.206,3.466-0.423
				c2.077-0.207,4.839-0.357,7.6-0.373c2.761,0.007,5.524,0.147,7.6,0.346C51.642,65.131,53.03,65.332,53.03,65.332z"/>
			<path fill="#CCCCCC" d="M63.104,56.916c0,0-2.435-0.294-6.092-0.57c-3.658-0.288-8.543-0.572-13.429-0.603
				c-4.886-0.055-9.771,0.142-13.43,0.366c-3.658,0.213-6.094,0.464-6.094,0.464s2.445-0.337,6.108-0.664
				c3.662-0.316,8.538-0.536,13.413-0.506c4.876,0.054,9.752,0.36,13.415,0.74C60.658,56.536,63.104,56.916,63.104,56.916z"/>
			<path fill="#CCCCCC" d="M59.905,54.047c0,0-2.244-0.17-5.614-0.314c-3.37-0.155-7.869-0.309-12.368-0.292
				c-4.499-0.006-8.997,0.158-12.368,0.32c-3.37,0.151-5.613,0.325-5.613,0.325s2.251-0.259,5.625-0.525
				c3.373-0.255,7.865-0.442,12.356-0.459c4.492,0.007,8.984,0.185,12.356,0.432C57.654,53.794,59.905,54.047,59.905,54.047z"/>
			<path fill="#CCCCCC" d="M61.082,51.623c0,0-2.378-0.132-5.947-0.242c-3.57-0.121-8.333-0.248-13.097-0.234
				c-4.764-0.01-9.527,0.121-13.097,0.245c-3.569,0.112-5.947,0.246-5.947,0.246s2.383-0.22,5.956-0.447
				c3.572-0.216,8.33-0.369,13.089-0.383c4.758,0.01,9.517,0.16,13.089,0.373C58.699,51.405,61.082,51.623,61.082,51.623z"/>
			<path fill="#CCCCCC" d="M61.963,49.118c0,0-2.482-0.076-6.206-0.133c-3.725-0.093-8.693-0.161-13.662-0.132
				c-4.969-0.028-9.937,0.042-13.662,0.136c-3.724,0.058-6.206,0.135-6.206,0.135s2.485-0.16,6.212-0.328
				c3.725-0.133,8.692-0.252,13.657-0.281c4.965,0.028,9.932,0.146,13.657,0.278C59.478,48.959,61.963,49.118,61.963,49.118z"/>
			<path fill="#CCCCCC" d="M15.773,16.481c0,0,0.468,1.448,1.067,3.613c0.587,2.162,1.232,5.028,1.731,7.893
				c0.475,2.86,0.806,5.719,0.957,7.862c0.14,2.142,0.171,3.574,0.171,3.574s-0.107-1.436-0.365-3.596
				c-0.247-2.159-0.616-5.035-1.123-7.911c-0.482-2.871-1.101-5.741-1.588-7.88C16.149,17.901,15.773,16.481,15.773,16.481z"/>
			<path fill="#CCCCCC" d="M18.499,17.6c0,0,0.569,1.943,1.251,4.85c0.67,2.904,1.364,6.761,1.813,10.616
				c0.425,3.852,0.607,7.704,0.6,10.596c-0.017,2.892-0.138,4.825-0.138,4.825s0.046-1.928-0.052-4.828
				c-0.086-2.9-0.303-6.769-0.759-10.639c-0.432-3.867-1.104-7.732-1.677-10.619C18.978,19.517,18.499,17.6,18.499,17.6z"/>
			<path fill="#CCCCCC" d="M21.172,18.497c0,0,0.597,2.244,1.277,5.601c0.669,3.355,1.326,7.814,1.68,12.272
				c0.33,4.456,0.358,8.912,0.208,12.259c-0.16,3.347-0.405,5.584-0.405,5.584s0.168-2.228,0.214-5.577
				c0.058-3.35-0.001-7.823-0.361-12.296c-0.336-4.471-0.973-8.941-1.547-12.283C21.678,20.718,21.172,18.497,21.172,18.497z"/>
			<path fill="#CCCCCC" d="M23.829,19.309c0,0,0.149,0.645,0.387,1.774c0.235,1.128,0.555,2.739,0.882,4.67
				c0.622,3.857,1.23,8.997,1.474,14.133c0.187,5.133,0.012,10.27-0.284,14.125c-0.164,1.929-0.346,3.537-0.484,4.664
				c-0.141,1.127-0.235,1.771-0.235,1.771s0.072-0.641,0.176-1.764c0.107-1.123,0.246-2.728,0.358-4.656
				c0.256-3.858,0.379-9.005,0.131-14.156c-0.191-5.149-0.751-10.293-1.333-14.148c-0.275-1.925-0.547-3.528-0.748-4.65
				C23.954,19.949,23.829,19.309,23.829,19.309z"/>
			<path fill="#CCCCCC" d="M26.428,19.794c0,0,0.131,0.64,0.341,1.76c0.206,1.12,0.486,2.718,0.774,4.636
				c0.541,3.83,1.067,8.934,1.273,14.034c0.149,5.098-0.018,10.2-0.289,14.028c-0.151,1.915-0.317,3.512-0.443,4.631
				c-0.129,1.119-0.214,1.758-0.214,1.758s0.063-0.637,0.155-1.752c0.095-1.116,0.217-2.71,0.317-4.624
				c0.231-3.831,0.347-8.941,0.136-14.055c-0.154-5.112-0.631-10.22-1.133-14.049c-0.234-1.912-0.467-3.505-0.64-4.619
				C26.535,20.43,26.428,19.794,26.428,19.794z"/>
			<path fill="#CCCCCC" d="M32.218,25.835c0,0,0.075,0.628,0.193,1.726c0.114,1.098,0.268,2.667,0.419,4.548
				c0.27,3.76,0.496,8.772,0.505,13.782c-0.047,5.01-0.312,10.022-0.611,13.782c-0.166,1.881-0.332,3.45-0.455,4.548
				c-0.126,1.099-0.207,1.727-0.207,1.727s0.057-0.626,0.144-1.721c0.091-1.095,0.212-2.661,0.325-4.54
				c0.26-3.761,0.475-8.777,0.467-13.795c0.048-5.019-0.128-10.035-0.358-13.796c-0.099-1.879-0.208-3.445-0.29-4.54
				C32.271,26.461,32.218,25.835,32.218,25.835z"/>
			<path fill="#CCCCCC" d="M34.879,29.067c0,0,0.205,2.389,0.404,5.968c0.187,3.579,0.297,8.347,0.254,13.115
				c-0.067,4.768-0.287,9.537-0.561,13.117c-0.285,3.581-0.55,5.971-0.55,5.971s0.177-2.382,0.346-5.958
				c0.181-3.577,0.381-8.351,0.427-13.126c0.07-4.775-0.014-9.55-0.111-13.128C35.003,31.45,34.879,29.067,34.879,29.067z"/>
			<path fill="#CCCCCC" d="M37.342,31.155c0,0,0.136,2.326,0.269,5.812c0.121,3.486,0.177,8.132,0.134,12.777
				c-0.067,4.646-0.234,9.292-0.443,12.779c-0.221,3.488-0.42,5.814-0.42,5.814s0.109-2.321,0.213-5.805
				c0.116-3.484,0.263-8.134,0.311-12.784c0.071-4.65,0.043-9.3,0.012-12.786C37.398,33.477,37.342,31.155,37.342,31.155z"/>
			<path fill="#CCCCCC" d="M39.586,32.023c0,0,0.089,2.314,0.182,5.784c0.082,3.47,0.114,8.095,0.092,12.72
				c-0.045,4.625-0.145,9.251-0.283,12.721c-0.15,3.471-0.281,5.786-0.281,5.786s0.04-2.312,0.072-5.78
				c0.044-3.469,0.124-8.096,0.152-12.724c0.051-4.628,0.048-9.255,0.056-12.725C39.595,34.336,39.586,32.023,39.586,32.023z"/>
			<path fill="#CCCCCC" d="M41.802,32.621c0,0,0.053,2.331,0.124,5.826c0.06,3.496,0.09,8.156,0.114,12.817
				c0.001,4.661-0.004,9.322-0.05,12.818c-0.057,3.496-0.103,5.827-0.103,5.827s-0.046-2.33-0.107-5.825
				c-0.049-3.495-0.063-8.156-0.081-12.817c0.005-4.661,0.005-9.322,0.035-12.818C41.776,34.951,41.802,32.621,41.802,32.621z"/>
			<path fill="#CCCCCC" d="M67.892,17.029c0,0-0.378,1.462-0.849,3.662c-0.484,2.203-1.093,5.156-1.559,8.112
				c-0.49,2.96-0.836,5.92-1.062,8.14c-0.237,2.222-0.327,3.699-0.327,3.699s0.014-1.475,0.134-3.68
				c0.131-2.207,0.439-5.15,0.898-8.093c0.483-2.948,1.119-5.897,1.702-8.122C67.424,18.519,67.892,17.029,67.892,17.029z"/>
			<path fill="#CCCCCC" d="M65.181,18.121c0,0-0.469,1.941-1.014,4.86c-0.557,2.922-1.205,6.832-1.611,10.744
				c-0.43,3.915-0.618,7.83-0.681,10.763c-0.075,2.933-0.013,4.883-0.013,4.883s-0.138-1.956-0.177-4.882
				c-0.029-2.926,0.124-6.824,0.524-10.722c0.423-3.901,1.094-7.802,1.747-10.74C64.621,20.086,65.181,18.121,65.181,18.121z"/>
			<path fill="#CCCCCC" d="M62.521,18.993c0,0-0.489,2.227-1.028,5.576c-0.55,3.351-1.158,7.832-1.469,12.315
				c-0.334,4.485-0.371,8.969-0.297,12.327c0.062,3.358,0.238,5.591,0.238,5.591s-0.254-2.243-0.429-5.599
				c-0.164-3.356-0.159-7.824,0.146-12.291c0.328-4.469,0.957-8.94,1.602-12.304C61.942,21.242,62.521,18.993,62.521,18.993z"/>
			<path fill="#CCCCCC" d="M59.877,19.781c0,0-0.119,0.638-0.308,1.755c-0.192,1.117-0.451,2.714-0.712,4.632
				c-0.554,3.841-1.082,8.964-1.252,14.092c-0.227,5.13-0.094,10.256,0.166,14.099c0.114,1.92,0.253,3.519,0.36,4.637
				c0.104,1.118,0.175,1.757,0.175,1.757s-0.093-0.642-0.235-1.764c-0.138-1.122-0.32-2.724-0.486-4.645
				c-0.3-3.84-0.485-8.957-0.319-14.069c0.223-5.115,0.799-10.235,1.393-14.076c0.314-1.923,0.62-3.527,0.846-4.651
				C59.733,20.423,59.877,19.781,59.877,19.781z"/>
			<path fill="#CCCCCC" d="M57.289,20.244c0,0-0.101,0.634-0.261,1.744c-0.163,1.111-0.384,2.698-0.605,4.603
				c-0.475,3.816-0.923,8.906-1.057,14c-0.192,5.096-0.068,10.188,0.165,14.005c0.101,1.908,0.222,3.496,0.316,4.608
				C55.938,60.316,56,60.95,56,60.95s-0.084-0.637-0.213-1.752c-0.125-1.114-0.291-2.706-0.443-4.615
				c-0.272-3.815-0.448-8.9-0.318-13.98c0.187-5.083,0.684-10.169,1.198-13.986c0.274-1.91,0.541-3.504,0.738-4.619
				C57.163,20.882,57.289,20.244,57.289,20.244z"/>
			<path fill="#CCCCCC" d="M54.684,20.753c0,0-0.383,2.721-0.757,6.807c-0.41,4.091-0.776,9.547-0.832,15.007
				c-0.113,5.461,0.085,10.918,0.37,15.009c0.25,4.089,0.552,6.81,0.552,6.81s-0.383-2.732-0.741-6.825
				c-0.324-4.09-0.571-9.541-0.518-14.989c0.11-5.449,0.524-10.901,0.973-14.992C54.215,23.487,54.684,20.753,54.684,20.753z"/>
			<path fill="#CCCCCC" d="M51.559,26.233c0,0-0.048,0.624-0.121,1.717c-0.076,1.093-0.175,2.655-0.265,4.53
				c-0.212,3.752-0.369,8.756-0.313,13.763c0,5.006,0.212,10.01,0.464,13.762c0.11,1.875,0.226,3.436,0.314,4.529
				c0.084,1.093,0.138,1.717,0.138,1.717s-0.078-0.626-0.201-1.722c-0.12-1.096-0.282-2.66-0.444-4.537
				c-0.292-3.751-0.553-8.752-0.608-13.75c0.002-4.998,0.209-9.998,0.46-13.749c0.141-1.877,0.286-3.441,0.394-4.537
				C51.488,26.859,51.559,26.233,51.559,26.233z"/>
			<path fill="#CCCCCC" d="M48.924,29.444c0,0-0.11,2.379-0.181,5.95c-0.083,3.572-0.154,8.337-0.082,13.104
				c0.049,4.766,0.242,9.531,0.412,13.102c0.158,3.57,0.324,5.947,0.324,5.947s-0.254-2.385-0.529-5.96
				c-0.263-3.574-0.476-8.334-0.545-13.094c-0.046-4.76,0.052-9.519,0.225-13.092C48.732,31.828,48.924,29.444,48.924,29.444z"/>
			<path fill="#CCCCCC" d="M46.478,31.517c0,0-0.045,2.319-0.054,5.801c-0.021,3.482-0.041,8.126,0.029,12.77
				c0.047,4.644,0.183,9.288,0.285,12.768c0.091,3.48,0.187,5.798,0.187,5.798s-0.186-2.324-0.394-5.807
				c-0.197-3.483-0.352-8.123-0.417-12.764c-0.042-4.64,0.006-9.28,0.118-12.762C46.353,33.84,46.478,31.517,46.478,31.517z"/>
			<path fill="#CCCCCC" d="M44.127,32.378c0,0,0.003,2.311,0.032,5.778c0.018,3.467,0.021,8.091,0.065,12.715
				c0.021,4.624,0.083,9.247,0.107,12.714c0.013,3.466,0.034,5.777,0.034,5.777s-0.112-2.313-0.243-5.781
				c-0.119-3.468-0.2-8.09-0.238-12.712c-0.015-4.622,0.011-9.244,0.083-12.711C44.05,34.69,44.127,32.378,44.127,32.378z"/>
			<path fill="none" d="M23.402,64.933"/>
			<path fill="none" d="M25.465,66.464"/>
			<path fill="#FFFFFF" d="M63.956,63.768"/>
			<path fill="#FFFFFF" d="M62.685,54.03"/>
			<path fill="none" d="M60.839,64.923"/>
			<path fill="none" d="M58.776,66.454"/>
		</g>
		<g opacity="0.1">
			<path fill="#CCCCCC" d="M29.139,20.772c0,0,0.448,2.542,0.926,6.348c0.443,3.803,0.867,8.871,1.021,13.936
				c0.098,5.064-0.072,10.13-0.323,13.932c-0.285,3.804-0.602,6.343-0.602,6.343s0.241-2.53,0.42-6.332
				c0.213-3.803,0.333-8.876,0.176-13.953c-0.102-5.075-0.479-10.146-0.884-13.949C29.504,23.3,29.139,20.772,29.139,20.772z"/>
		</g>
	</g>
</g>
<g>
	<path fill="#231F20" d="M43.475,16.536c10.597,0,19.602,1.16,24.498,3.129c-0.135,7.068-1.982,45.762-25.966,51.55
		C18.1,65.513,16.138,27.106,15.983,19.768C22.163,17.764,32.511,16.536,43.475,16.536 M43.475,14.801
		c-11.178,0-22.734,1.308-29.24,3.738c0,0-0.636,48.082,27.711,54.445v0.028c28.408-6.31,27.772-54.472,27.772-54.472
		C64.469,15.993,54.144,14.801,43.475,14.801L43.475,14.801z"/>
</g>
<g>
	
		<circle fill="#ADADAD" stroke="#231F20" stroke-width="1.0543" stroke-linecap="square" stroke-linejoin="round" stroke-miterlimit="10" cx="42.071" cy="21.144" r="11.283"/>
	<path fill="#8C8C8C" d="M32.961,14.716c0,0-4.97,8.207,1.156,14.102c0.971,0.935,1.156-5.317,1.156-5.317L32.961,14.716z"/>
	<g>
		<path d="M34.145,29.136c0,0,0.159-0.238,0.35-0.675c0.192-0.432,0.393-1.055,0.491-1.778c0.029-0.18,0.046-0.367,0.042-0.565
			c0.013-0.192,0.023-0.389,0.008-0.596c0.003-0.202-0.017-0.411-0.053-0.626c-0.028-0.211-0.038-0.427-0.091-0.649
			c-0.053-0.441-0.227-0.888-0.332-1.351c-0.139-0.462-0.299-0.928-0.507-1.388c-0.19-0.522-0.379-1.044-0.566-1.557
			c-0.196-0.503-0.334-1.017-0.456-1.597c-0.123-0.559-0.247-1.082-0.25-1.625c-0.037-0.528-0.053-1.019,0.054-1.513
			c0.051-0.241,0.044-0.458,0.143-0.678c0.09-0.209,0.175-0.408,0.254-0.594c0.205-0.345,0.424-0.63,0.636-0.789
			c0.41-0.35,0.657-0.458,0.656-0.476l0.118,0.084c0,0-0.184,0.219-0.446,0.611c-0.148,0.187-0.251,0.458-0.366,0.76
			c-0.069,0.321-0.16,0.679-0.124,1.09c-0.027,0.407,0.068,0.843,0.151,1.305c0.054,0.467,0.245,0.932,0.382,1.424
			c0.131,0.494,0.338,0.988,0.544,1.491c0.203,0.504,0.409,1.016,0.614,1.527c0.215,0.515,0.374,1.05,0.513,1.583
			c0.119,0.536,0.23,1.069,0.253,1.594c0.03,0.261,0.033,0.519,0.019,0.772c0.001,0.253-0.016,0.5-0.057,0.738
			c-0.025,0.24-0.066,0.471-0.128,0.69c-0.046,0.223-0.112,0.431-0.188,0.628c-0.285,0.794-0.694,1.379-1.017,1.746
			c-0.323,0.367-0.563,0.531-0.563,0.531L34.145,29.136z"/>
	</g>
	<path fill="#8C8C8C" d="M52.958,22.807c0-4.756-0.347-8.322-1.387-7.167c-1.73,1.922-9.941,6.687-9.941,11.443
		s1.082,3.617,3.352,4.855C46.254,32.632,52.958,27.563,52.958,22.807z"/>
	<g>
		<path d="M44.931,32.131c0,0-0.371-0.079-0.967-0.352c-0.588-0.281-1.432-0.742-2.24-1.646c-0.403-0.45-0.811-1.016-1.074-1.742
			c-0.278-0.713-0.419-1.604-0.263-2.486c0.145-0.878,0.479-1.744,0.983-2.438c0.495-0.699,1.069-1.311,1.675-1.823
			c0.658-0.509,1.206-0.862,1.772-1.257c0.564-0.406,1.075-0.706,1.591-1.069c0.501-0.367,1.011-0.689,1.471-1.022
			c0.449-0.34,0.893-0.647,1.279-0.95c0.766-0.61,1.388-1.154,1.74-1.602c0.373-0.439,0.476-0.779,0.464-0.764l0.18-0.04
			c0.002,0.005,0.019,0.107,0.006,0.278c-0.021,0.17-0.064,0.417-0.18,0.707c-0.212,0.589-0.688,1.342-1.365,2.145
			c-0.68,0.801-1.555,1.661-2.561,2.498c-0.504,0.415-1.031,0.848-1.581,1.252c-0.547,0.409-1.117,0.815-1.642,1.246
			c-1.056,0.849-1.974,1.943-2.249,3.18c-0.299,1.239,0.146,2.438,0.688,3.287c0.55,0.866,1.182,1.467,1.631,1.862
			c0.455,0.395,0.742,0.581,0.742,0.581L44.931,32.131z"/>
	</g>
	
		<circle fill="none" stroke="#231F20" stroke-width="1.0543" stroke-linecap="square" stroke-linejoin="round" stroke-miterlimit="10" cx="42.071" cy="21.144" r="11.283"/>
</g>
<polygon fill="#ADADAD" stroke="#231F20" stroke-width="0.7824" stroke-linecap="square" stroke-linejoin="round" stroke-miterlimit="10" points="
	17.434,71.095 27.986,67.417 25.619,60.625 15.067,64.303 19.174,66.549 "/>
<polygon fill="#ADADAD" points="19.437,56.328 22.558,64.535 61.28,64.419 64.401,56.097 "/>
<polyline fill="none" stroke="#231F20" stroke-width="0.8358" stroke-linecap="square" stroke-linejoin="round" stroke-miterlimit="10" points="
	43.703,64.478 22.443,64.478 19.149,56.077 43.018,56.077 "/>
<g enable-background="new    ">
	<path d="M23.764,62.569v-0.281c0.183-0.014,0.292-0.025,0.327-0.035c0.035-0.011,0.064-0.026,0.09-0.048
		c0.024-0.021,0.05-0.055,0.076-0.102c0.025-0.046,0.103-0.218,0.231-0.517c0.059-0.14,0.172-0.416,0.339-0.829l0.884-2.181
		l0.298-0.77h0.481l1.514,3.536l0.21,0.464l0.135,0.312c0.023,0.04,0.045,0.069,0.064,0.088c0.021,0.018,0.044,0.031,0.069,0.041
		c0.026,0.009,0.093,0.017,0.198,0.023c0.034,0.005,0.084,0.01,0.149,0.017v0.281l-0.941-0.023L26.7,62.569v-0.281
		c0.273-0.011,0.428-0.026,0.463-0.045c0.034-0.02,0.052-0.052,0.052-0.097c0-0.057-0.025-0.148-0.077-0.277l-0.291-0.742h-1.746
		l-0.148,0.405c-0.112,0.311-0.169,0.504-0.169,0.58c0,0.055,0.019,0.093,0.054,0.115c0.055,0.031,0.216,0.052,0.484,0.061v0.281
		l-0.781-0.023L23.764,62.569z M25.257,60.737c0.213,0.007,0.454,0.01,0.723,0.01c0.261,0,0.493-0.003,0.699-0.01l-0.725-1.75
		L25.257,60.737z"/>
</g>
<g enable-background="new    ">
	<path d="M33.306,61.956l-0.156,0.343c-0.282,0.148-0.535,0.251-0.76,0.306c-0.225,0.056-0.506,0.083-0.842,0.083
		c-0.479,0-0.902-0.075-1.27-0.227c-0.289-0.122-0.534-0.283-0.735-0.484s-0.355-0.419-0.464-0.653
		c-0.165-0.354-0.247-0.739-0.247-1.155c0-0.711,0.243-1.292,0.729-1.742s1.174-0.676,2.061-0.676c0.305,0,0.579,0.023,0.821,0.068
		c0.243,0.045,0.524,0.125,0.845,0.24l0.018,0.044c-0.036,0.106-0.064,0.239-0.085,0.399c-0.034,0.256-0.056,0.491-0.064,0.708
		h-0.264c-0.005-0.248-0.017-0.447-0.034-0.596c-0.151-0.158-0.321-0.276-0.51-0.354c-0.188-0.077-0.43-0.116-0.723-0.116
		c-0.531,0-0.955,0.167-1.273,0.503c-0.318,0.335-0.478,0.803-0.478,1.403c0,0.363,0.054,0.681,0.161,0.951
		c0.106,0.271,0.25,0.495,0.428,0.673c0.179,0.177,0.358,0.307,0.539,0.388c0.246,0.108,0.544,0.162,0.894,0.162
		c0.23,0,0.448-0.025,0.653-0.077c0.206-0.053,0.43-0.142,0.671-0.268L33.306,61.956z"/>
	<path d="M33.647,62.569v-0.281c0.183-0.014,0.291-0.025,0.326-0.035c0.035-0.011,0.065-0.026,0.09-0.048
		c0.025-0.021,0.051-0.055,0.076-0.102c0.026-0.046,0.104-0.218,0.232-0.517c0.059-0.14,0.171-0.416,0.339-0.829l0.884-2.181
		l0.298-0.77h0.48l1.514,3.536l0.21,0.464l0.136,0.312c0.022,0.04,0.044,0.069,0.064,0.088c0.021,0.018,0.043,0.031,0.069,0.041
		c0.025,0.009,0.092,0.017,0.198,0.023c0.033,0.005,0.083,0.01,0.148,0.017v0.281l-0.94-0.023l-1.188,0.023v-0.281
		c0.272-0.011,0.427-0.026,0.462-0.045c0.035-0.02,0.053-0.052,0.053-0.097c0-0.057-0.026-0.148-0.078-0.277l-0.291-0.742h-1.746
		l-0.147,0.405c-0.113,0.311-0.169,0.504-0.169,0.58c0,0.055,0.018,0.093,0.054,0.115c0.054,0.031,0.215,0.052,0.483,0.061v0.281
		l-0.78-0.023L33.647,62.569z M35.141,60.737c0.213,0.007,0.453,0.01,0.723,0.01c0.26,0,0.493-0.003,0.699-0.01l-0.726-1.75
		L35.141,60.737z"/>
	<path d="M39.323,62.569v-0.162c0.018-0.012,0.049-0.029,0.094-0.055c0.085-0.047,0.163-0.097,0.234-0.149
		c0.025-0.302,0.037-0.793,0.037-1.473v-0.556c0-0.298-0.005-0.734-0.017-1.311c-0.007-0.318-0.021-0.521-0.044-0.609
		c-0.007-0.021-0.016-0.036-0.026-0.047c-0.019-0.019-0.046-0.032-0.084-0.041c-0.039-0.009-0.18-0.029-0.425-0.061v-0.274
		l1.229,0.023c0.145,0,0.416-0.007,0.815-0.02c0.289-0.007,0.521-0.011,0.694-0.011c0.399,0,0.719,0.024,0.959,0.072
		c0.24,0.049,0.449,0.127,0.628,0.234c0.179,0.106,0.329,0.233,0.452,0.381c0.123,0.146,0.216,0.305,0.279,0.474
		c0.105,0.284,0.158,0.596,0.158,0.935c0,0.432-0.078,0.816-0.236,1.155s-0.375,0.622-0.651,0.85
		c-0.276,0.229-0.576,0.393-0.898,0.493c-0.323,0.101-0.712,0.15-1.168,0.15l-1.005-0.023L39.323,62.569z M40.675,62.152
		c0.21,0.034,0.41,0.051,0.603,0.051c0.3,0,0.566-0.031,0.799-0.095c0.172-0.047,0.322-0.116,0.45-0.206
		c0.129-0.091,0.253-0.224,0.371-0.399c0.119-0.177,0.211-0.387,0.276-0.63c0.065-0.244,0.098-0.507,0.098-0.789
		c0-0.258-0.032-0.507-0.098-0.747s-0.173-0.451-0.322-0.632c-0.148-0.181-0.337-0.312-0.565-0.393
		c-0.228-0.081-0.573-0.122-1.036-0.122c-0.174,0-0.365,0.015-0.575,0.044c-0.023,0.32-0.034,0.924-0.034,1.811v0.778
		C40.641,61.495,40.651,61.938,40.675,62.152z"/>
	<path d="M45.069,62.569v-0.183c0.136-0.063,0.246-0.129,0.332-0.196c0.014-0.095,0.025-0.249,0.034-0.461
		c0.018-0.389,0.027-0.671,0.027-0.847v-1.523c0-0.059-0.004-0.279-0.011-0.661c-0.007-0.255-0.022-0.41-0.047-0.467
		c-0.012-0.022-0.028-0.04-0.051-0.051c-0.062-0.027-0.224-0.048-0.488-0.062v-0.261l0.786-0.005
		c0.155-0.001,0.305-0.002,0.446-0.002c0.31,0,0.654-0.003,1.033-0.01l0.688-0.017c0.081,0,0.246,0.004,0.494,0.014
		c0.022,0,0.061,0.007,0.112,0.02l0.023,0.045l-0.064,0.487c-0.002,0.034-0.014,0.196-0.034,0.487h-0.264
		c-0.005-0.267-0.015-0.43-0.03-0.491c-0.009-0.031-0.022-0.054-0.041-0.067c-0.029-0.021-0.119-0.038-0.27-0.054
		c-0.224-0.025-0.442-0.038-0.656-0.038c-0.2,0-0.405,0.009-0.615,0.024c-0.031,0.257-0.047,0.583-0.047,0.979v0.7
		c0.153,0.011,0.312,0.017,0.479,0.017c0.052,0,0.238-0.005,0.561-0.014c0.122-0.002,0.193-0.01,0.215-0.023
		s0.037-0.037,0.049-0.071c0.027-0.086,0.043-0.229,0.047-0.43h0.274l-0.017,0.745l0.017,0.741h-0.274
		c0.003-0.262-0.015-0.424-0.051-0.484c-0.027-0.045-0.076-0.073-0.147-0.085c-0.157-0.024-0.359-0.037-0.605-0.037
		c-0.221,0-0.403,0.008-0.547,0.024v1.42c0,0.158,0.003,0.294,0.01,0.408c0.183,0.016,0.399,0.023,0.649,0.023
		c0.243,0,0.468-0.008,0.674-0.023s0.333-0.038,0.381-0.067c0.016-0.009,0.03-0.029,0.044-0.062c0.04-0.108,0.083-0.313,0.128-0.616
		h0.278c-0.05,0.447-0.075,0.815-0.075,1.104l-0.044,0.044c-0.145,0.016-0.35,0.023-0.616,0.023l-0.545-0.012
		c-0.537-0.008-0.907-0.012-1.111-0.012C46.146,62.546,45.77,62.554,45.069,62.569z"/>
	<path d="M49.133,62.569v-0.288c0.256-0.018,0.407-0.036,0.454-0.054c0.027-0.009,0.049-0.025,0.064-0.048
		c0.021-0.029,0.034-0.072,0.041-0.129c0.016-0.128,0.029-0.409,0.04-0.843c0.007-0.21,0.011-0.571,0.011-1.084
		c0-0.458-0.004-0.863-0.011-1.217s-0.021-0.564-0.044-0.632c-0.009-0.031-0.023-0.056-0.042-0.073
		c-0.02-0.017-0.056-0.029-0.11-0.038c-0.148-0.025-0.283-0.04-0.403-0.045v-0.287c0.466,0.016,0.786,0.023,0.962,0.023
		c0.232,0,0.467-0.008,0.701-0.023l0.298,0.67l0.237,0.508l1.077,2.222c0.23-0.444,0.402-0.79,0.518-1.036l0.447-0.938
		c0.248-0.524,0.4-0.847,0.455-0.967c0.056-0.121,0.118-0.274,0.188-0.459c0.296,0.016,0.486,0.023,0.57,0.023l1.011-0.023v0.287
		H55.55c-0.23-0.002-0.377,0.024-0.438,0.08s-0.093,0.162-0.093,0.32c0,0.188-0.001,0.329-0.003,0.427l-0.014,0.951v1.188
		c0,0.289,0.001,0.458,0.003,0.508c0.019,0.287,0.034,0.463,0.048,0.528c0.007,0.032,0.02,0.058,0.038,0.076
		c0.018,0.02,0.044,0.034,0.078,0.044c0.034,0.011,0.177,0.023,0.429,0.039v0.288l-1.082-0.023l-1.058,0.023v-0.288
		c0.279-0.009,0.439-0.025,0.479-0.049c0.04-0.023,0.068-0.077,0.085-0.161c0.017-0.083,0.025-0.363,0.025-0.84v-2.465l-0.785,1.588
		l-0.376,0.789c-0.1,0.208-0.239,0.509-0.42,0.904c-0.111,0.239-0.198,0.433-0.261,0.579h-0.23
		c-0.081-0.189-0.199-0.449-0.353-0.779c-0.262-0.564-0.46-0.985-0.596-1.263l-0.891-1.818v1.662c0,0.278,0.004,0.608,0.012,0.991
		s0.017,0.599,0.025,0.65c0.009,0.051,0.023,0.087,0.042,0.109c0.02,0.022,0.054,0.042,0.102,0.058
		c0.049,0.016,0.188,0.03,0.415,0.044v0.288c-0.253-0.016-0.511-0.023-0.775-0.023C49.61,62.546,49.336,62.554,49.133,62.569z"/>
	<path d="M58.56,60.076l0.426-0.689c0.072-0.124,0.286-0.501,0.642-1.133c0.124-0.216,0.202-0.356,0.233-0.422h0.536v0.152
		c-0.273,0.368-0.569,0.8-0.886,1.297c-0.316,0.496-0.513,0.816-0.587,0.958c-0.05,0.098-0.083,0.182-0.099,0.254
		c-0.011,0.053-0.017,0.137-0.017,0.254v0.572c0,0.287,0.007,0.496,0.021,0.627s0.032,0.21,0.053,0.237
		c0.021,0.026,0.055,0.047,0.102,0.061c0.048,0.014,0.196,0.022,0.447,0.027v0.298c-0.431-0.016-0.819-0.023-1.167-0.023
		c-0.338,0-0.681,0.008-1.027,0.023v-0.298c0.257-0.009,0.408-0.02,0.452-0.03c0.044-0.012,0.074-0.028,0.091-0.051
		c0.018-0.022,0.029-0.091,0.036-0.203c0.011-0.258,0.017-0.477,0.017-0.657v-0.644c0-0.052-0.043-0.159-0.129-0.321
		c-0.212-0.389-0.438-0.771-0.681-1.148c-0.196-0.307-0.379-0.553-0.548-0.738c-0.113-0.122-0.193-0.195-0.241-0.22
		c-0.029-0.014-0.128-0.021-0.298-0.021v-0.254l0.718-0.143c0.121-0.027,0.247-0.058,0.375-0.092
		c0.138,0.077,0.238,0.146,0.302,0.205c0.062,0.061,0.149,0.173,0.261,0.337c0.164,0.244,0.328,0.525,0.49,0.844
		C58.346,59.646,58.505,59.959,58.56,60.076z"/>
</g>
<polyline fill="none" stroke="#231F20" stroke-width="0.7824" stroke-linecap="round" stroke-linejoin="round" stroke-miterlimit="10" points="
	19.149,56.077 22.432,64.469 27.762,67.305 "/>
<polyline fill="none" stroke="#231F20" stroke-width="0.8358" stroke-linecap="square" stroke-linejoin="round" stroke-miterlimit="10" points="
	40.195,64.478 61.454,64.478 64.749,56.077 40.88,56.077 "/>
<line fill="none" stroke="#231F20" stroke-width="0.7824" stroke-linecap="round" stroke-linejoin="round" stroke-miterlimit="10" x1="27.945" y1="67.305" x2="22.615" y2="64.469"/>
<polyline opacity="0.6" enable-background="new    " points="23.148,64.535 27.771,67.078 27.155,64.304 "/>
<g>
	<g>
		<path fill="#FFFFFF" d="M22.318,35.038c0.941,3.13,1.408,4.76,2.34,8.116c-0.507-0.058-0.76-0.089-1.266-0.152
			c-0.249-0.883-0.374-1.321-0.624-2.188c-0.784-0.074-1.176-0.113-1.959-0.194c-0.266,0.787-0.399,1.176-0.664,1.942
			c-0.336-0.049-0.504-0.075-0.84-0.126c0.98-2.81,1.477-4.298,2.474-7.399C21.996,35.038,22.103,35.038,22.318,35.038z
			 M21.041,39.945c0.608,0.055,0.912,0.081,1.521,0.132c-0.296-1.019-0.445-1.522-0.742-2.516
			C21.508,38.528,21.352,39.005,21.041,39.945z"/>
		<path fill="#FFFFFF" d="M25.319,35.16c0.736,0.001,1.104,0.002,1.841,0.003c0.472,0.001,0.906,0.064,1.302,0.192
			c0.396,0.128,0.736,0.316,1.021,0.565c0.285,0.249,0.506,0.555,0.663,0.919c0.157,0.363,0.235,0.778,0.233,1.242
			c-0.002,0.417-0.071,0.808-0.207,1.17c-0.136,0.362-0.334,0.673-0.594,0.931s-0.579,0.453-0.956,0.587
			c-0.377,0.133-0.809,0.183-1.295,0.15c-0.814-0.055-1.221-0.085-2.034-0.148C25.304,38.526,25.309,37.404,25.319,35.16z
			 M26.537,40.278c0.265,0.017,0.397,0.025,0.662,0.042c0.244,0.015,0.475-0.022,0.691-0.113s0.406-0.232,0.568-0.425
			c0.162-0.192,0.291-0.433,0.386-0.723c0.095-0.289,0.144-0.625,0.146-1.006c0.002-0.329-0.041-0.635-0.127-0.916
			c-0.087-0.281-0.208-0.526-0.365-0.732c-0.157-0.207-0.344-0.368-0.562-0.484s-0.456-0.174-0.715-0.177
			c-0.265-0.002-0.397-0.003-0.662-0.006C26.55,37.554,26.546,38.462,26.537,40.278z"/>
		<path fill="#FFFFFF" d="M33.37,35.038c0.94,2.482,1.411,3.744,2.356,6.285c-0.51-0.014-0.765-0.022-1.274-0.04
			c-0.252-0.677-0.378-1.014-0.629-1.686c-0.789-0.022-1.183-0.034-1.971-0.061c-0.269,0.647-0.404,0.969-0.674,1.609
			c-0.339-0.017-0.509-0.026-0.848-0.044c1.002-2.372,1.503-3.59,2.503-6.063C33.047,35.038,33.155,35.038,33.37,35.038z
			 M32.085,38.981c0.612,0.018,0.917,0.026,1.529,0.041c-0.298-0.793-0.447-1.188-0.744-1.974
			C32.556,37.826,32.399,38.213,32.085,38.981z"/>
		<path fill="#FFFFFF" d="M36.371,35.172c0.484,0,0.726,0,1.211,0.001c0.697,1.693,1.046,2.545,1.746,4.251
			c0.696-1.695,1.043-2.547,1.736-4.25c0.474,0,0.711,0,1.186,0c0.001,2.493,0.001,3.74,0.002,6.234
			c-0.499,0.001-0.748,0.001-1.247-0.001c0.001-1.625,0.001-2.437,0.002-4.062c-0.664,1.624-0.996,2.435-1.663,4.05
			c-0.193-0.002-0.289-0.003-0.482-0.006c-0.685-1.649-1.026-2.472-1.708-4.109c-0.004,1.631-0.006,2.447-0.01,4.079
			c-0.316-0.007-0.473-0.011-0.789-0.019C36.361,38.872,36.364,37.639,36.371,35.172z"/>
		<path fill="#FFFFFF" d="M45.248,41.475c-0.305,0.005-0.572-0.035-0.8-0.119c-0.229-0.084-0.424-0.203-0.584-0.356
			c-0.161-0.153-0.288-0.336-0.383-0.548c-0.094-0.212-0.159-0.445-0.195-0.699c0.345-0.002,0.518-0.003,0.864-0.006
			c0.031,0.154,0.075,0.299,0.133,0.433c0.057,0.135,0.13,0.251,0.218,0.349c0.088,0.098,0.193,0.175,0.315,0.23
			c0.121,0.055,0.262,0.082,0.421,0.079c0.107-0.002,0.212-0.017,0.316-0.046c0.103-0.029,0.196-0.075,0.278-0.137
			s0.148-0.144,0.198-0.245s0.074-0.224,0.074-0.369c0-0.185-0.039-0.349-0.117-0.49c-0.078-0.141-0.18-0.269-0.308-0.385
			c-0.128-0.116-0.273-0.224-0.436-0.324c-0.163-0.1-0.329-0.201-0.498-0.303c-0.169-0.102-0.335-0.208-0.498-0.32
			c-0.163-0.111-0.308-0.236-0.435-0.376s-0.23-0.296-0.307-0.471s-0.116-0.376-0.116-0.603c0-0.248,0.044-0.478,0.131-0.689
			c0.088-0.211,0.215-0.395,0.382-0.549c0.167-0.155,0.372-0.276,0.614-0.363c0.242-0.087,0.517-0.131,0.826-0.131
			c0.256,0,0.488,0.044,0.695,0.13c0.207,0.087,0.389,0.205,0.547,0.353c0.158,0.149,0.292,0.324,0.4,0.526
			c0.109,0.202,0.192,0.419,0.249,0.653c-0.314,0.002-0.47,0.003-0.784,0.005c-0.046-0.147-0.098-0.288-0.158-0.421
			c-0.06-0.133-0.134-0.25-0.222-0.351s-0.194-0.181-0.318-0.241c-0.124-0.059-0.272-0.089-0.445-0.089
			c-0.162,0-0.298,0.027-0.409,0.079c-0.112,0.053-0.202,0.119-0.27,0.199c-0.069,0.08-0.118,0.17-0.147,0.269
			c-0.03,0.099-0.044,0.197-0.044,0.293c0,0.166,0.04,0.316,0.12,0.451c0.08,0.135,0.186,0.26,0.318,0.374
			c0.132,0.114,0.281,0.224,0.448,0.329c0.166,0.105,0.337,0.21,0.512,0.316c0.175,0.106,0.346,0.216,0.514,0.33
			c0.168,0.114,0.318,0.24,0.45,0.379c0.132,0.138,0.239,0.292,0.319,0.461s0.12,0.36,0.121,0.574
			c0.001,0.251-0.041,0.485-0.127,0.702c-0.085,0.217-0.211,0.408-0.379,0.572c-0.167,0.164-0.375,0.295-0.624,0.391
			C45.858,41.418,45.572,41.47,45.248,41.475z"/>
		<path fill="#FFFFFF" d="M50.916,41.347c-0.273,0.012-0.535-0.013-0.785-0.076s-0.482-0.157-0.697-0.284s-0.41-0.284-0.587-0.47
			c-0.177-0.187-0.327-0.399-0.452-0.638c-0.124-0.238-0.221-0.498-0.29-0.78c-0.069-0.282-0.103-0.581-0.104-0.898
			C48,37.89,48.033,37.596,48.1,37.317c0.067-0.278,0.162-0.534,0.284-0.768c0.123-0.234,0.272-0.444,0.447-0.633
			c0.175-0.188,0.369-0.347,0.582-0.476s0.444-0.228,0.693-0.298s0.51-0.104,0.783-0.104c0.273,0,0.534,0.035,0.784,0.103
			c0.25,0.069,0.481,0.167,0.696,0.293c0.214,0.127,0.41,0.28,0.586,0.459c0.176,0.18,0.327,0.381,0.452,0.604
			c0.124,0.223,0.221,0.466,0.29,0.73s0.104,0.543,0.105,0.839c0.001,0.312-0.031,0.607-0.097,0.886
			c-0.066,0.279-0.161,0.537-0.283,0.775c-0.122,0.238-0.271,0.454-0.446,0.647s-0.369,0.36-0.582,0.5s-0.445,0.251-0.694,0.332
			C51.451,41.288,51.19,41.335,50.916,41.347z M50.914,40.833c0.247-0.01,0.465-0.086,0.653-0.228
			c0.188-0.142,0.346-0.334,0.473-0.576s0.223-0.526,0.287-0.853s0.095-0.681,0.093-1.064c-0.002-0.377-0.036-0.723-0.103-1.036
			c-0.067-0.314-0.165-0.583-0.294-0.809c-0.129-0.226-0.288-0.402-0.478-0.528c-0.189-0.126-0.407-0.188-0.654-0.188
			c-0.249,0.001-0.469,0.065-0.658,0.194s-0.347,0.309-0.473,0.541c-0.126,0.232-0.221,0.509-0.285,0.831
			c-0.064,0.322-0.096,0.676-0.094,1.061c0.001,0.391,0.035,0.752,0.102,1.081c0.067,0.33,0.164,0.613,0.292,0.85
			s0.287,0.419,0.478,0.547C50.444,40.785,50.665,40.843,50.914,40.833z"/>
		<path fill="#FFFFFF" d="M54.768,35.165c0.318,0,0.476-0.001,0.794-0.001c1.164,1.473,1.746,2.188,2.907,3.552
			c-0.006-1.423-0.009-2.134-0.016-3.557c0.312-0.001,0.468-0.001,0.78-0.001c0.009,2.246,0.014,3.369,0.023,5.614
			c-0.214,0.018-0.322,0.027-0.536,0.044c-1.26-1.463-1.892-2.237-3.156-3.838c0.008,1.592,0.012,2.388,0.019,3.98
			c-0.315,0.02-0.472,0.03-0.787,0.05C54.785,38.671,54.78,37.502,54.768,35.165z"/>
		<path fill="#FFFFFF" d="M62.236,42.841c-0.302,0.043-0.566,0.026-0.793-0.051c-0.227-0.077-0.42-0.202-0.58-0.373
			c-0.16-0.172-0.287-0.385-0.381-0.64s-0.16-0.539-0.196-0.853c0.343-0.032,0.515-0.048,0.858-0.081
			c0.031,0.187,0.076,0.361,0.133,0.522c0.057,0.16,0.13,0.296,0.217,0.408c0.088,0.111,0.192,0.194,0.312,0.248
			c0.121,0.054,0.26,0.071,0.418,0.051c0.106-0.013,0.21-0.044,0.313-0.09c0.102-0.046,0.194-0.111,0.276-0.195
			c0.081-0.083,0.146-0.188,0.196-0.314c0.049-0.126,0.074-0.275,0.074-0.449c0-0.222-0.039-0.413-0.116-0.576
			c-0.077-0.162-0.179-0.308-0.305-0.438c-0.127-0.13-0.271-0.25-0.433-0.359c-0.162-0.11-0.327-0.221-0.496-0.335
			c-0.168-0.114-0.334-0.234-0.496-0.361c-0.163-0.127-0.307-0.274-0.435-0.44c-0.127-0.166-0.23-0.356-0.307-0.57
			c-0.078-0.214-0.117-0.463-0.118-0.747c-0.001-0.309,0.042-0.596,0.129-0.861s0.214-0.494,0.38-0.686
			c0.167-0.193,0.371-0.343,0.613-0.45s0.517-0.161,0.826-0.161c0.256,0,0.488,0.053,0.694,0.156
			c0.207,0.104,0.389,0.243,0.547,0.418s0.291,0.381,0.399,0.616c0.108,0.236,0.19,0.49,0.247,0.762
			c-0.313,0.013-0.469,0.019-0.781,0.031c-0.045-0.174-0.098-0.339-0.157-0.497c-0.059-0.157-0.133-0.295-0.221-0.415
			c-0.088-0.12-0.194-0.214-0.317-0.284s-0.272-0.104-0.445-0.102c-0.161,0.002-0.298,0.035-0.409,0.101
			c-0.111,0.065-0.201,0.148-0.27,0.247c-0.069,0.099-0.117,0.21-0.147,0.332c-0.029,0.122-0.044,0.242-0.043,0.36
			c0.001,0.204,0.041,0.387,0.121,0.55c0.08,0.163,0.186,0.311,0.317,0.445c0.132,0.134,0.281,0.26,0.447,0.379
			c0.166,0.119,0.336,0.238,0.51,0.355c0.174,0.118,0.344,0.239,0.511,0.365c0.167,0.126,0.316,0.266,0.447,0.421
			c0.131,0.155,0.236,0.328,0.315,0.521s0.119,0.414,0.119,0.665c0,0.295-0.042,0.574-0.127,0.838s-0.21,0.502-0.376,0.716
			c-0.166,0.213-0.372,0.393-0.618,0.537C62.84,42.699,62.557,42.795,62.236,42.841z"/>
		<path fill="#FFFFFF" d="M31.69,42.684c-0.001,0.233-0.002,0.35-0.003,0.584c-0.805-0.051-1.207-0.079-2.011-0.14
			c-0.012,2.471-0.018,3.707-0.029,6.178c-0.569-0.077-0.854-0.117-1.422-0.203c0.012-2.436,0.018-3.654,0.03-6.09
			c-0.803-0.069-1.205-0.105-2.007-0.184c0.001-0.221,0.002-0.331,0.003-0.552C28.422,42.474,29.511,42.555,31.69,42.684z"/>
		<path fill="#FFFFFF" d="M37.055,42.916c-0.001,0.241-0.001,0.361-0.001,0.601c-1.168-0.035-1.752-0.057-2.919-0.113
			c-0.003,0.922-0.005,1.383-0.008,2.305c0.97,0.059,1.456,0.084,2.427,0.125c-0.001,0.242-0.001,0.363-0.002,0.605
			c-0.971-0.043-1.457-0.069-2.427-0.132c-0.004,1.108-0.006,1.662-0.01,2.77c1.169,0.094,1.755,0.132,2.926,0.19
			c-0.001,0.29-0.001,0.435-0.002,0.726c-1.744-0.091-2.616-0.157-4.356-0.331c0.011-2.768,0.017-4.152,0.028-6.92
			C34.447,42.833,35.316,42.868,37.055,42.916z"/>
		<path fill="#FFFFFF" d="M38.241,42.944c0.365,0.007,0.547,0.011,0.912,0.016c1.326,1.831,1.991,2.75,3.324,4.557
			c-0.001-1.815-0.001-2.723-0.002-4.539c0.358-0.001,0.538-0.003,0.896-0.006c0.002,2.895,0.004,4.343,0.006,7.238
			c-0.248,0.004-0.372,0.006-0.62,0.009c-1.45-1.987-2.173-3.003-3.616-5.03c-0.003,1.955-0.004,2.933-0.007,4.888
			c-0.363-0.01-0.544-0.017-0.907-0.031C38.233,47.205,38.236,45.785,38.241,42.944z"/>
		<path fill="#FFFFFF" d="M44.804,42.953c0.365-0.006,0.547-0.01,0.912-0.019c1.332,1.775,2,2.65,3.335,4.342
			c-0.006-1.78-0.009-2.671-0.015-4.451c0.358-0.015,0.537-0.023,0.895-0.04c0.011,2.827,0.016,4.24,0.027,7.067
			c-0.247,0.023-0.371,0.033-0.618,0.054c-1.452-1.84-2.178-2.8-3.627-4.75c0.004,1.949,0.006,2.923,0.01,4.872
			c-0.363,0.016-0.544,0.023-0.907,0.035C44.81,47.219,44.808,45.797,44.804,42.953z"/>
		<path fill="#FFFFFF" d="M51.421,42.707c0.57-0.032,0.855-0.05,1.424-0.087c0.013,2.725,0.019,4.087,0.031,6.812
			c-0.57,0.07-0.855,0.103-1.426,0.164C51.439,46.841,51.433,45.463,51.421,42.707z"/>
		<path fill="#FFFFFF" d="M56.357,49.037c-0.347,0.057-0.651,0.058-0.912,0.005s-0.484-0.151-0.668-0.291s-0.331-0.319-0.439-0.535
			c-0.109-0.216-0.184-0.459-0.226-0.728c0.395-0.047,0.592-0.072,0.986-0.123c0.036,0.161,0.087,0.31,0.153,0.446
			c0.066,0.136,0.149,0.25,0.25,0.341c0.101,0.092,0.221,0.157,0.359,0.197c0.139,0.04,0.299,0.045,0.48,0.017
			c0.122-0.019,0.242-0.052,0.36-0.1s0.223-0.112,0.316-0.191c0.093-0.079,0.168-0.176,0.224-0.29
			c0.056-0.114,0.084-0.247,0.084-0.399c-0.001-0.195-0.046-0.36-0.134-0.496c-0.089-0.136-0.206-0.256-0.351-0.36
			c-0.146-0.104-0.312-0.197-0.498-0.281c-0.186-0.083-0.376-0.168-0.569-0.255s-0.383-0.179-0.57-0.278s-0.353-0.216-0.499-0.351
			c-0.146-0.135-0.264-0.293-0.353-0.473s-0.134-0.393-0.136-0.639c-0.001-0.268,0.048-0.52,0.147-0.756
			c0.099-0.237,0.245-0.445,0.435-0.627c0.191-0.181,0.424-0.329,0.701-0.445c0.276-0.116,0.591-0.187,0.944-0.217
			c0.293-0.025,0.558-0.002,0.794,0.068s0.445,0.174,0.626,0.311c0.181,0.138,0.333,0.305,0.458,0.501
			c0.124,0.197,0.219,0.412,0.285,0.646c-0.357,0.043-0.536,0.064-0.894,0.106c-0.052-0.148-0.112-0.289-0.181-0.421
			c-0.068-0.132-0.153-0.246-0.254-0.343c-0.101-0.096-0.222-0.169-0.363-0.218s-0.311-0.065-0.509-0.047
			c-0.184,0.017-0.34,0.059-0.468,0.126c-0.127,0.067-0.23,0.147-0.308,0.239s-0.134,0.193-0.168,0.302
			c-0.034,0.109-0.05,0.215-0.049,0.317c0.001,0.177,0.047,0.334,0.139,0.469c0.092,0.135,0.213,0.256,0.364,0.362
			c0.151,0.106,0.322,0.204,0.512,0.294c0.19,0.09,0.385,0.179,0.585,0.267c0.2,0.088,0.395,0.18,0.587,0.275
			c0.192,0.096,0.363,0.205,0.514,0.33c0.151,0.124,0.272,0.268,0.363,0.43c0.091,0.163,0.138,0.354,0.138,0.576
			c0.001,0.26-0.046,0.51-0.143,0.75c-0.096,0.24-0.239,0.461-0.429,0.662c-0.19,0.201-0.426,0.375-0.708,0.519
			C57.052,48.873,56.726,48.977,56.357,49.037z"/>
	</g>
</g>
<g>
	<path fill="#DC4A38" d="M152.359,18.776h-49.31c-0.907,0-1.641,0.734-1.641,1.64v48.133c0,0.908,0.734,1.642,1.641,1.642h49.31
		c0.907,0,1.641-0.735,1.641-1.642V20.417C154,19.51,153.265,18.776,152.359,18.776z"/>
	<g>
		<path fill="#FFFFFF" d="M129.016,46.992l-1.659-1.288c-0.505-0.419-1.196-0.972-1.196-1.985c0-1.017,0.691-1.663,1.291-2.262
			c1.933-1.521,3.864-3.141,3.864-6.553c0-3.509-2.208-5.355-3.266-6.23h2.853l2.995-1.882h-9.072c-2.489,0-6.077,0.589-8.703,2.757
			c-1.98,1.708-2.945,4.063-2.945,6.183c0,3.599,2.763,7.247,7.642,7.247c0.461,0,0.965-0.045,1.472-0.092
			c-0.228,0.554-0.458,1.016-0.458,1.8c0,1.429,0.734,2.306,1.382,3.136c-2.073,0.142-5.944,0.372-8.797,2.126
			c-2.717,1.616-3.544,3.968-3.544,5.628c0,3.417,3.22,6.599,9.898,6.599c7.919,0,12.111-4.382,12.111-8.72
			C132.884,50.268,131.043,48.699,129.016,46.992z M122.984,41.686c-3.962,0-5.756-5.121-5.756-8.211
			c0-1.203,0.228-2.445,1.011-3.415c0.739-0.924,2.025-1.523,3.226-1.523c3.819,0,5.8,5.167,5.8,8.49
			c0,0.831-0.092,2.305-1.151,3.37C125.374,41.135,124.135,41.686,122.984,41.686z M123.03,60.241c-4.926,0-8.103-2.357-8.103-5.633
			s2.946-4.384,3.959-4.751c1.933-0.65,4.42-0.741,4.835-0.741c0.46,0,0.691,0,1.057,0.046c3.502,2.492,5.022,3.735,5.022,6.094
			C129.8,58.113,127.451,60.241,123.03,60.241z"/>
		<polygon fill="#FFFFFF" points="140.644,41.616 140.644,37.002 138.365,37.002 138.365,41.616 133.759,41.616 133.759,43.92 
			138.365,43.92 138.365,48.561 140.644,48.561 140.644,43.92 145.273,43.92 145.273,41.616 		"/>
	</g>
</g>
</svg>
