<?xml version="1.0" encoding="utf-8"?>
<!-- Generator: Adobe Illustrator 17.0.0, SVG Export Plug-In . SVG Version: 6.00 Build 0)  -->
<!DOCTYPE svg PUBLIC "-//W3C//DTD SVG 1.1//EN" "http://www.w3.org/Graphics/SVG/1.1/DTD/svg11.dtd">
<svg version="1.1" id="Your_Icon" xmlns="http://www.w3.org/2000/svg" xmlns:xlink="http://www.w3.org/1999/xlink" x="0px" y="0px"
	 width="100px" height="100px" viewBox="0 0 100 100" enable-background="new 0 0 100 100" xml:space="preserve">
<path fill="#565F71" d="M48.42,89.944c-1.899-0.352-4.202-0.849-6.793-1.645c-2.589-0.796-5.48-1.886-8.433-3.547
	c-2.942-1.646-6.026-3.834-8.534-6.96c-2.513-3.074-4.448-7.133-4.753-11.601c-0.373-4.442,0.748-9.107,3.052-13.109
	c2.287-4.027,5.664-7.443,9.605-9.944c3.968-2.467,8.525-3.951,13.091-4.359c4.576-0.438,9.121,0.312,13.175,1.755
	c1.999,0.704,4.041,1.651,5.726,2.581c1.768,1.003,3.401,1.886,5.078,2.719c1.662,0.825,3.301,1.569,4.912,2.201
	c1.605,0.641,3.183,1.19,4.717,1.549c1.53,0.365,3.025,0.565,4.388,0.463c1.363-0.08,2.584-0.495,3.454-1.263
	c0.875-0.767,1.379-1.837,1.661-2.886c0.283-1.055,0.36-2.096,0.365-3.034c-0.014-1.884-0.261-3.38-0.459-4.385
	c-0.172-0.863-0.309-1.35-0.346-1.478c-5.537-15.667-20.469-26.893-38.03-26.893c-22.276,0-40.333,18.058-40.333,40.333
	s18.058,40.333,40.333,40.333c1.023,0,2.032-0.051,3.035-0.125c-0.148-0.018-0.304-0.035-0.48-0.056
	C51.824,90.486,50.32,90.295,48.42,89.944z"/>
<path fill="#565F71" d="M90.63,50.444c0-2.861-0.303-5.651-0.869-8.345c0.036,0.241,0.078,0.468,0.105,0.727
	c0.098,0.977,0.14,2.082-0.051,3.297c-0.192,1.2-0.673,2.558-1.727,3.676c-1.053,1.119-2.628,1.792-4.239,2.023
	c-1.624,0.236-3.308,0.112-5.001-0.167c-3.397-0.565-6.854-1.808-10.368-3.342c-3.562-1.48-6.983-3.617-10.67-4.751
	c-3.726-1.217-7.791-1.716-11.831-1.324c-4.041,0.393-8.031,1.76-11.519,3.937c-3.489,2.167-6.49,5.153-8.508,8.634
	c-2.027,3.459-3.139,7.393-2.914,11.178c0.18,3.786,1.602,7.334,3.721,10.186c1.046,1.439,2.263,2.707,3.534,3.839
	c1.274,1.129,2.594,2.146,3.951,2.998c2.695,1.733,5.385,3.031,7.839,4.015c2.462,0.966,4.663,1.705,6.502,2.236
	c1.841,0.517,3.297,0.925,4.301,1.149c0.362,0.087,0.641,0.153,0.877,0.21C74.413,88.86,90.63,71.551,90.63,50.444z"/>
</svg>
