<?xml version="1.0" encoding="utf-8"?>
<!-- Generator: Adobe Illustrator 17.0.0, SVG Export Plug-In . SVG Version: 6.00 Build 0)  -->
<!DOCTYPE svg PUBLIC "-//W3C//DTD SVG 1.1//EN" "http://www.w3.org/Graphics/SVG/1.1/DTD/svg11.dtd">
<svg version="1.1" id="Layer_1" xmlns="http://www.w3.org/2000/svg" xmlns:xlink="http://www.w3.org/1999/xlink" x="0px" y="0px"
	 width="100px" height="100px" viewBox="0 0 100 100" enable-background="new 0 0 100 100" xml:space="preserve">
<g>
	<rect x="97.346" y="29.377" fill="#576072" width="2" height="28.449"/>
	<path fill="#576072" d="M4,32v24h92V32H4z M93,37H74v-2h19V37z M51,37v-2h20v2H51z M71,40v2H51v-2H71z M48,37H29v-2h19V37z M48,40
		v2H29v-2H48z M26,42H7v-2h19V42z M26,45v2H7v-2H26z M29,45h19v2H29V45z M48,50v3H29v-3H48z M51,50h20v3H51V50z M51,47v-2h20v2H51z
		 M74,45h19v2H74V45z M74,42v-2h19v2H74z M26,35v2H7v-2H26z M7,50h19v3H7V50z M74,53v-3h19v3H74z"/>
	<rect x="0.654" y="29.377" fill="#576072" width="2" height="28.449"/>
	<path fill="#576072" d="M75.175,33.508L72,14.064v-0.112L72.016,13h-0.853H28.838h-0.853L17.22,80.454l-0.818,5.255L16.217,87
		h1.172H82.61h1.173L75.175,33.508z M29.691,15H70.31l3.068,19.385L78.094,64H21.882L29.691,15z M18.562,85l0.881-5.689L21.563,66
		h56.849l3.025,19H18.562z"/>
	<rect x="48.833" y="64.833" fill="#576072" width="2" height="21.334"/>
	<rect x="49" y="13.833" fill="#576072" width="1" height="10.334"/>
	<rect x="27.167" y="23.667" fill="#576072" width="45.333" height="1"/>
	<path fill="#A5554A" d="M61.099,43.066l-0.207,0.027c-0.292,0.085-0.548,0.316-0.633,0.621c-0.073,0.511,0.402,1.022,0.925,0.949
		c0.256-0.11,0.475-0.316,0.608-0.548C62.017,43.647,61.579,43.085,61.099,43.066L61.099,43.066z M59.895,48.642
		c-0.158,0.633-0.134,1.302,0,1.947c0.097,0.584,0.669,0.9,0.864,1.448c0.28,0.73,0.815,1.338,1.095,2.068
		c0.487,1.205,1.205,2.287,1.789,3.443c0.304,0.645,0.876,1.107,1.18,1.74c0.645,1.302,1.74,2.397,2.008,3.869
		c-0.012,0.754-0.462,1.436-0.645,2.166c-0.402,1.363-1.205,2.579-1.679,3.918c-0.621,1.679-1.314,3.334-1.74,5.074
		c-0.499,1.411-1.095,2.774-1.472,4.21c-0.256,1.716-0.438,3.443-0.535,5.183c-0.097,0.9,0.292,1.752,0.523,2.604
		c0.377,1.314,1.205,2.421,1.655,3.699c0.195,0.56,0.548,1.095,0.535,1.703c-0.231,0.949-0.961,1.752-1.862,2.129
		c-0.292,0.158-0.742,0.377-0.706,0.767c0.535,0.548,1.387,0.767,2.117,0.511c1.046-0.365,2.166-0.377,3.261-0.535
		c-0.024-0.852-0.256-1.679-0.475-2.494c-1.241-1.825-0.803-4.198-1.728-6.157c-0.183-0.462-0.523-0.876-0.596-1.375
		c0.061-1.497,0.73-2.884,1.472-4.161c0.292-0.608,1.046-0.341,1.582-0.316c0.475,0.085,1.217-0.024,1.363,0.596
		c0.353,1.107,0.718,2.227,1.205,3.285c0.475,1.217,1.545,2.032,2.506,2.847c0.998,0.779,1.886,1.679,2.859,2.494
		c0.572,0.548,1.217,1.168,1.278,2.008c0.049,0.681,0.17,1.375-0.037,2.032c-0.11,0.45-0.353,0.888-0.304,1.363
		c0.195,0.329,0.681,0.183,1.01,0.231c0.535-0.049,1.278,0.024,1.606-0.511c0.122-0.596,0.061-1.217,0.243-1.813
		c0.207-0.633-0.243-1.217-0.45-1.801c-0.231-0.633-1.022-0.767-1.314-1.351c-0.937-1.752-1.679-3.869-3.565-4.843
		c-0.414-0.219-0.56-0.694-0.718-1.107c-0.256-0.73-0.657-1.436-0.596-2.239c0.061-1.253-0.085-2.519-0.207-3.76
		c-0.073-0.754-0.56-1.375-0.706-2.105c-0.134-0.633-0.158-1.302,0.122-1.91c0.45-1.071,0.864-2.166,1.217-3.285
		c0.365-0.9,0.742-1.874,1.545-2.47c0.475-0.377,0.803,0.277,1.375,0.204c0.061,0.146,0.426-0.374,0.487-0.24
		c0.864-0.207,1.594,0.487,2.458,0.487c0.925,0,1.898,0.122,2.811-0.122c1.144-1.533,1.497-3.492,2.19-5.244
		c0.231-0.621,0.706-1.168,0.779-1.849c-0.17-0.548-0.73-0.84-1.205-1.107c-0.475-0.292-1.083-0.11-1.57-0.377
		c-1.059-0.499-2.129-1.071-2.884-1.983c-0.487-0.572-0.779-1.314-1.424-1.74c-1.411-0.998-3.078-1.837-4.855-1.703
		c-0.888,0.012-1.63,0.9-1.606,1.764c0.389,0.669,1.083,1.132,1.764,1.484c1.083,0.596,2.275,1.071,3.529,1.071
		c0.779,0.11,1.533,0.341,2.312,0.487c1.46,0.256,2.592,1.29,3.808,2.044c0.207,0.754,0.231,1.63-0.183,2.324
		c-0.487,0.876-0.961,1.764-1.533,2.592c-0.183,0.243-0.389,0.584-0.742,0.499c-1.034-0.158-2.032-0.487-3.03-0.767
		c-0.876-0.243-1.606-0.827-2.47-1.071c-0.426-0.061-0.596-0.633-0.292-0.925c0.292-0.316,0.596-0.742,1.022-0.864
		c0.487,0.231,0.742,0.827,1.278,1.059c0.049-0.73-0.754-1.326-0.389-2.044c0.243-0.754,0.475-1.618,0.097-2.348
		c-0.596-0.949-1.801-1.338-2.859-1.278c-0.973,0.28-1.168,1.265-1.995,1.728c-0.158,0.487-0.012,1.424-0.535,1.703
		c-0.304,0.012-0.523-0.243-0.73-0.414c-1.302-1.217-2.786-2.348-3.553-3.991c-0.377-0.84-0.888-1.606-1.497-2.275
		c-0.584-0.645-1.034-1.387-1.618-2.032c-0.535-0.608-0.523-1.472-0.888-2.154C61.221,49.871,60.661,49.092,59.895,48.642
		L59.895,48.642z"/>
	<path fill="#FFFFFF" d="M62.386,95.728c-0.691,0-1.361-0.279-1.839-0.768l-0.124-0.127l-0.017-0.177
		c-0.064-0.698,0.575-1.042,0.919-1.227l0.092-0.047c0.761-0.318,1.352-0.979,1.555-1.73c-0.009-0.301-0.146-0.614-0.291-0.944
		c-0.077-0.177-0.154-0.354-0.216-0.533c-0.193-0.546-0.46-1.062-0.743-1.607c-0.345-0.665-0.701-1.354-0.92-2.117
		c-0.056-0.204-0.118-0.4-0.181-0.599c-0.219-0.692-0.445-1.408-0.359-2.197c0.094-1.675,0.275-3.434,0.538-5.202
		c0.274-1.057,0.645-2.031,1.002-2.975c0.168-0.44,0.336-0.882,0.493-1.329c0.327-1.346,0.839-2.693,1.334-3.997
		c0.138-0.36,0.274-0.722,0.408-1.083c0.221-0.623,0.512-1.224,0.794-1.804c0.342-0.706,0.666-1.373,0.875-2.083
		c0.069-0.278,0.185-0.57,0.301-0.861c0.163-0.409,0.317-0.795,0.323-1.171c-0.147-0.756-0.625-1.486-1.132-2.261
		c-0.286-0.438-0.583-0.893-0.824-1.379c-0.128-0.268-0.321-0.51-0.525-0.767c-0.236-0.296-0.479-0.603-0.658-0.981
		c-0.207-0.408-0.438-0.819-0.668-1.229c-0.399-0.713-0.813-1.45-1.133-2.239c-0.127-0.332-0.313-0.64-0.512-0.965
		c-0.211-0.347-0.43-0.706-0.586-1.111c-0.062-0.177-0.188-0.329-0.334-0.507c-0.226-0.274-0.48-0.586-0.557-1.039
		c-0.158-0.761-0.157-1.491,0.008-2.15l0.162-0.648l0.576,0.338c0.735,0.432,1.37,1.156,1.939,2.214
		c0.176,0.328,0.271,0.669,0.363,1c0.113,0.404,0.22,0.786,0.46,1.06c0.299,0.329,0.567,0.688,0.836,1.049
		c0.249,0.334,0.497,0.668,0.778,0.978c0.655,0.722,1.188,1.531,1.582,2.406c0.584,1.252,1.673,2.232,2.725,3.18
		c0.24,0.216,0.479,0.432,0.714,0.65l0.102,0.088l0.136,0.116c0.056-0.162,0.081-0.425,0.098-0.604
		c0.022-0.231,0.046-0.471,0.113-0.679l0.061-0.187l0.171-0.096c0.277-0.154,0.471-0.399,0.695-0.682
		c0.24-0.304,0.504-0.636,0.899-0.872l-0.145-0.078c-0.597-0.31-1.463-0.825-1.955-1.672l-0.063-0.109l-0.004-0.128
		c-0.017-0.579,0.221-1.168,0.65-1.616c0.401-0.419,0.916-0.654,1.448-0.662c0.107-0.009,0.245-0.014,0.383-0.014
		c1.485,0,3.045,0.592,4.769,1.81c0.488,0.322,0.805,0.801,1.084,1.223c0.136,0.207,0.271,0.414,0.431,0.601
		c0.719,0.87,1.778,1.413,2.716,1.855c0.173,0.094,0.37,0.111,0.599,0.132c0.317,0.027,0.677,0.06,1.021,0.271
		c0.564,0.318,1.199,0.676,1.42,1.385l0.03,0.099l-0.011,0.104c-0.057,0.524-0.297,0.967-0.509,1.357
		c-0.109,0.202-0.22,0.402-0.298,0.612c-0.212,0.536-0.389,1.081-0.566,1.627c-0.417,1.284-0.849,2.611-1.692,3.742l-0.104,0.14
		l-0.168,0.045c-0.439,0.116-0.912,0.169-1.532,0.169c-0.243,0-0.486-0.008-0.728-0.016c-0.229-0.007-0.455-0.015-0.68-0.015
		c-0.471,0-0.891-0.159-1.26-0.299c-0.395-0.149-0.757-0.28-1.082-0.202l-0.019,0.004l-0.003,0.003
		c-0.143,0.128-0.306,0.273-0.545,0.273l-0.355-0.042c-0.225-0.042-0.409-0.139-0.553-0.214l-0.203-0.092
		c-0.669,0.514-1.015,1.368-1.35,2.194c-0.355,1.11-0.759,2.199-1.252,3.373c-0.202,0.44-0.23,0.963-0.093,1.612
		c0.056,0.282,0.177,0.556,0.305,0.847c0.178,0.403,0.361,0.82,0.409,1.314l0.034,0.343c0.113,1.138,0.23,2.314,0.174,3.489
		c-0.038,0.511,0.157,0.997,0.364,1.513c0.071,0.179,0.143,0.356,0.205,0.536l0.038,0.101c0.119,0.318,0.232,0.619,0.441,0.729
		c1.688,0.872,2.536,2.582,3.284,4.09c0.162,0.326,0.321,0.648,0.488,0.96c0.088,0.175,0.271,0.304,0.483,0.453
		c0.305,0.214,0.684,0.48,0.859,0.961c0.051,0.145,0.116,0.283,0.182,0.424c0.218,0.468,0.488,1.051,0.274,1.704
		c-0.085,0.277-0.107,0.589-0.131,0.918c-0.021,0.281-0.042,0.562-0.098,0.839l-0.064,0.162c-0.41,0.667-1.164,0.704-1.715,0.731
		c-0.095,0.004-0.187,0.009-0.271,0.017l-0.061,0.005l-0.059-0.009l-0.121-0.006l-0.245,0.004c-0.197,0-0.723,0-1.001-0.469
		l-0.066-0.204c-0.045-0.436,0.085-0.819,0.2-1.158c0.042-0.125,0.085-0.249,0.116-0.375c0.147-0.474,0.103-0.972,0.055-1.499
		L75.25,91.35c-0.047-0.651-0.595-1.176-1.124-1.683c-0.393-0.328-0.795-0.693-1.197-1.058c-0.523-0.476-1.064-0.967-1.624-1.403
		l-0.28-0.236c-0.895-0.75-1.907-1.6-2.385-2.824c-0.477-1.035-0.847-2.16-1.215-3.315c-0.033-0.133-0.124-0.174-0.588-0.211
		c-0.137-0.012-0.27-0.022-0.387-0.044c-0.058,0.005-0.194-0.015-0.333-0.033c-0.142-0.019-0.287-0.038-0.426-0.038
		c-0.23,0-0.258,0.057-0.284,0.112c-0.681,1.174-1.365,2.531-1.423,3.965c0.028,0.133,0.155,0.367,0.289,0.615
		c0.099,0.183,0.197,0.366,0.271,0.556c0.433,0.913,0.581,1.924,0.726,2.901c0.17,1.153,0.33,2.243,0.951,3.157l0.098,0.256
		c0.216,0.802,0.438,1.632,0.464,2.505l0.013,0.446l-0.441,0.063c-0.326,0.047-0.654,0.081-0.981,0.116
		c-0.771,0.081-1.5,0.157-2.188,0.396C62.933,95.683,62.662,95.728,62.386,95.728z M61.522,94.472
		c0.392,0.252,0.912,0.325,1.334,0.178c0.797-0.277,1.618-0.363,2.412-0.447c0.16-0.017,0.321-0.033,0.481-0.052
		c-0.07-0.61-0.235-1.226-0.396-1.824l-0.007-0.025c-0.71-1.086-0.891-2.314-1.065-3.502c-0.14-0.947-0.271-1.841-0.653-2.649
		c-0.073-0.184-0.154-0.33-0.233-0.477c-0.162-0.3-0.346-0.639-0.405-1.04c0.062-1.744,0.811-3.239,1.534-4.484
		c0.131-0.275,0.457-0.645,1.168-0.645c0.181,0,0.37,0.022,0.554,0.047c0.11,0.014,0.217,0.028,0.315,0.033
		c0.154,0.022,0.254,0.029,0.356,0.038c0.444,0.035,1.272,0.102,1.471,0.941c0.361,1.131,0.707,2.18,1.172,3.191
		c0.396,1.014,1.267,1.743,2.107,2.449l0.269,0.226c0.573,0.447,1.129,0.952,1.666,1.439c0.392,0.355,0.784,0.712,1.191,1.053
		c0.629,0.601,1.38,1.32,1.455,2.355l0.03,0.359c0.054,0.602,0.11,1.225-0.089,1.857c-0.028,0.123-0.08,0.275-0.132,0.428
		c-0.062,0.185-0.119,0.353-0.144,0.509l0.064,0.001l0.245-0.004l0.203,0.009l0.26-0.015c0.409-0.021,0.718-0.047,0.867-0.199
		c0.033-0.2,0.047-0.402,0.061-0.605c0.027-0.371,0.055-0.754,0.175-1.148c0.089-0.27-0.027-0.55-0.228-0.981
		c-0.078-0.169-0.156-0.338-0.216-0.506c-0.062-0.173-0.229-0.296-0.493-0.481c-0.282-0.198-0.603-0.424-0.797-0.812
		c-0.165-0.308-0.329-0.64-0.495-0.975c-0.713-1.438-1.451-2.925-2.852-3.647c-0.55-0.29-0.752-0.831-0.915-1.266l-0.04-0.107
		c-0.063-0.179-0.129-0.343-0.195-0.508c-0.229-0.57-0.488-1.218-0.434-1.947c0.053-1.087-0.062-2.226-0.171-3.327l-0.035-0.346
		c-0.031-0.335-0.176-0.662-0.328-1.009c-0.144-0.326-0.293-0.664-0.369-1.048c-0.183-0.861-0.131-1.589,0.157-2.217
		c0.475-1.13,0.867-2.19,1.194-3.227l0.046-0.118c0.369-0.91,0.786-1.941,1.679-2.603c0.391-0.312,0.944-0.179,1.264-0.012
		c0.125,0.065,0.232,0.122,0.318,0.122l0.009-0.001c0.141-0.126,0.301-0.268,0.536-0.268h0.11c0.528-0.067,1.045,0.113,1.474,0.275
		c0.318,0.121,0.618,0.234,0.906,0.234c0.234,0,0.473,0.008,0.712,0.016c0.675,0.021,1.332,0.019,1.802-0.081
		c0.678-0.968,1.048-2.106,1.438-3.309c0.185-0.566,0.368-1.131,0.584-1.677c0.091-0.243,0.221-0.487,0.353-0.73
		c0.163-0.301,0.318-0.587,0.376-0.877c-0.142-0.282-0.509-0.488-0.864-0.688l-0.089-0.051c-0.143-0.088-0.347-0.106-0.583-0.127
		c-0.119-0.011-0.245-0.022-0.374-0.043c0.186,0.126,0.371,0.249,0.56,0.366l0.167,0.104l0.052,0.189
		c0.28,1.024,0.196,1.987-0.235,2.712l-0.181,0.325c-0.422,0.764-0.859,1.553-1.371,2.295l-0.06,0.082
		c-0.202,0.276-0.626,0.761-1.212,0.617c-0.808-0.121-1.629-0.36-2.424-0.592l-0.623-0.179c-0.49-0.136-0.924-0.36-1.343-0.577
		c-0.385-0.198-0.748-0.387-1.128-0.493c-0.318-0.041-0.634-0.312-0.757-0.696c-0.126-0.389-0.028-0.799,0.254-1.07l0.127-0.145
		c0.273-0.312,0.612-0.699,1.104-0.84l0.182-0.053l0.171,0.082l0.091,0.047c-0.034-0.25-0.009-0.522,0.137-0.808
		c0.192-0.617,0.386-1.337,0.099-1.892c-0.492-0.78-1.563-1.03-2.327-1.012c-0.361,0.122-0.578,0.395-0.849,0.735
		c-0.214,0.271-0.453,0.571-0.793,0.81c-0.014,0.092-0.024,0.201-0.034,0.308c-0.049,0.509-0.116,1.207-0.707,1.523l-0.102,0.055
		l-0.115,0.005H69.95c-0.469,0-0.769-0.267-0.968-0.443l-0.098-0.085c-0.252-0.234-0.487-0.446-0.723-0.658
		c-1.127-1.015-2.292-2.063-2.965-3.506c-0.354-0.785-0.828-1.507-1.414-2.151c-0.303-0.334-0.571-0.693-0.839-1.052
		c-0.249-0.335-0.498-0.67-0.779-0.98c-0.396-0.451-0.546-0.985-0.678-1.457c-0.081-0.291-0.158-0.566-0.281-0.796
		c-0.293-0.544-0.598-0.979-0.921-1.312c0.001,0.286,0.034,0.587,0.099,0.9c0.035,0.209,0.18,0.385,0.348,0.588
		c0.179,0.219,0.382,0.466,0.499,0.795c0.119,0.31,0.305,0.615,0.502,0.938c0.212,0.349,0.432,0.71,0.588,1.118
		c0.292,0.721,0.672,1.398,1.074,2.116c0.238,0.423,0.476,0.847,0.694,1.28c0.135,0.286,0.333,0.534,0.542,0.798
		c0.23,0.288,0.468,0.587,0.643,0.95c0.211,0.428,0.479,0.837,0.762,1.27c0.539,0.823,1.096,1.675,1.287,2.727
		c-0.001,0.658-0.197,1.149-0.387,1.624c-0.1,0.249-0.201,0.498-0.265,0.753c-0.238,0.81-0.595,1.545-0.94,2.257
		c-0.282,0.582-0.549,1.131-0.753,1.707c-0.138,0.371-0.275,0.734-0.414,1.099c-0.484,1.275-0.984,2.594-1.312,3.928
		c-0.175,0.501-0.345,0.95-0.515,1.398c-0.365,0.96-0.71,1.867-0.96,2.819c-0.247,1.685-0.426,3.413-0.52,5.084
		c-0.064,0.606,0.12,1.192,0.316,1.813c0.067,0.211,0.134,0.422,0.19,0.632c0.189,0.661,0.508,1.275,0.845,1.926
		c0.286,0.552,0.582,1.123,0.799,1.737c0.055,0.156,0.122,0.309,0.188,0.462c0.181,0.413,0.386,0.881,0.375,1.419l-0.014,0.107
		c-0.263,1.078-1.088,2.025-2.154,2.472C61.735,94.344,61.614,94.408,61.522,94.472z M74.298,63.278
		c-0.151,0.106-0.302,0.278-0.45,0.446l-0.165,0.186l0.033,0.005l0.027,0.1c0.478,0.135,0.903,0.354,1.315,0.568
		c0.392,0.202,0.761,0.393,1.152,0.502l0.634,0.182c0.764,0.223,1.554,0.452,2.338,0.572l0.212-0.229
		c0.527-0.76,0.952-1.527,1.362-2.27L80.946,63c0.35-0.588,0.284-1.302,0.182-1.766c-0.253-0.163-0.504-0.336-0.755-0.51
		c-0.883-0.609-1.718-1.186-2.702-1.357c-0.339-0.063-0.666-0.141-0.993-0.218c-0.353-0.083-0.704-0.166-1.06-0.229l0.128,0.188
		c0.484,0.932,0.23,1.915-0.045,2.767c-0.119,0.249-0.057,0.42,0.12,0.796c0.151,0.322,0.322,0.688,0.293,1.128l-0.048,0.706
		l-0.649-0.28c-0.376-0.162-0.628-0.435-0.85-0.675C74.475,63.45,74.386,63.354,74.298,63.278z M70.656,55.696
		c0.285,0.425,0.764,0.802,1.489,1.177c1.263,0.694,2.307,1.015,3.299,1.015c0.54,0.071,1.001,0.18,1.464,0.289
		c0.312,0.073,0.624,0.147,0.941,0.207c0.151,0.026,0.299,0.06,0.443,0.101c-0.229-0.198-0.444-0.415-0.643-0.654
		c-0.18-0.212-0.34-0.451-0.499-0.691c-0.248-0.375-0.482-0.73-0.813-0.949c-1.699-1.2-3.148-1.729-4.543-1.622
		c-0.292,0.005-0.555,0.131-0.771,0.355C70.814,55.142,70.682,55.424,70.656,55.696z M61.084,45.17
		c-0.374,0-0.736-0.171-0.994-0.469c-0.26-0.3-0.379-0.686-0.325-1.058c0.142-0.522,0.515-0.892,0.988-1.03
		c0.097-0.031,0.209-0.048,0.321-0.048c0.462,0.017,0.865,0.265,1.096,0.647c0.216,0.357,0.243,0.765,0.074,1.118
		c-0.212,0.369-0.52,0.645-0.863,0.792l-0.127,0.035L61.084,45.17z M61.08,43.566c-0.188,0.048-0.304,0.159-0.339,0.283l0.104,0.197
		l0.213,0.123c0.12-0.069,0.23-0.178,0.303-0.303l-0.046-0.135C61.26,43.64,61.159,43.569,61.08,43.566z"/>
	<path fill="#A5554A" d="M41.906,6.522c0.419-0.336,1.019-0.256,1.462-0.083c0.306,0.138,0.652,0.358,0.874,0.634
		c0.15,0.174,0.06,0.413,0.024,0.611c-0.075,0.294-0.193,0.477-0.188,0.983c-0.253,0.047-0.303,0.095-0.387,0.388
		c-0.042,0.228-0.176,0.488-0.355,0.53c-0.147-0.011-0.166-0.068-0.31-0.092c-0.18,0.198,0.084,0.419,0.192,0.581
		c0.306,0.336,0.276,0.815,0.401,1.228c0.037,0.083-0.161,0.146,0.815,1.264c0.27,0.497,0.719,0.845,1.114,1.228
		c0.449,0.419,0.737,0.971,1.156,1.42c0.186,0.204,0.324,0.521,0.635,0.545c0.33-0.006,0.443,0.314,0.772,0.35
		c0.684-0.117,1.475-0.949,2.026-1.704c0.249-1.639,2.6-3.962,3.876-2.377c1.08,1.722-1.704,3.211-3.301,3.135
		c-0.884,0.32-1.154,0.545-2.161,1.594c-0.282,0.03,0.06,0.328-0.721,0.655c-0.15-0.03-0.324-0.06-0.377-0.222
		c-0.084-0.222-0.342-0.228-0.503-0.365c-0.587-0.725-1.426-1.174-2.157-1.738c-0.425-0.264-0.581-0.773-0.911-1.126
		c-0.174-0.192-0.324-0.401-0.467-0.617c-0.829-1.259-0.736-0.51-0.916-0.846c-0.298-0.532-1.301-0.055-1.59,0.108
		c-0.413,0.12-0.945,0.384-1.317,0.654c-0.401,0.162-0.563,0.581-0.743,0.941c-0.066,0.138,0.114,0.21,0.198,0.282
		c0.761,0.419,1.426,1.001,2.205,1.39c0.216,0.126,0.503,0.204,0.605,0.455c0.264,0.569,0.192,1.228,0.425,1.809
		c0.156,0.365,0.306,0.737,0.353,1.132c0.042,0.359,0.282,0.647,0.318,1.007c0.102,0.803,0.593,1.564,1.342,1.899
		c0.509,0.264,1.072,0.389,1.636,0.467c0.407,0.06,0.407,0.725,0.024,0.821c-0.641,0.192-1.306,0.353-1.983,0.318
		c-0.659-0.03-1.366,0.168-1.983-0.132c-0.096-0.473,0.162-0.923,0.18-1.39c-0.216-1.276-1.342-2.163-1.576-3.439
		c-0.09-0.401,0.006-0.827-0.102-1.222c-0.521-0.3-1.138-0.353-1.726-0.443c-0.306-0.042-0.581-0.21-0.893-0.234
		c-0.192,0.192-0.186,0.491-0.24,0.743c-0.06,0.497-0.306,0.935-0.455,1.408c-0.108,0.383-0.413,0.689-0.443,1.096
		c-0.036,0.198-0.018,0.449-0.216,0.569c-0.312,0.204-0.689,0.27-1.054,0.246c-0.551-0.036-1.066,0.234-1.618,0.222
		c-0.893,0.018-1.809,0.03-2.642,0.389c-0.252,0.126-0.437,0.365-0.725,0.413c-0.569,0.12-1.066,0.431-1.564,0.719
		c-0.162,0.114-0.395,0.02-0.446-0.125c-0.204-0.573,0.554-1.037,1.052-1.492c0.204-0.18,0.377-0.389,0.533-0.611
		c0.264-0.377,0.617-0.677,0.947-1.001c0.234,0.18,0.407,0.419,0.629,0.611c0.156,0.144,0.383,0.09,0.557,0.012
		c0.635-0.276,1.252-0.605,1.935-0.761c0.324-0.084,0.659,0.006,0.989-0.03c0.294-0.479,0.144-1.072,0.108-1.6
		c-0.096-0.036-0.192-0.072-0.288-0.102c0.042-0.467,0.09-0.935,0.21-1.39c0.126-0.449-0.288-0.797-0.33-1.228
		c-0.078-0.521,0.12-1.025,0.306-1.498c0.222-0.479,0.485-0.959,0.869-1.336c0.509-0.659,1.084-1.27,1.684-1.851
		c0.395-0.252,0.713-0.629,1.18-0.749c0.503-0.162,0.989-0.377,1.498-0.527c0.371-0.09,0.647-0.383,0.911-0.647
		c0.138-0.33-0.048-0.713,0.138-1.037C41.559,7.079,41.67,6.775,41.906,6.522L41.906,6.522z"/>
	<path fill="#FFFFFF" d="M42.858,24.069c-0.249,0-0.62-0.02-0.977-0.193l-0.111-0.054l-0.025-0.121
		c-0.068-0.338,0.008-0.644,0.082-0.94c0.044-0.178,0.086-0.347,0.093-0.51c-0.097-0.543-0.415-1.052-0.751-1.59
		c-0.342-0.547-0.696-1.114-0.821-1.794c-0.047-0.208-0.047-0.422-0.048-0.629c-0.001-0.166-0.001-0.325-0.027-0.472
		c-0.388-0.195-0.833-0.259-1.304-0.327l-0.24-0.035c-0.163-0.022-0.312-0.074-0.458-0.124c-0.097-0.034-0.191-0.066-0.283-0.087
		c-0.04,0.088-0.057,0.203-0.075,0.323l-0.035,0.203c-0.04,0.335-0.167,0.656-0.29,0.966c-0.061,0.153-0.122,0.307-0.171,0.464
		c-0.051,0.181-0.139,0.343-0.224,0.5c-0.1,0.184-0.195,0.357-0.208,0.54l-0.019,0.14c-0.022,0.186-0.056,0.467-0.317,0.625
		c-0.322,0.21-0.756,0.31-1.2,0.281l-0.086-0.003c-0.222,0-0.445,0.052-0.681,0.106c-0.254,0.059-0.517,0.119-0.797,0.119
		l-0.084-0.25l0.005,0.25c-0.849,0.017-1.727,0.035-2.5,0.368l-0.216,0.146c-0.154,0.115-0.329,0.245-0.567,0.285
		c-0.467,0.098-0.892,0.346-1.342,0.608l-0.138,0.08c-0.071,0.051-0.177,0.084-0.289,0.084c-0.233,0-0.447-0.141-0.518-0.342
		c-0.225-0.63,0.359-1.119,0.828-1.511c0.101-0.084,0.2-0.167,0.29-0.25c0.172-0.152,0.334-0.338,0.498-0.571
		c0.219-0.313,0.492-0.573,0.755-0.823l0.376-0.365l0.172,0.133c0.146,0.112,0.266,0.24,0.382,0.364
		c0.083,0.088,0.167,0.177,0.258,0.257c0.042,0.037,0.145,0.038,0.291-0.027c0.15-0.065,0.297-0.132,0.444-0.199
		c0.487-0.222,0.991-0.452,1.539-0.577c0.171-0.045,0.402-0.047,0.641-0.035l0.247,0.008c0.125-0.292,0.086-0.643,0.046-1.012
		l-0.018-0.167l-0.126-0.042l-0.193-0.06l0.018-0.202c0.043-0.486,0.093-0.961,0.217-1.432c0.047-0.167-0.021-0.318-0.135-0.551
		c-0.084-0.171-0.18-0.366-0.202-0.589c-0.086-0.575,0.131-1.127,0.322-1.614c0.204-0.443,0.488-0.992,0.926-1.423
		c0.438-0.571,0.997-1.186,1.685-1.853c0.164-0.11,0.28-0.203,0.396-0.295c0.262-0.208,0.533-0.423,0.896-0.516
		c0.207-0.067,0.425-0.148,0.643-0.23c0.28-0.105,0.56-0.21,0.847-0.294c0.293-0.071,0.53-0.309,0.759-0.539l0.006-0.006
		c0.027-0.095,0.023-0.208,0.019-0.337c-0.007-0.211-0.016-0.451,0.119-0.686l0.122-0.232c0.111-0.221,0.227-0.45,0.422-0.659
		c0.265-0.215,0.561-0.312,0.908-0.312c0.333,0,0.634,0.09,0.829,0.167c0.246,0.111,0.682,0.343,0.978,0.71
		c0.201,0.233,0.137,0.527,0.094,0.721l-0.019,0.092c-0.024,0.098-0.048,0.171-0.072,0.244c-0.062,0.191-0.115,0.356-0.112,0.691
		l0.002,0.209l-0.206,0.039c-0.097,0.019-0.122,0.03-0.128,0.034C43.99,8.955,43.97,8.99,43.933,9.124
		c-0.053,0.29-0.244,0.637-0.54,0.705l-0.041,0.008l0.074,0.099c0.234,0.253,0.297,0.606,0.352,0.918
		c0.022,0.127,0.044,0.255,0.081,0.376l0.016,0.122c0,0.032,0.032,0.231,0.748,1.05c0.224,0.4,0.521,0.675,0.836,0.966l0.264,0.248
		c0.264,0.246,0.474,0.534,0.678,0.813c0.16,0.219,0.312,0.427,0.487,0.615l0.153,0.19c0.124,0.166,0.205,0.267,0.319,0.276h0.002
		c0.24,0,0.401,0.122,0.53,0.22l0.216,0.125c0.486-0.106,1.15-0.68,1.793-1.55c0.243-1.352,1.75-3.056,3.075-3.056
		c0.479,0,0.904,0.215,1.232,0.623c0.37,0.586,0.392,1.183,0.078,1.749c-0.607,1.099-2.318,1.836-3.534,1.794
		c-0.806,0.296-1.057,0.513-2.021,1.516l-0.098,0.069c-0.081,0.23-0.231,0.444-0.706,0.643l-0.071,0.03l-0.075-0.015
		c-0.182-0.036-0.467-0.093-0.565-0.387c-0.011-0.029-0.058-0.053-0.161-0.1l-0.267-0.155c-0.423-0.516-0.932-0.869-1.47-1.243
		c-0.229-0.159-0.458-0.318-0.678-0.487c-0.287-0.177-0.464-0.458-0.636-0.729c-0.099-0.156-0.192-0.304-0.304-0.425
		c-0.197-0.216-0.359-0.449-0.493-0.648c-0.387-0.588-0.525-0.658-0.539-0.664l-0.073,0.026c-0.193,0-0.286-0.172-0.316-0.229
		c-0.018-0.031-0.063-0.113-0.271-0.113c-0.324,0-0.766,0.202-0.976,0.32c-0.437,0.134-0.946,0.387-1.292,0.639
		c-0.32,0.137-0.458,0.421-0.604,0.722l-0.019,0.039l0.007,0.005l0.086,0.064c0.317,0.169,0.656,0.402,0.983,0.627
		c0.393,0.27,0.764,0.525,1.17,0.729l0.161,0.083c0.201,0.099,0.451,0.221,0.564,0.501c0.149,0.321,0.198,0.667,0.246,1.003
		c0.041,0.288,0.08,0.559,0.18,0.808c0.165,0.386,0.318,0.772,0.37,1.196c0.017,0.142,0.077,0.28,0.14,0.427
		c0.073,0.17,0.157,0.363,0.179,0.584c0.094,0.745,0.564,1.414,1.195,1.696c0.427,0.22,0.906,0.356,1.568,0.448
		c0.298,0.044,0.507,0.291,0.523,0.615c0.017,0.336-0.178,0.622-0.473,0.696c-0.626,0.188-1.328,0.364-2.057,0.325
		c-0.188-0.008-0.399,0.004-0.602,0.017C43.191,24.06,43.024,24.069,42.858,24.069z M42.22,23.477
		c0.28,0.102,0.687,0.097,1.107,0.073c0.222-0.014,0.44-0.028,0.658-0.017c0.672,0.035,1.304-0.129,1.9-0.308l0.106-0.189
		l-0.095-0.145c-0.445-0.062-1.109-0.18-1.714-0.493c-0.787-0.352-1.357-1.155-1.476-2.09c-0.015-0.15-0.076-0.292-0.141-0.443
		c-0.071-0.165-0.152-0.353-0.177-0.566c-0.043-0.357-0.183-0.707-0.335-1.063c-0.125-0.31-0.169-0.624-0.213-0.928
		c-0.044-0.313-0.087-0.61-0.209-0.875c-0.043-0.107-0.152-0.166-0.326-0.251l-0.178-0.093c-0.424-0.212-0.827-0.489-1.217-0.757
		c-0.317-0.218-0.646-0.444-0.983-0.63l-0.086-0.06c-0.239-0.165-0.312-0.349-0.217-0.548l0.062-0.126
		c0.172-0.355,0.368-0.759,0.813-0.938c0.341-0.257,0.901-0.535,1.34-0.662c0.06-0.042,0.652-0.363,1.168-0.363
		c0.372,0,0.571,0.164,0.677,0.321c0.212-0.011,0.446,0.134,0.939,0.882c0.122,0.183,0.271,0.396,0.443,0.586
		c0.143,0.153,0.253,0.327,0.359,0.496c0.148,0.234,0.288,0.456,0.498,0.586c0.234,0.179,0.456,0.333,0.678,0.487
		c0.543,0.377,1.105,0.767,1.542,1.306l0.115,0.046c0.143,0.064,0.339,0.151,0.428,0.388l0.117,0.048
		c0.305-0.139,0.336-0.245,0.36-0.324c0.022-0.074,0.071-0.235,0.259-0.297c0.197-0.205,0.368-0.379,0.521-0.529
		c-0.256,0.177-0.523,0.309-0.79,0.354l-0.035,0.006l-0.035-0.004c-0.226-0.025-0.375-0.138-0.495-0.229
		c-0.104-0.079-0.162-0.12-0.241-0.12c-0.375-0.028-0.568-0.287-0.71-0.476l-0.119-0.151c-0.195-0.208-0.362-0.438-0.524-0.659
		c-0.199-0.272-0.386-0.529-0.619-0.747l-0.258-0.242c-0.331-0.306-0.674-0.623-0.905-1.05c-0.768-0.87-0.841-1.142-0.84-1.335
		c-0.043-0.147-0.066-0.279-0.09-0.41c-0.049-0.28-0.092-0.522-0.251-0.698l-0.09-0.117c-0.117-0.145-0.39-0.485-0.102-0.801
		l0.091-0.101l0.134,0.022c0.099,0.017,0.161,0.044,0.206,0.065l0.029,0.012c0.044-0.042,0.115-0.159,0.143-0.315
		c0.088-0.313,0.184-0.457,0.388-0.536c0.017-0.297,0.077-0.486,0.132-0.655l0.059-0.197l0.019-0.093
		c0.031-0.143,0.05-0.247,0.01-0.294c-0.173-0.215-0.458-0.42-0.788-0.569c-0.142-0.056-0.379-0.127-0.634-0.127
		c-0.23,0-0.421,0.06-0.569,0.178c-0.12,0.131-0.214,0.319-0.314,0.518l-0.133,0.254c-0.064,0.113-0.06,0.255-0.053,0.421
		c0.006,0.181,0.014,0.385-0.072,0.589l-0.098,0.125c-0.265,0.266-0.565,0.567-0.984,0.669c-0.264,0.078-0.532,0.179-0.8,0.279
		c-0.226,0.084-0.451,0.169-0.68,0.242c-0.274,0.071-0.493,0.245-0.724,0.428c-0.13,0.103-0.26,0.206-0.399,0.294
		c-0.631,0.619-1.174,1.216-1.62,1.793c-0.402,0.399-0.659,0.896-0.839,1.288c-0.171,0.436-0.354,0.9-0.286,1.356
		c0.015,0.145,0.083,0.284,0.154,0.43c0.126,0.256,0.269,0.546,0.169,0.902c-0.097,0.369-0.146,0.754-0.184,1.15l0.088,0.033
		l0.151,0.057l0.031,0.168c0.007,0.101,0.018,0.205,0.03,0.31c0.05,0.459,0.106,0.98-0.174,1.438l-0.064,0.104l-0.122,0.013
		c-0.151,0.016-0.303,0.009-0.456,0.002c-0.184-0.01-0.368-0.012-0.496,0.021c-0.505,0.115-0.964,0.325-1.45,0.546
		c-0.149,0.068-0.299,0.136-0.449,0.202c-0.325,0.146-0.627,0.125-0.826-0.058c-0.099-0.085-0.194-0.186-0.29-0.287l-0.162-0.168
		l-0.059,0.057c-0.257,0.245-0.5,0.476-0.69,0.748c-0.187,0.266-0.375,0.48-0.573,0.656c-0.092,0.084-0.197,0.172-0.304,0.261
		c-0.459,0.385-0.777,0.679-0.678,0.96l0.009-0.006l0.077-0.001l0.136-0.08c0.464-0.271,0.945-0.551,1.501-0.667
		c0.129-0.022,0.237-0.102,0.361-0.194c0.097-0.072,0.195-0.144,0.304-0.198c0.876-0.378,1.804-0.397,2.701-0.415l0.089,0
		c0.224,0,0.448-0.052,0.685-0.106c0.289-0.066,0.595-0.135,0.912-0.115c0.343,0.027,0.663-0.049,0.902-0.206
		c0.056-0.034,0.07-0.121,0.086-0.261l0.02-0.144c0.018-0.264,0.149-0.504,0.264-0.716c0.076-0.138,0.147-0.27,0.185-0.403
		c0.056-0.176,0.121-0.341,0.186-0.505c0.117-0.293,0.227-0.571,0.262-0.865l0.033-0.195c0.033-0.219,0.074-0.491,0.278-0.695
		l0.081-0.082l0.115,0.009c0.199,0.016,0.373,0.076,0.542,0.134c0.128,0.044,0.249,0.086,0.366,0.102l0.24,0.035
		c0.533,0.077,1.084,0.156,1.576,0.439l0.089,0.051l0.027,0.1c0.065,0.239,0.066,0.475,0.067,0.703c0,0.188,0.001,0.366,0.038,0.531
		c0.109,0.596,0.422,1.098,0.754,1.629c0.347,0.556,0.707,1.131,0.824,1.823c-0.005,0.266-0.056,0.468-0.104,0.663
		C42.26,23.09,42.211,23.288,42.22,23.477z M52.977,11.75c-1.083,0-2.42,1.567-2.591,2.694l-0.045,0.11
		c-0.184,0.251-0.441,0.578-0.74,0.884c0.297-0.211,0.596-0.351,1.029-0.508l0.047-0.017l0.158,0.005
		c1.021,0,2.529-0.658,3.016-1.538c0.223-0.403,0.207-0.812-0.047-1.217C53.587,11.897,53.303,11.75,52.977,11.75z"/>
	<path fill="#A45449" d="M55.447,15.207c0.24-0.09,0.557-0.024,0.689,0.21c0.162,0.252,0.03,0.623-0.234,0.743
		c-0.24,0.09-0.563,0.084-0.731-0.138C54.955,15.746,55.147,15.327,55.447,15.207z"/>
	<path fill="#FFFFFF" d="M55.606,16.464c-0.268,0-0.492-0.103-0.635-0.291c-0.134-0.17-0.177-0.4-0.115-0.626
		c0.069-0.258,0.261-0.477,0.498-0.572c0.378-0.14,0.821,0.005,0.999,0.32c0.104,0.161,0.133,0.384,0.07,0.597
		c-0.065,0.221-0.222,0.406-0.418,0.496C55.867,16.44,55.734,16.464,55.606,16.464z M55.665,15.418l-0.13,0.022
		c-0.087,0.035-0.168,0.13-0.196,0.236l0.029,0.191c0.114,0.151,0.306,0.11,0.446,0.057l0.13-0.175l-0.019-0.198
		C55.867,15.45,55.754,15.418,55.665,15.418z"/>
</g>
</svg>
