<?xml version="1.0" encoding="utf-8"?>
<!-- Generator: Adobe Illustrator 17.0.0, SVG Export Plug-In . SVG Version: 6.00 Build 0)  -->
<!DOCTYPE svg PUBLIC "-//W3C//DTD SVG 1.1//EN" "http://www.w3.org/Graphics/SVG/1.1/DTD/svg11.dtd">
<svg version="1.1" id="Layer_1" xmlns="http://www.w3.org/2000/svg" xmlns:xlink="http://www.w3.org/1999/xlink" x="0px" y="0px"
	 width="100px" height="100px" viewBox="0 0 100 100" enable-background="new 0 0 100 100" xml:space="preserve">
<g id="Captions">
	<rect x="-192" width="185" height="99"/>
	<rect y="-36" width="100" height="30"/>
	<text transform="matrix(1 0 0 1 66 -19.5)" font-family="'Helvetica'" font-size="2.4">http://thenounproject.com</text>
	<text transform="matrix(1 0 0 1 7.166 -24.5)" font-family="'Helvetica-Bold'" font-size="6.1578">The Noun Project</text>
	<text transform="matrix(1 0 0 1 8.286 -19.7)" font-family="'Helvetica-Bold'" font-size="4">Icon Template</text>
	<text transform="matrix(1 0 0 1 -178.5 10.5)" font-family="'Helvetica-Bold'" font-size="6.1578">Reminders</text>
	<line fill="none" stroke="#FFFFFF" stroke-miterlimit="10" x1="8" y1="-14.5" x2="18" y2="-14.5"/>
	<line fill="none" stroke="#FFFFFF" stroke-miterlimit="10" x1="-179" y1="16.5" x2="-162" y2="16.5"/>
	<g>
		<g>
			<g>
				<rect x="-170.802" y="31.318" width="8.721" height="8.642"/>
				<path d="M-164.455,42.312h4.747v-4.703h-4.747V42.312z M-159.266,42.749h-5.63V37.17h5.63V42.749L-159.266,42.749z
					 M-166.221,44.062h8.279v-8.203h-8.279V44.062L-166.221,44.062z M-157.5,44.5h-9.163v-9.079h9.163V44.5L-157.5,44.5z"/>
				<polygon points="-166.149,44.133 -166.292,43.991 -158.013,35.787 -157.871,35.929 				"/>
			</g>
		</g>
	</g>
	<rect x="-179" y="58" fill="none" width="35" height="32.5"/>
	<text transform="matrix(1 0 0 1 -179 60.1299)" font-family="'Helvetica-Bold'" font-size="3">Strokes</text>
	<text transform="matrix(1 0 0 1 -179 65.1299)" font-family="'Helvetica'" font-size="2.4">Try to keep strokes at 4px</text>
	<text transform="matrix(1 0 0 1 -179 70.1299)" font-family="'Helvetica'" font-size="2.4">Minimum stroke weight is 2px</text>
	<text transform="matrix(1 0 0 1 -179 74.6299)" font-family="'Helvetica'" font-size="2.4">For thicker strokes use even </text>
	<text transform="matrix(1 0 0 1 -179 77.6299)" font-family="'Helvetica'" font-size="2.4">numbers: 6px, 8px etc.</text>
	<text transform="matrix(1 0 0 1 -179 82.1299)" font-family="'Helvetica-Bold'" font-size="2.4">Remember to expand strokes </text>
	<text transform="matrix(1 0 0 1 -179 85.1299)" font-family="'Helvetica-Bold'" font-size="2.4">before saving as an SVG </text>
	<rect x="-136.5" y="58" fill="none" width="35" height="32.5"/>
	<text transform="matrix(1 0 0 1 -136.5 60.1299)" font-family="'Helvetica-Bold'" font-size="3">Size</text>
	<text transform="matrix(1 0 0 1 -136.5 65.1299)" font-family="'Helvetica'" font-size="2.4">Cannot be wider or taller than </text>
	<text transform="matrix(1 0 0 1 -136.5 68.6299)" font-family="'Helvetica'" font-size="2.4">100px (artboard size)</text>
	<text transform="matrix(1 0 0 1 -136.5 73.6299)" font-family="'Helvetica'" font-size="2.4">Scale your icon to fill as much of </text>
	<text transform="matrix(1 0 0 1 -136.5 76.6299)" font-family="'Helvetica'" font-size="2.4">the artboard as possible</text>
	<rect x="-94" y="58" fill="none" width="35" height="32.5"/>
	<text transform="matrix(1 0 0 1 -94 60.1299)" font-family="'Helvetica-Bold'" font-size="3">Ungroup</text>
	<text transform="matrix(1 0 0 1 -94 65.1299)" font-family="'Helvetica'" font-size="2.4">If your design has more than one </text>
	<text transform="matrix(1 0 0 1 -94 68.1299)" font-family="'Helvetica'" font-size="2.4">shape, make sure to ungroup</text>
	<rect x="-50" y="58" fill="none" width="35" height="32.5"/>
	<text transform="matrix(1 0 0 1 -50 60.1299)" font-family="'Helvetica-Bold'" font-size="3">Save as</text>
	<text transform="matrix(1 0 0 1 -50 65.1299)" font-family="'Helvetica'" font-size="2.4">Save as .SVG and make sure “Use </text>
	<text transform="matrix(1 0 0 1 -50 68.1299)" font-family="'Helvetica'" font-size="2.4">Artboards” is checked</text>
	<text transform="matrix(1.0074 0 0 1 -125.542 30.5933)" font-family="'Helvetica'" font-size="2.5731">100px</text>
	<text transform="matrix(1.0074 0 0 1 -41 39)" font-family="'Helvetica-Bold'" font-size="5.1462">.SVG</text>
	<rect x="-126.514" y="34.815" width="10.261" height="10.185"/>
	<rect x="-126.477" y="31.766" width="0.522" height="2.337"/>
	<rect x="-116.813" y="31.766" width="0.523" height="2.337"/>
	<rect x="-127" y="32.337" width="11.233" height="0.572"/>
	<g>
		<rect x="-83.805" y="33.844" width="10.305" height="10.156"/>
		<rect x="-76.809" y="28.707" width="3.308" height="3.261"/>
	</g>
	<rect x="-178.5" y="22.5" stroke="#FFFFFF" stroke-miterlimit="10" width="30" height="30"/>
	<rect x="-136.5" y="22.5" stroke="#FFFFFF" stroke-miterlimit="10" width="30" height="30"/>
	<rect x="-93.5" y="22.5" stroke="#FFFFFF" stroke-miterlimit="10" width="30" height="30"/>
	<rect x="-49.5" y="22.5" stroke="#FFFFFF" stroke-miterlimit="10" width="30" height="30"/>
</g>
<g id="Your_Icon">
	<rect x="97.346" y="29.377" fill="#A45449" width="2" height="28.449"/>
	<path fill="#A45449" d="M4,32v24h92V32H4z M93,37H74v-2h19V37z M51,37v-2h20v2H51z M71,40v2H51v-2H71z M48,37H29v-2h19V37z M48,40
		v2H29v-2H48z M26,42H7v-2h19V42z M26,45v2H7v-2H26z M29,45h19v2H29V45z M48,50v3H29v-3H48z M51,50h20v3H51V50z M51,47v-2h20v2H51z
		 M74,45h19v2H74V45z M74,42v-2h19v2H74z M26,35v2H7v-2H26z M7,50h19v3H7V50z M74,53v-3h19v3H74z"/>
	<rect x="0.654" y="29.377" fill="#A45449" width="2" height="28.449"/>
	<path fill="#A45449" d="M75.175,33.508L72,14.064c0,0,0-0.111,0-0.112L72.016,13h-0.853H28.838h-0.853L17.22,80.454l-0.818,5.255
		L16.217,87h1.172H82.61h1.173L75.175,33.508z M29.691,15H70.31l3.068,19.385L78.094,64H21.882L29.691,15z M18.562,85l0.881-5.689
		L21.563,66h56.849l3.025,19H18.562z"/>
</g>
<line fill="none" stroke="#A45449" stroke-width="2" stroke-miterlimit="10" x1="49.833" y1="64.833" x2="49.833" y2="86.167"/>
<line fill="none" stroke="#A45449" stroke-miterlimit="10" x1="49.5" y1="13.833" x2="49.5" y2="24.167"/>
<line fill="none" stroke="#A45449" stroke-miterlimit="10" x1="27.167" y1="24.167" x2="72.5" y2="24.167"/>
</svg>
