<?xml version="1.0" encoding="utf-8"?>
<!-- Generator: Adobe Illustrator 17.0.0, SVG Export Plug-In . SVG Version: 6.00 Build 0)  -->
<!DOCTYPE svg PUBLIC "-//W3C//DTD SVG 1.1//EN" "http://www.w3.org/Graphics/SVG/1.1/DTD/svg11.dtd">
<svg version="1.1" id="Layer_1" xmlns="http://www.w3.org/2000/svg" xmlns:xlink="http://www.w3.org/1999/xlink" x="0px" y="0px"
	 width="100px" height="100px" viewBox="0 0 100 100" enable-background="new 0 0 100 100" xml:space="preserve">
<g id="Captions">
	<rect x="-192" width="185" height="99"/>
	<rect y="-36" width="100" height="30"/>
	<text transform="matrix(1 0 0 1 66 -19.5)" font-family="'Helvetica'" font-size="2.4">http://thenounproject.com</text>
	<text transform="matrix(1 0 0 1 7.166 -24.5)" font-family="'Helvetica-Bold'" font-size="6.1578">The Noun Project</text>
	<text transform="matrix(1 0 0 1 8.286 -19.7)" font-family="'Helvetica-Bold'" font-size="4">Icon Template</text>
	<text transform="matrix(1 0 0 1 -178.5 10.5)" font-family="'Helvetica-Bold'" font-size="6.1578">Reminders</text>
	<line fill="none" stroke="#FFFFFF" stroke-miterlimit="10" x1="8" y1="-14.5" x2="18" y2="-14.5"/>
	<line fill="none" stroke="#FFFFFF" stroke-miterlimit="10" x1="-179" y1="16.5" x2="-162" y2="16.5"/>
	<g>
		<g>
			<g>
				<rect x="-170.802" y="31.318" width="8.721" height="8.642"/>
				<path d="M-164.455,42.312h4.747v-4.703h-4.747V42.312z M-159.266,42.749h-5.63V37.17h5.63V42.749L-159.266,42.749z
					 M-166.221,44.062h8.279v-8.203h-8.279V44.062L-166.221,44.062z M-157.5,44.5h-9.163v-9.079h9.163V44.5L-157.5,44.5z"/>
				<polygon points="-166.149,44.133 -166.292,43.991 -158.013,35.787 -157.871,35.929 				"/>
			</g>
		</g>
	</g>
	<rect x="-179" y="58" fill="none" width="35" height="32.5"/>
	<text transform="matrix(1 0 0 1 -179 60.1299)" font-family="'Helvetica-Bold'" font-size="3">Strokes</text>
	<text transform="matrix(1 0 0 1 -179 65.1299)" font-family="'Helvetica'" font-size="2.4">Try to keep strokes at 4px</text>
	<text transform="matrix(1 0 0 1 -179 70.1299)" font-family="'Helvetica'" font-size="2.4">Minimum stroke weight is 2px</text>
	<text transform="matrix(1 0 0 1 -179 74.6299)" font-family="'Helvetica'" font-size="2.4">For thicker strokes use even </text>
	<text transform="matrix(1 0 0 1 -179 77.6299)" font-family="'Helvetica'" font-size="2.4">numbers: 6px, 8px etc.</text>
	<text transform="matrix(1 0 0 1 -179 82.1299)" font-family="'Helvetica-Bold'" font-size="2.4">Remember to expand strokes </text>
	<text transform="matrix(1 0 0 1 -179 85.1299)" font-family="'Helvetica-Bold'" font-size="2.4">before saving as an SVG </text>
	<rect x="-136.5" y="58" fill="none" width="35" height="32.5"/>
	<text transform="matrix(1 0 0 1 -136.5 60.1299)" font-family="'Helvetica-Bold'" font-size="3">Size</text>
	<text transform="matrix(1 0 0 1 -136.5 65.1299)" font-family="'Helvetica'" font-size="2.4">Cannot be wider or taller than </text>
	<text transform="matrix(1 0 0 1 -136.5 68.6299)" font-family="'Helvetica'" font-size="2.4">100px (artboard size)</text>
	<text transform="matrix(1 0 0 1 -136.5 73.6299)" font-family="'Helvetica'" font-size="2.4">Scale your icon to fill as much of </text>
	<text transform="matrix(1 0 0 1 -136.5 76.6299)" font-family="'Helvetica'" font-size="2.4">the artboard as possible</text>
	<rect x="-94" y="58" fill="none" width="35" height="32.5"/>
	<text transform="matrix(1 0 0 1 -94 60.1299)" font-family="'Helvetica-Bold'" font-size="3">Ungroup</text>
	<text transform="matrix(1 0 0 1 -94 65.1299)" font-family="'Helvetica'" font-size="2.4">If your design has more than one </text>
	<text transform="matrix(1 0 0 1 -94 68.1299)" font-family="'Helvetica'" font-size="2.4">shape, make sure to ungroup</text>
	<rect x="-50" y="58" fill="none" width="35" height="32.5"/>
	<text transform="matrix(1 0 0 1 -50 60.1299)" font-family="'Helvetica-Bold'" font-size="3">Save as</text>
	<text transform="matrix(1 0 0 1 -50 65.1299)" font-family="'Helvetica'" font-size="2.4">Save as .SVG and make sure “Use </text>
	<text transform="matrix(1 0 0 1 -50 68.1299)" font-family="'Helvetica'" font-size="2.4">Artboards” is checked</text>
	<text transform="matrix(1.0074 0 0 1 -125.542 30.5933)" font-family="'Helvetica'" font-size="2.5731">100px</text>
	<text transform="matrix(1.0074 0 0 1 -41 39)" font-family="'Helvetica-Bold'" font-size="5.1462">.SVG</text>
	<rect x="-126.514" y="34.815" width="10.261" height="10.185"/>
	<rect x="-126.477" y="31.766" width="0.522" height="2.337"/>
	<rect x="-116.813" y="31.766" width="0.523" height="2.337"/>
	<rect x="-127" y="32.337" width="11.233" height="0.572"/>
	<g>
		<rect x="-83.805" y="33.844" width="10.305" height="10.156"/>
		<rect x="-76.809" y="28.707" width="3.308" height="3.261"/>
	</g>
	<rect x="-178.5" y="22.5" stroke="#FFFFFF" stroke-miterlimit="10" width="30" height="30"/>
	<rect x="-136.5" y="22.5" stroke="#FFFFFF" stroke-miterlimit="10" width="30" height="30"/>
	<rect x="-93.5" y="22.5" stroke="#FFFFFF" stroke-miterlimit="10" width="30" height="30"/>
	<rect x="-49.5" y="22.5" stroke="#FFFFFF" stroke-miterlimit="10" width="30" height="30"/>
</g>
<g id="Your_Icon">
	<rect x="97.346" y="29.377" fill="#576072" width="2" height="28.449"/>
	<path fill="#576072" d="M4,32v24h92V32H4z M93,37H74v-2h19V37z M51,37v-2h20v2H51z M71,40v2H51v-2H71z M48,37H29v-2h19V37z M48,40
		v2H29v-2H48z M26,42H7v-2h19V42z M26,45v2H7v-2H26z M29,45h19v2H29V45z M48,50v3H29v-3H48z M51,50h20v3H51V50z M51,47v-2h20v2H51z
		 M74,45h19v2H74V45z M74,42v-2h19v2H74z M26,35v2H7v-2H26z M7,50h19v3H7V50z M74,53v-3h19v3H74z"/>
	<rect x="0.654" y="29.377" fill="#576072" width="2" height="28.449"/>
	<path fill="#576072" d="M75.175,33.508L72,14.064c0,0,0-0.111,0-0.112L72.016,13h-0.853H28.838h-0.853L17.22,80.454l-0.818,5.255
		L16.217,87h1.172H82.61h1.173L75.175,33.508z M29.691,15H70.31l3.068,19.385L78.094,64H21.882L29.691,15z M18.562,85l0.881-5.689
		L21.563,66h56.849l3.025,19H18.562z"/>
</g>
<line fill="none" stroke="#576072" stroke-width="2" stroke-miterlimit="10" x1="49.833" y1="64.833" x2="49.833" y2="86.167"/>
<line fill="none" stroke="#576072" stroke-miterlimit="10" x1="49.5" y1="13.833" x2="49.5" y2="24.167"/>
<line fill="none" stroke="#576072" stroke-miterlimit="10" x1="27.167" y1="24.167" x2="72.5" y2="24.167"/>
<path id="path4_1_" inkscape:connector-curvature="0" fill="#576072" stroke="#FFFFFF" stroke-miterlimit="10" d="M61.099,43.066
	c-0.069-0.003-0.138,0.006-0.207,0.027c-0.292,0.085-0.548,0.316-0.633,0.621c-0.073,0.511,0.402,1.022,0.925,0.949
	c0.256-0.11,0.475-0.316,0.608-0.548C62.017,43.647,61.579,43.085,61.099,43.066L61.099,43.066z M59.895,48.642
	c-0.158,0.633-0.134,1.302,0,1.947c0.097,0.584,0.669,0.9,0.864,1.448c0.28,0.73,0.815,1.338,1.095,2.068
	c0.487,1.205,1.205,2.287,1.789,3.443c0.304,0.645,0.876,1.107,1.18,1.74c0.645,1.302,1.74,2.397,2.008,3.869
	c-0.012,0.754-0.462,1.436-0.645,2.166c-0.402,1.363-1.205,2.579-1.679,3.918c-0.621,1.679-1.314,3.334-1.74,5.074
	c-0.499,1.411-1.095,2.774-1.472,4.21c-0.256,1.716-0.438,3.443-0.535,5.183c-0.097,0.9,0.292,1.752,0.523,2.604
	c0.377,1.314,1.205,2.421,1.655,3.699c0.195,0.56,0.548,1.095,0.535,1.703c-0.231,0.949-0.961,1.752-1.862,2.129
	c-0.292,0.158-0.742,0.377-0.706,0.767c0.535,0.548,1.387,0.767,2.117,0.511c1.046-0.365,2.166-0.377,3.261-0.535
	c-0.024-0.852-0.256-1.679-0.475-2.494c-1.241-1.825-0.803-4.198-1.728-6.157c-0.183-0.462-0.523-0.876-0.596-1.375
	c0.061-1.497,0.73-2.884,1.472-4.161c0.292-0.608,1.046-0.341,1.582-0.316c0.475,0.085,1.217-0.024,1.363,0.596
	c0.353,1.107,0.718,2.227,1.205,3.285c0.475,1.217,1.545,2.032,2.506,2.847c0.998,0.779,1.886,1.679,2.859,2.494
	c0.572,0.548,1.217,1.168,1.278,2.008c0.049,0.681,0.17,1.375-0.037,2.032c-0.11,0.45-0.353,0.888-0.304,1.363
	c0.195,0.329,0.681,0.183,1.01,0.231c0.535-0.049,1.278,0.024,1.606-0.511c0.122-0.596,0.061-1.217,0.243-1.813
	c0.207-0.633-0.243-1.217-0.45-1.801c-0.231-0.633-1.022-0.767-1.314-1.351c-0.937-1.752-1.679-3.869-3.565-4.843
	c-0.414-0.219-0.56-0.694-0.718-1.107c-0.256-0.73-0.657-1.436-0.596-2.239c0.061-1.253-0.085-2.519-0.207-3.76
	c-0.073-0.754-0.56-1.375-0.706-2.105c-0.134-0.633-0.158-1.302,0.122-1.91c0.45-1.071,0.864-2.166,1.217-3.285
	c0.365-0.9,0.742-1.874,1.545-2.47c0.475-0.377,0.803,0.277,1.375,0.204c0.061,0.146,0.426-0.374,0.487-0.24
	c0.864-0.207,1.594,0.487,2.458,0.487c0.925,0,1.898,0.122,2.811-0.122c1.144-1.533,1.497-3.492,2.19-5.244
	c0.231-0.621,0.706-1.168,0.779-1.849c-0.17-0.548-0.73-0.84-1.205-1.107c-0.475-0.292-1.083-0.11-1.57-0.377
	c-1.059-0.499-2.129-1.071-2.884-1.983c-0.487-0.572-0.779-1.314-1.424-1.74c-1.411-0.998-3.078-1.837-4.855-1.703
	c-0.888,0.012-1.63,0.9-1.606,1.764c0.389,0.669,1.083,1.132,1.764,1.484c1.083,0.596,2.275,1.071,3.529,1.071
	c0.779,0.11,1.533,0.341,2.312,0.487c1.46,0.256,2.592,1.29,3.808,2.044c0.207,0.754,0.231,1.63-0.183,2.324
	c-0.487,0.876-0.961,1.764-1.533,2.592c-0.183,0.243-0.389,0.584-0.742,0.499c-1.034-0.158-2.032-0.487-3.03-0.767
	c-0.876-0.243-1.606-0.827-2.47-1.071c-0.426-0.061-0.596-0.633-0.292-0.925c0.292-0.316,0.596-0.742,1.022-0.864
	c0.487,0.231,0.742,0.827,1.278,1.059c0.049-0.73-0.754-1.326-0.389-2.044c0.243-0.754,0.475-1.618,0.097-2.348
	c-0.596-0.949-1.801-1.338-2.859-1.278c-0.973,0.28-1.168,1.265-1.995,1.728c-0.158,0.487-0.012,1.424-0.535,1.703
	c-0.304,0.012-0.523-0.243-0.73-0.414c-1.302-1.217-2.786-2.348-3.553-3.991c-0.377-0.84-0.888-1.606-1.497-2.275
	c-0.584-0.645-1.034-1.387-1.618-2.032c-0.535-0.608-0.523-1.472-0.888-2.154C61.221,49.871,60.661,49.092,59.895,48.642
	L59.895,48.642z"/>
<path id="path4" sodipodi:nodetypes="ccccccccccccccccccccccccccccccccccccccccccccccccccccccaccccccccccccccccccc" inkscape:connector-curvature="0" fill="#576072" stroke="#FFFFFF" stroke-width="0.5" stroke-miterlimit="10" d="
	M41.906,6.522c0.419-0.336,1.019-0.256,1.462-0.083c0.306,0.138,0.652,0.358,0.874,0.634c0.15,0.174,0.06,0.413,0.024,0.611
	c-0.075,0.294-0.193,0.477-0.188,0.983c-0.253,0.047-0.303,0.095-0.387,0.388c-0.042,0.228-0.176,0.488-0.355,0.53
	c-0.147-0.011-0.166-0.068-0.31-0.092c-0.18,0.198,0.084,0.419,0.192,0.581c0.306,0.336,0.276,0.815,0.401,1.228
	c0.037,0.083-0.161,0.146,0.815,1.264c0.27,0.497,0.719,0.845,1.114,1.228c0.449,0.419,0.737,0.971,1.156,1.42
	c0.186,0.204,0.324,0.521,0.635,0.545c0.33-0.006,0.443,0.314,0.772,0.35c0.684-0.117,1.475-0.949,2.026-1.704
	c0.249-1.639,2.6-3.962,3.876-2.377c1.08,1.722-1.704,3.211-3.301,3.135c-0.884,0.32-1.154,0.545-2.161,1.594
	c-0.282,0.03,0.06,0.328-0.721,0.655c-0.15-0.03-0.324-0.06-0.377-0.222c-0.084-0.222-0.342-0.228-0.503-0.365
	c-0.587-0.725-1.426-1.174-2.157-1.738c-0.425-0.264-0.581-0.773-0.911-1.126c-0.174-0.192-0.324-0.401-0.467-0.617
	c-0.829-1.259-0.736-0.51-0.916-0.846c-0.298-0.532-1.301-0.055-1.59,0.108c-0.413,0.12-0.945,0.384-1.317,0.654
	c-0.401,0.162-0.563,0.581-0.743,0.941c-0.066,0.138,0.114,0.21,0.198,0.282c0.761,0.419,1.426,1.001,2.205,1.39
	c0.216,0.126,0.503,0.204,0.605,0.455c0.264,0.569,0.192,1.228,0.425,1.809c0.156,0.365,0.306,0.737,0.353,1.132
	c0.042,0.359,0.282,0.647,0.318,1.007c0.102,0.803,0.593,1.564,1.342,1.899c0.509,0.264,1.072,0.389,1.636,0.467
	c0.407,0.06,0.407,0.725,0.024,0.821c-0.641,0.192-1.306,0.353-1.983,0.318c-0.659-0.03-1.366,0.168-1.983-0.132
	c-0.096-0.473,0.162-0.923,0.18-1.39c-0.216-1.276-1.342-2.163-1.576-3.439c-0.09-0.401,0.006-0.827-0.102-1.222
	c-0.521-0.3-1.138-0.353-1.726-0.443c-0.306-0.042-0.581-0.21-0.893-0.234c-0.192,0.192-0.186,0.491-0.24,0.743
	c-0.06,0.497-0.306,0.935-0.455,1.408c-0.108,0.383-0.413,0.689-0.443,1.096c-0.036,0.198-0.018,0.449-0.216,0.569
	c-0.312,0.204-0.689,0.27-1.054,0.246c-0.551-0.036-1.066,0.234-1.618,0.222c-0.893,0.018-1.809,0.03-2.642,0.389
	c-0.252,0.126-0.437,0.365-0.725,0.413c-0.569,0.12-1.066,0.431-1.564,0.719c-0.162,0.114-0.395,0.02-0.446-0.125
	c-0.204-0.573,0.554-1.037,1.052-1.492c0.204-0.18,0.377-0.389,0.533-0.611c0.264-0.377,0.617-0.677,0.947-1.001
	c0.234,0.18,0.407,0.419,0.629,0.611c0.156,0.144,0.383,0.09,0.557,0.012c0.635-0.276,1.252-0.605,1.935-0.761
	c0.324-0.084,0.659,0.006,0.989-0.03c0.294-0.479,0.144-1.072,0.108-1.6c-0.096-0.036-0.192-0.072-0.288-0.102
	c0.042-0.467,0.09-0.935,0.21-1.39c0.126-0.449-0.288-0.797-0.33-1.228c-0.078-0.521,0.12-1.025,0.306-1.498
	c0.222-0.479,0.485-0.959,0.869-1.336c0.509-0.659,1.084-1.27,1.684-1.851c0.395-0.252,0.713-0.629,1.18-0.749
	c0.503-0.162,0.989-0.377,1.498-0.527c0.371-0.09,0.647-0.383,0.911-0.647c0.138-0.33-0.048-0.713,0.138-1.037
	C41.559,7.079,41.67,6.775,41.906,6.522L41.906,6.522z"/>
<path id="path6" inkscape:connector-curvature="0" fill="#A45449" stroke="#FFFFFF" stroke-width="0.5" stroke-miterlimit="10" d="
	M55.447,15.207c0.24-0.09,0.557-0.024,0.689,0.21c0.162,0.252,0.03,0.623-0.234,0.743c-0.24,0.09-0.563,0.084-0.731-0.138
	C54.955,15.746,55.147,15.327,55.447,15.207z"/>
</svg>
