<?xml version="1.0" encoding="utf-8"?>
<!-- Generator: Adobe Illustrator 17.0.0, SVG Export Plug-In . SVG Version: 6.00 Build 0)  -->
<!DOCTYPE svg PUBLIC "-//W3C//DTD SVG 1.1//EN" "http://www.w3.org/Graphics/SVG/1.1/DTD/svg11.dtd">
<svg version="1.1" id="Layer_1" xmlns="http://www.w3.org/2000/svg" xmlns:xlink="http://www.w3.org/1999/xlink" x="0px" y="0px"
	 width="85px" height="85px" viewBox="0 0 85 85" enable-background="new 0 0 85 85" xml:space="preserve">
<path id="Blue_1_" fill="#3C5A99" d="M150.26,69.26c1.575,0,2.853-1.278,2.853-2.853V20.418c0-1.576-1.277-2.853-2.853-2.853
	h-45.989c-1.576,0-2.853,1.277-2.853,2.853v45.989c0,1.576,1.277,2.853,2.853,2.853H150.26z"/>
<path id="f" fill="#FFFFFF" d="M137.086,69.26V49.241h6.719l1.006-7.802h-7.726v-4.981c0-2.259,0.627-3.798,3.866-3.798l4.131-0.002
	V25.68c-0.714-0.095-3.167-0.308-6.02-0.308c-5.956,0-10.034,3.636-10.034,10.313v5.754h-6.737v7.802h6.737V69.26H137.086z"/>
<g>
	<path fill="#565656" d="M-43.993,72.107c-25.521-5.869-26.841-47.456-26.901-52.96c6.188-2.152,16.959-3.479,28.37-3.479
		c11.096,0,20.499,1.275,25.373,3.424C-17.204,24.365-18.445,66.164-43.993,72.107z"/>
	<path fill="#231F20" d="M-42.525,16.536c10.597,0,19.602,1.16,24.498,3.129c-0.135,7.068-1.982,45.762-25.966,51.55
		C-67.9,65.513-69.862,27.106-70.017,19.768C-63.837,17.764-53.489,16.536-42.525,16.536 M-42.525,14.801
		c-11.178,0-22.734,1.308-29.24,3.738c0,0-0.636,48.082,27.711,54.445v0.028c28.408-6.31,27.772-54.472,27.772-54.472
		C-21.531,15.993-31.856,14.801-42.525,14.801L-42.525,14.801z"/>
</g>
<polygon fill="#ADADAD" stroke="#231F20" stroke-width="0.7824" stroke-linecap="square" stroke-linejoin="round" stroke-miterlimit="10" points="
	-19.536,71.095 -30.088,67.417 -27.721,60.625 -17.169,64.303 -21.276,66.549 "/>
<line fill="none" stroke="#231F20" stroke-width="0.7824" stroke-linecap="round" stroke-linejoin="round" stroke-miterlimit="10" x1="-29.864" y1="67.305" x2="-24.534" y2="64.469"/>
<g>
	<g>
		<g opacity="0.1">
			<path fill="#CCCCCC" d="M-15.603,17.022c0,0-3.545,1.218-8.848,2.396c-5.295,1.142-12.351,2.101-19.398,2.129
				c-7.047-0.028-14.103-0.987-19.398-2.129c-5.303-1.178-8.849-2.397-8.849-2.397s3.516,1.13,8.805,2.198
				c5.297,1.104,12.365,2.017,19.441,1.989c7.076,0.028,14.144-0.884,19.441-1.989C-19.12,18.152-15.603,17.022-15.603,17.022z"/>
			<path fill="#CCCCCC" d="M-16.352,19.737c0,0-3.45,1.105-8.612,2.174c-5.155,1.033-12.024,1.902-18.885,1.93
				c-6.861-0.028-13.73-0.897-18.885-1.93c-5.162-1.07-8.612-2.175-8.612-2.175s3.424,1.017,8.573,1.976
				c5.157,0.996,12.037,1.818,18.924,1.79c6.888,0.028,13.768-0.794,18.924-1.79C-19.776,20.754-16.352,19.737-16.352,19.737z"/>
			<path fill="#CCCCCC" d="M-17.271,22.517c0,0-3.342,0.976-8.342,1.922c-4.994,0.91-11.649,1.673-18.298,1.698
				c-6.648-0.032-13.304-0.804-18.298-1.719c-5.001-0.952-8.342-1.932-8.342-1.932s3.318,0.892,8.308,1.734
				c4.996,0.878,11.661,1.604,18.332,1.579c6.672,0.032,13.337-0.685,18.332-1.557C-20.59,23.405-17.271,22.517-17.271,22.517z"/>
			<path fill="#CCCCCC" d="M-18.103,25.281c0,0-3.251,0.853-8.117,1.68c-4.861,0.79-11.338,1.453-17.81,1.471
				c-6.472-0.039-12.949-0.722-17.81-1.528c-4.866-0.843-8.117-1.707-8.117-1.707s3.231,0.776,8.087,1.508
				c4.862,0.768,11.348,1.405,17.84,1.388c6.492,0.039,12.978-0.577,17.84-1.329C-21.334,26.047-18.103,25.281-18.103,25.281z"/>
			<path fill="#CCCCCC" d="M-18.85,28.029c0,0-3.148,0.728-7.862,1.437c-4.709,0.672-10.985,1.238-17.255,1.26
				c-6.271-0.034-12.546-0.612-17.255-1.293c-4.714-0.718-7.862-1.452-7.862-1.452s3.131,0.647,7.836,1.254
				c4.71,0.643,10.993,1.174,17.281,1.152c6.288,0.034,12.571-0.484,17.281-1.119C-21.981,28.67-18.85,28.029-18.85,28.029z"/>
			<path fill="#CCCCCC" d="M-19.631,30.781c0,0-3.056,0.605-7.633,1.196c-4.573,0.555-10.668,1.022-16.759,1.043
				c-6.091-0.036-12.186-0.518-16.76-1.083c-4.577-0.602-7.634-1.215-7.634-1.215s3.042,0.526,7.612,1.018
				c4.574,0.528,10.675,0.963,16.781,0.942c6.106,0.036,12.207-0.384,16.781-0.901C-22.673,31.3-19.631,30.781-19.631,30.781z"/>
			<path fill="#CCCCCC" d="M-20.327,33.511c0,0-2.953,0.485-7.377,0.962c-4.421,0.441-10.314,0.816-16.203,0.842
				c-5.889-0.03-11.782-0.409-16.203-0.853c-4.424-0.48-7.377-0.967-7.377-0.967s2.942,0.4,7.36,0.77
				c4.422,0.406,10.319,0.737,16.22,0.711c5.901,0.03,11.798-0.297,16.22-0.7C-23.268,33.909-20.327,33.511-20.327,33.511z"/>
			<path fill="#CCCCCC" d="M-20.942,36.217c0,0-2.882,0.374-7.2,0.745c-4.316,0.335-10.07,0.621-15.82,0.647
				c-5.751-0.031-11.504-0.323-15.82-0.663c-4.319-0.376-7.201-0.753-7.201-0.753s2.873,0.291,7.187,0.556
				c4.317,0.302,10.074,0.546,15.833,0.521c5.76,0.032,11.517-0.207,15.833-0.504C-23.815,36.506-20.942,36.217-20.942,36.217z"/>
			<path fill="#CCCCCC" d="M-21.703,38.919c0,0-2.785,0.264-6.96,0.53c-4.173,0.23-9.737,0.429-15.299,0.456
				c-5.562-0.03-11.125-0.233-15.299-0.467c-4.175-0.269-6.96-0.535-6.96-0.535s2.779,0.18,6.951,0.339
				c4.174,0.195,9.74,0.35,15.307,0.324c5.568,0.031,11.134-0.12,15.307-0.312C-24.482,39.097-21.703,38.919-21.703,38.919z"/>
			<path fill="#CCCCCC" d="M-22.275,41.579c0,0-2.712,0.164-6.779,0.336c-4.066,0.136-9.487,0.256-14.906,0.284
				c-5.42-0.029-10.84-0.152-14.906-0.29c-4.067-0.173-6.779-0.339-6.779-0.339s2.709,0.081,6.774,0.143
				c4.066,0.099,9.488,0.174,14.911,0.147c5.423,0.03,10.845-0.043,14.911-0.14C-24.984,41.659-22.275,41.579-22.275,41.579z"/>
			<path fill="#CCCCCC" d="M-22.666,44.211c0,0-2.635,0.073-6.586,0.157c-3.951,0.049-9.219,0.097-14.487,0.126
				c-5.268-0.028-10.536-0.076-14.487-0.124c-3.951-0.084-6.586-0.156-6.586-0.156s2.634-0.012,6.585-0.039
				c3.951,0.009,9.22,0.009,14.489-0.02c5.269,0.028,10.537,0.028,14.489,0.018C-25.299,44.199-22.666,44.211-22.666,44.211z"/>
			<path fill="#CCCCCC" d="M-23.325,46.555c0,0-2.564,0.013-6.412,0.047c-3.848-0.002-8.979,0.013-14.112,0.07
				c-5.132,0-10.265,0.045-14.114,0.097c-3.849,0.017-6.415,0.045-6.415,0.045s2.567-0.112,6.416-0.239
				c3.849-0.092,8.981-0.185,14.111-0.242c5.131,0,10.262,0.034,14.11,0.075C-25.892,46.485-23.325,46.555-23.325,46.555z"/>
			<path fill="#CCCCCC" d="M-36.623,67.315c0,0-0.939-0.028-2.352-0.054c-1.414-0.026-3.303-0.069-5.193-0.05
				c-1.89-0.005-3.779,0.05-5.192,0.086c-1.413,0.036-2.352,0.07-2.352,0.07s0.948-0.134,2.364-0.262
				c1.416-0.128,3.299-0.214,5.181-0.232c1.882,0.006,3.765,0.079,5.181,0.198C-37.57,67.187-36.623,67.315-36.623,67.315z"/>
			<path fill="#CCCCCC" d="M-32.97,65.332c0,0-1.378-0.122-3.451-0.217c-2.073-0.106-4.844-0.217-7.615-0.2
				c-2.771-0.006-5.542,0.114-7.615,0.228c-2.072,0.103-3.45,0.229-3.45,0.229s1.388-0.206,3.466-0.423
				c2.077-0.207,4.839-0.357,7.6-0.373c2.761,0.007,5.524,0.147,7.6,0.346C-34.358,65.131-32.97,65.332-32.97,65.332z"/>
			<path fill="#CCCCCC" d="M-22.896,56.916c0,0-2.435-0.294-6.092-0.57c-3.658-0.288-8.543-0.572-13.429-0.603
				c-4.886-0.055-9.771,0.142-13.43,0.366c-3.658,0.213-6.094,0.465-6.094,0.465s2.445-0.337,6.108-0.664
				c3.662-0.316,8.538-0.536,13.413-0.506c4.876,0.054,9.752,0.36,13.415,0.74C-25.342,56.536-22.896,56.916-22.896,56.916z"/>
			<path fill="#CCCCCC" d="M-26.095,54.047c0,0-2.244-0.17-5.614-0.314c-3.37-0.155-7.869-0.309-12.368-0.292
				c-4.499-0.006-8.997,0.158-12.368,0.32c-3.37,0.151-5.613,0.325-5.613,0.325s2.251-0.259,5.625-0.525
				c3.373-0.255,7.865-0.442,12.356-0.459c4.492,0.007,8.984,0.185,12.356,0.432C-28.346,53.794-26.095,54.047-26.095,54.047z"/>
			<path fill="#CCCCCC" d="M-24.918,51.623c0,0-2.378-0.132-5.947-0.242c-3.57-0.121-8.333-0.248-13.097-0.234
				c-4.764-0.01-9.527,0.121-13.097,0.245c-3.569,0.112-5.947,0.246-5.947,0.246s2.383-0.22,5.956-0.447
				c3.572-0.216,8.33-0.369,13.089-0.383c4.758,0.01,9.517,0.16,13.089,0.373C-27.301,51.405-24.918,51.623-24.918,51.623z"/>
			<path fill="#CCCCCC" d="M-24.037,49.118c0,0-2.482-0.076-6.206-0.133c-3.725-0.093-8.693-0.161-13.662-0.132
				c-4.969-0.028-9.937,0.042-13.662,0.136c-3.724,0.058-6.206,0.135-6.206,0.135s2.485-0.16,6.212-0.328
				c3.725-0.133,8.692-0.252,13.657-0.281c4.965,0.028,9.932,0.146,13.657,0.278C-26.522,48.959-24.037,49.118-24.037,49.118z"/>
			<path fill="#CCCCCC" d="M-70.227,16.481c0,0,0.468,1.448,1.067,3.613c0.587,2.162,1.232,5.028,1.731,7.893
				c0.475,2.86,0.806,5.719,0.957,7.862c0.14,2.142,0.171,3.574,0.171,3.574s-0.107-1.436-0.364-3.596
				c-0.247-2.159-0.616-5.035-1.123-7.911c-0.482-2.871-1.101-5.741-1.588-7.88C-69.851,17.901-70.227,16.481-70.227,16.481z"/>
			<path fill="#CCCCCC" d="M-67.501,17.6c0,0,0.569,1.943,1.251,4.85c0.67,2.904,1.364,6.761,1.813,10.616
				c0.425,3.852,0.607,7.704,0.6,10.596c-0.017,2.892-0.138,4.825-0.138,4.825s0.046-1.928-0.052-4.828
				c-0.086-2.9-0.303-6.769-0.759-10.639c-0.432-3.867-1.104-7.732-1.677-10.619C-67.022,19.517-67.501,17.6-67.501,17.6z"/>
			<path fill="#CCCCCC" d="M-64.828,18.497c0,0,0.597,2.244,1.277,5.601c0.669,3.355,1.326,7.814,1.68,12.272
				c0.33,4.456,0.358,8.912,0.208,12.259c-0.16,3.347-0.405,5.584-0.405,5.584s0.168-2.228,0.214-5.577
				c0.058-3.35-0.001-7.823-0.361-12.296c-0.336-4.471-0.973-8.941-1.547-12.283C-64.322,20.718-64.828,18.497-64.828,18.497z"/>
			<path fill="#CCCCCC" d="M-62.171,19.309c0,0,0.149,0.645,0.387,1.774c0.235,1.128,0.555,2.739,0.882,4.67
				c0.622,3.857,1.23,8.997,1.474,14.133c0.187,5.133,0.012,10.27-0.284,14.125c-0.164,1.929-0.346,3.537-0.484,4.664
				c-0.141,1.127-0.235,1.771-0.235,1.771s0.072-0.641,0.176-1.764c0.107-1.123,0.246-2.728,0.358-4.656
				c0.256-3.858,0.379-9.005,0.131-14.156c-0.191-5.149-0.751-10.293-1.333-14.148c-0.275-1.925-0.547-3.528-0.748-4.65
				C-62.046,19.949-62.171,19.309-62.171,19.309z"/>
			<path fill="#CCCCCC" d="M-59.572,19.794c0,0,0.131,0.64,0.341,1.76c0.206,1.12,0.486,2.718,0.774,4.636
				c0.541,3.83,1.067,8.934,1.273,14.034c0.149,5.098-0.018,10.2-0.289,14.028c-0.151,1.915-0.317,3.512-0.443,4.631
				c-0.129,1.119-0.214,1.758-0.214,1.758s0.063-0.637,0.155-1.752c0.095-1.116,0.217-2.71,0.317-4.624
				c0.231-3.831,0.347-8.941,0.136-14.055c-0.154-5.112-0.631-10.22-1.133-14.049c-0.234-1.912-0.467-3.505-0.64-4.619
				C-59.465,20.43-59.572,19.794-59.572,19.794z"/>
			<g>
			</g>
			<path fill="#CCCCCC" d="M-53.782,25.835c0,0,0.075,0.628,0.193,1.726c0.114,1.098,0.268,2.667,0.419,4.548
				c0.27,3.76,0.496,8.772,0.505,13.782c-0.047,5.01-0.312,10.022-0.611,13.782c-0.166,1.881-0.332,3.45-0.455,4.548
				c-0.126,1.099-0.207,1.727-0.207,1.727s0.057-0.626,0.144-1.721c0.091-1.095,0.212-2.661,0.325-4.54
				c0.26-3.761,0.475-8.777,0.467-13.795c0.048-5.019-0.128-10.035-0.358-13.796c-0.099-1.879-0.208-3.445-0.29-4.54
				C-53.729,26.461-53.782,25.835-53.782,25.835z"/>
			<path fill="#CCCCCC" d="M-51.121,29.067c0,0,0.205,2.389,0.404,5.968c0.187,3.579,0.297,8.347,0.254,13.115
				c-0.067,4.768-0.287,9.537-0.561,13.117c-0.285,3.581-0.55,5.971-0.55,5.971s0.177-2.382,0.346-5.958
				c0.181-3.577,0.381-8.351,0.427-13.126c0.07-4.775-0.014-9.55-0.111-13.128C-50.997,31.45-51.121,29.067-51.121,29.067z"/>
			<path fill="#CCCCCC" d="M-48.658,31.155c0,0,0.136,2.326,0.269,5.812c0.121,3.486,0.177,8.132,0.134,12.777
				c-0.067,4.646-0.234,9.292-0.443,12.779c-0.221,3.488-0.42,5.814-0.42,5.814s0.109-2.321,0.213-5.805
				c0.116-3.484,0.263-8.134,0.311-12.784c0.071-4.65,0.043-9.3,0.012-12.786C-48.602,33.477-48.658,31.155-48.658,31.155z"/>
			<path fill="#CCCCCC" d="M-46.414,32.023c0,0,0.089,2.314,0.182,5.784c0.082,3.47,0.114,8.095,0.092,12.72
				c-0.045,4.625-0.145,9.251-0.283,12.721c-0.15,3.471-0.281,5.786-0.281,5.786s0.04-2.312,0.072-5.78
				c0.044-3.469,0.124-8.096,0.152-12.724c0.051-4.628,0.048-9.255,0.056-12.725C-46.405,34.336-46.414,32.023-46.414,32.023z"/>
			<path fill="#CCCCCC" d="M-44.198,32.621c0,0,0.053,2.331,0.124,5.826c0.06,3.496,0.09,8.156,0.114,12.817
				c0.001,4.661-0.004,9.322-0.05,12.818c-0.057,3.496-0.103,5.827-0.103,5.827s-0.046-2.33-0.107-5.825
				c-0.049-3.495-0.063-8.156-0.081-12.817c0.005-4.661,0.005-9.322,0.035-12.818C-44.224,34.951-44.198,32.621-44.198,32.621z"/>
			<path fill="#CCCCCC" d="M-18.108,17.029c0,0-0.378,1.462-0.849,3.662c-0.484,2.203-1.093,5.156-1.559,8.112
				c-0.49,2.96-0.836,5.92-1.062,8.14c-0.237,2.222-0.327,3.699-0.327,3.699s0.014-1.475,0.134-3.68
				c0.131-2.207,0.439-5.15,0.898-8.093c0.483-2.948,1.119-5.897,1.702-8.122C-18.576,18.519-18.108,17.029-18.108,17.029z"/>
			<path fill="#CCCCCC" d="M-20.819,18.121c0,0-0.469,1.941-1.014,4.86c-0.557,2.922-1.205,6.832-1.611,10.744
				c-0.43,3.915-0.618,7.83-0.681,10.763c-0.075,2.933-0.013,4.883-0.013,4.883s-0.137-1.956-0.177-4.882
				c-0.029-2.926,0.124-6.824,0.524-10.722c0.423-3.901,1.094-7.802,1.747-10.74C-21.379,20.086-20.819,18.121-20.819,18.121z"/>
			<path fill="#CCCCCC" d="M-23.479,18.993c0,0-0.489,2.227-1.028,5.576c-0.55,3.351-1.158,7.832-1.469,12.315
				c-0.334,4.485-0.371,8.969-0.297,12.327c0.062,3.358,0.238,5.591,0.238,5.591s-0.254-2.243-0.429-5.599
				c-0.164-3.356-0.159-7.824,0.146-12.291c0.328-4.469,0.957-8.94,1.602-12.304C-24.058,21.242-23.479,18.993-23.479,18.993z"/>
			<path fill="#CCCCCC" d="M-26.123,19.781c0,0-0.119,0.638-0.308,1.755c-0.192,1.117-0.451,2.714-0.712,4.632
				c-0.554,3.841-1.082,8.964-1.252,14.092c-0.227,5.13-0.094,10.256,0.166,14.099c0.114,1.92,0.253,3.519,0.36,4.637
				c0.104,1.118,0.175,1.757,0.175,1.757s-0.093-0.642-0.235-1.764c-0.138-1.122-0.32-2.724-0.486-4.645
				c-0.3-3.84-0.485-8.957-0.319-14.069c0.223-5.115,0.799-10.235,1.393-14.076c0.314-1.923,0.62-3.527,0.846-4.651
				C-26.267,20.423-26.123,19.781-26.123,19.781z"/>
			<path fill="#CCCCCC" d="M-28.711,20.244c0,0-0.101,0.634-0.261,1.744c-0.163,1.111-0.384,2.698-0.605,4.603
				c-0.475,3.816-0.923,8.906-1.057,14c-0.192,5.096-0.068,10.188,0.165,14.005c0.101,1.908,0.222,3.496,0.316,4.608
				C-30.062,60.316-30,60.95-30,60.95s-0.084-0.637-0.213-1.752c-0.125-1.114-0.291-2.706-0.443-4.615
				c-0.272-3.815-0.448-8.9-0.318-13.98c0.187-5.083,0.684-10.169,1.198-13.986c0.274-1.91,0.541-3.504,0.738-4.619
				C-28.837,20.882-28.711,20.244-28.711,20.244z"/>
			<path fill="#CCCCCC" d="M-31.316,20.753c0,0-0.383,2.721-0.757,6.807c-0.41,4.091-0.776,9.547-0.832,15.007
				c-0.113,5.461,0.085,10.918,0.37,15.009c0.25,4.089,0.552,6.81,0.552,6.81s-0.383-2.732-0.741-6.825
				c-0.324-4.09-0.571-9.541-0.518-14.989c0.11-5.449,0.524-10.901,0.973-14.992C-31.785,23.487-31.316,20.753-31.316,20.753z"/>
			<path fill="#CCCCCC" d="M-34.441,26.233c0,0-0.048,0.624-0.121,1.717c-0.076,1.093-0.175,2.655-0.265,4.53
				c-0.212,3.752-0.369,8.756-0.313,13.763c0,5.006,0.212,10.01,0.464,13.762c0.11,1.875,0.226,3.436,0.314,4.529
				c0.084,1.093,0.138,1.717,0.138,1.717s-0.078-0.626-0.201-1.722c-0.12-1.096-0.282-2.66-0.444-4.537
				c-0.292-3.751-0.553-8.752-0.608-13.75c0.002-4.998,0.209-9.998,0.46-13.749c0.141-1.877,0.286-3.441,0.394-4.537
				C-34.512,26.859-34.441,26.233-34.441,26.233z"/>
			<path fill="#CCCCCC" d="M-37.076,29.444c0,0-0.11,2.379-0.181,5.95c-0.083,3.572-0.154,8.337-0.082,13.104
				c0.049,4.766,0.242,9.531,0.412,13.102c0.158,3.57,0.324,5.947,0.324,5.947s-0.254-2.385-0.529-5.96
				c-0.263-3.574-0.476-8.334-0.545-13.094c-0.046-4.76,0.052-9.519,0.225-13.092C-37.268,31.828-37.076,29.444-37.076,29.444z"/>
			<path fill="#CCCCCC" d="M-39.522,31.517c0,0-0.045,2.319-0.054,5.801c-0.021,3.482-0.041,8.126,0.029,12.77
				c0.047,4.644,0.183,9.288,0.285,12.768c0.091,3.48,0.187,5.798,0.187,5.798s-0.186-2.324-0.394-5.807
				c-0.197-3.483-0.352-8.123-0.417-12.764c-0.042-4.64,0.006-9.28,0.118-12.762C-39.647,33.84-39.522,31.517-39.522,31.517z"/>
			<path fill="#CCCCCC" d="M-41.873,32.378c0,0,0.003,2.311,0.032,5.778c0.018,3.467,0.021,8.091,0.065,12.715
				c0.021,4.624,0.083,9.247,0.107,12.714c0.013,3.466,0.034,5.777,0.034,5.777s-0.112-2.313-0.243-5.781
				c-0.119-3.468-0.2-8.09-0.238-12.712c-0.015-4.622,0.011-9.244,0.083-12.711C-41.95,34.69-41.873,32.378-41.873,32.378z"/>
			<path fill="none" d="M-62.598,64.933"/>
			<path fill="none" d="M-60.535,66.464"/>
			<path fill="#FFFFFF" d="M-22.044,63.768"/>
			<path fill="#FFFFFF" d="M-23.315,54.03"/>
			<path fill="none" d="M-25.161,64.923"/>
			<path fill="none" d="M-27.224,66.454"/>
		</g>
		<g opacity="0.1">
			<path fill="#CCCCCC" d="M-56.861,20.772c0,0,0.448,2.542,0.926,6.348c0.443,3.803,0.867,8.871,1.021,13.936
				c0.098,5.064-0.072,10.13-0.323,13.932c-0.285,3.804-0.602,6.343-0.602,6.343s0.241-2.53,0.42-6.332
				c0.213-3.803,0.333-8.876,0.176-13.953c-0.102-5.075-0.479-10.146-0.884-13.949C-56.496,23.3-56.861,20.772-56.861,20.772z"/>
		</g>
	</g>
</g>
<line fill="none" stroke="#231F20" stroke-width="0.7824" stroke-linecap="round" stroke-linejoin="round" stroke-miterlimit="10" x1="-70.933" y1="64.303" x2="-66.826" y2="66.549"/>
<polyline opacity="0.6" points="-62.672,64.651 -58.048,67.194 -58.665,64.419 "/>
<polyline opacity="0.6" points="-25.067,64.535 -29.69,67.078 -29.074,64.304 "/>
<g>
	<path fill="none" d="M-55.351,63.957"/>
</g>
<g>
	<path fill="none" d="M-55.351,24.541"/>
</g>
<g opacity="0.5">
	<g>
		<g opacity="0.1">
			<path fill="#CCCCCC" d="M-15.603,17.022c0,0-3.545,1.218-8.848,2.396c-5.295,1.142-12.351,2.101-19.398,2.129
				c-7.047-0.028-14.103-0.987-19.398-2.129c-5.303-1.178-8.849-2.397-8.849-2.397s3.516,1.13,8.805,2.198
				c5.297,1.104,12.365,2.017,19.441,1.989c7.076,0.028,14.144-0.884,19.441-1.989C-19.12,18.152-15.603,17.022-15.603,17.022z"/>
			<path fill="#CCCCCC" d="M-16.352,19.737c0,0-3.45,1.105-8.612,2.174c-5.155,1.033-12.024,1.902-18.885,1.93
				c-6.861-0.028-13.73-0.897-18.885-1.93c-5.162-1.07-8.612-2.175-8.612-2.175s3.424,1.017,8.573,1.976
				c5.157,0.996,12.037,1.818,18.924,1.79c6.888,0.028,13.768-0.794,18.924-1.79C-19.776,20.754-16.352,19.737-16.352,19.737z"/>
			<path fill="#CCCCCC" d="M-17.271,22.517c0,0-3.342,0.976-8.342,1.922c-4.994,0.91-11.649,1.673-18.298,1.698
				c-6.648-0.032-13.304-0.804-18.298-1.719c-5.001-0.952-8.342-1.932-8.342-1.932s3.318,0.892,8.308,1.734
				c4.996,0.878,11.661,1.604,18.332,1.579c6.672,0.032,13.337-0.685,18.332-1.557C-20.59,23.405-17.271,22.517-17.271,22.517z"/>
			<path fill="#CCCCCC" d="M-18.103,25.281c0,0-3.251,0.853-8.117,1.68c-4.861,0.79-11.338,1.453-17.81,1.471
				c-6.472-0.039-12.949-0.722-17.81-1.528c-4.866-0.843-8.117-1.707-8.117-1.707s3.231,0.776,8.087,1.508
				c4.862,0.768,11.348,1.405,17.84,1.388c6.492,0.039,12.978-0.577,17.84-1.329C-21.334,26.047-18.103,25.281-18.103,25.281z"/>
			<path fill="#CCCCCC" d="M-18.85,28.029c0,0-3.148,0.728-7.862,1.437c-4.709,0.672-10.985,1.238-17.255,1.26
				c-6.271-0.034-12.546-0.612-17.255-1.293c-4.714-0.718-7.862-1.452-7.862-1.452s3.131,0.647,7.836,1.254
				c4.71,0.643,10.993,1.174,17.281,1.152c6.288,0.034,12.571-0.484,17.281-1.119C-21.981,28.67-18.85,28.029-18.85,28.029z"/>
			<path fill="#CCCCCC" d="M-19.631,30.781c0,0-3.056,0.605-7.633,1.196c-4.573,0.555-10.668,1.022-16.759,1.043
				c-6.091-0.036-12.186-0.518-16.76-1.083c-4.577-0.602-7.634-1.215-7.634-1.215s3.042,0.526,7.612,1.018
				c4.574,0.528,10.675,0.963,16.781,0.942c6.106,0.036,12.207-0.384,16.781-0.901C-22.672,31.3-19.631,30.781-19.631,30.781z"/>
			<path fill="#CCCCCC" d="M-20.327,33.511c0,0-2.953,0.485-7.377,0.962c-4.421,0.441-10.314,0.816-16.203,0.842
				c-5.889-0.03-11.782-0.409-16.203-0.853c-4.424-0.48-7.377-0.967-7.377-0.967s2.942,0.4,7.36,0.77
				c4.422,0.406,10.319,0.737,16.22,0.711c5.901,0.03,11.798-0.297,16.22-0.7C-23.268,33.909-20.327,33.511-20.327,33.511z"/>
			<path fill="#CCCCCC" d="M-20.942,36.217c0,0-2.882,0.374-7.2,0.745c-4.316,0.335-10.069,0.621-15.82,0.647
				c-5.751-0.031-11.504-0.323-15.82-0.663c-4.319-0.376-7.201-0.753-7.201-0.753s2.873,0.291,7.187,0.556
				c4.317,0.302,10.074,0.546,15.833,0.521c5.76,0.032,11.517-0.207,15.833-0.504C-23.815,36.506-20.942,36.217-20.942,36.217z"/>
			<path fill="#CCCCCC" d="M-21.703,38.919c0,0-2.785,0.264-6.96,0.53c-4.173,0.23-9.737,0.429-15.299,0.456
				c-5.562-0.03-11.125-0.233-15.299-0.467c-4.175-0.269-6.96-0.535-6.96-0.535s2.779,0.18,6.951,0.339
				c4.174,0.195,9.74,0.35,15.307,0.324c5.568,0.031,11.134-0.121,15.307-0.312C-24.482,39.097-21.703,38.919-21.703,38.919z"/>
			<path fill="#CCCCCC" d="M-22.275,41.579c0,0-2.712,0.164-6.779,0.336c-4.066,0.136-9.487,0.256-14.906,0.284
				c-5.42-0.029-10.84-0.152-14.906-0.29c-4.067-0.173-6.779-0.339-6.779-0.339s2.709,0.081,6.774,0.143
				c4.066,0.099,9.488,0.174,14.911,0.147c5.423,0.03,10.845-0.043,14.911-0.14C-24.984,41.659-22.275,41.579-22.275,41.579z"/>
			<path fill="#CCCCCC" d="M-22.666,44.211c0,0-2.635,0.073-6.586,0.157c-3.951,0.049-9.219,0.097-14.487,0.126
				c-5.268-0.028-10.536-0.076-14.487-0.124c-3.951-0.084-6.586-0.156-6.586-0.156s2.634-0.012,6.585-0.039
				c3.951,0.009,9.22,0.009,14.489-0.02c5.269,0.028,10.537,0.028,14.489,0.018C-25.299,44.199-22.666,44.211-22.666,44.211z"/>
			<path fill="#CCCCCC" d="M-23.325,46.555c0,0-2.564,0.013-6.412,0.047c-3.848-0.002-8.979,0.013-14.112,0.07
				c-5.132,0-10.265,0.045-14.114,0.097c-3.849,0.017-6.415,0.045-6.415,0.045s2.567-0.112,6.416-0.239
				c3.849-0.092,8.981-0.185,14.111-0.242c5.131,0,10.262,0.034,14.11,0.075C-25.892,46.485-23.325,46.555-23.325,46.555z"/>
			<path fill="#CCCCCC" d="M-36.623,67.315c0,0-0.939-0.028-2.352-0.054c-1.414-0.026-3.303-0.069-5.193-0.05
				c-1.89-0.005-3.779,0.05-5.192,0.086c-1.413,0.036-2.352,0.07-2.352,0.07s0.948-0.134,2.364-0.262
				c1.416-0.128,3.299-0.214,5.181-0.232c1.882,0.006,3.765,0.079,5.181,0.198C-37.57,67.187-36.623,67.315-36.623,67.315z"/>
			<path fill="#CCCCCC" d="M-32.97,65.332c0,0-1.378-0.122-3.451-0.217c-2.073-0.106-4.844-0.217-7.615-0.2
				c-2.771-0.006-5.542,0.114-7.615,0.228c-2.072,0.103-3.45,0.229-3.45,0.229s1.388-0.206,3.466-0.423
				c2.077-0.207,4.839-0.357,7.6-0.373c2.761,0.007,5.524,0.147,7.6,0.346C-34.358,65.131-32.97,65.332-32.97,65.332z"/>
			<path fill="#CCCCCC" d="M-22.896,56.916c0,0-2.435-0.294-6.092-0.57c-3.658-0.288-8.543-0.572-13.429-0.603
				c-4.886-0.055-9.771,0.142-13.43,0.366c-3.658,0.213-6.094,0.464-6.094,0.464s2.445-0.337,6.108-0.664
				c3.662-0.316,8.538-0.536,13.413-0.506c4.876,0.054,9.752,0.36,13.415,0.74C-25.342,56.536-22.896,56.916-22.896,56.916z"/>
			<path fill="#CCCCCC" d="M-26.095,54.047c0,0-2.244-0.17-5.614-0.314c-3.37-0.155-7.869-0.309-12.368-0.292
				c-4.499-0.006-8.997,0.158-12.368,0.32c-3.37,0.151-5.613,0.325-5.613,0.325s2.251-0.259,5.625-0.525
				c3.373-0.255,7.865-0.442,12.356-0.459c4.492,0.007,8.984,0.185,12.356,0.432C-28.346,53.794-26.095,54.047-26.095,54.047z"/>
			<path fill="#CCCCCC" d="M-24.918,51.623c0,0-2.378-0.132-5.947-0.242c-3.57-0.121-8.333-0.248-13.097-0.234
				c-4.764-0.01-9.527,0.121-13.097,0.245c-3.569,0.112-5.947,0.246-5.947,0.246s2.383-0.22,5.956-0.447
				c3.572-0.216,8.33-0.369,13.089-0.383c4.758,0.01,9.517,0.16,13.089,0.373C-27.301,51.405-24.918,51.623-24.918,51.623z"/>
			<path fill="#CCCCCC" d="M-24.037,49.118c0,0-2.482-0.076-6.206-0.133c-3.725-0.093-8.693-0.161-13.662-0.132
				c-4.969-0.028-9.937,0.042-13.662,0.136c-3.724,0.058-6.206,0.135-6.206,0.135s2.485-0.16,6.212-0.328
				c3.725-0.133,8.692-0.252,13.657-0.281c4.965,0.028,9.932,0.146,13.657,0.278C-26.522,48.959-24.037,49.118-24.037,49.118z"/>
			<path fill="#CCCCCC" d="M-70.227,16.481c0,0,0.468,1.448,1.067,3.613c0.587,2.162,1.232,5.028,1.731,7.893
				c0.475,2.86,0.806,5.719,0.957,7.862c0.14,2.142,0.171,3.574,0.171,3.574s-0.107-1.436-0.365-3.596
				c-0.247-2.159-0.616-5.035-1.123-7.911c-0.482-2.871-1.101-5.741-1.588-7.88C-69.851,17.901-70.227,16.481-70.227,16.481z"/>
			<path fill="#CCCCCC" d="M-67.501,17.6c0,0,0.569,1.943,1.251,4.85c0.67,2.904,1.364,6.761,1.813,10.616
				c0.425,3.852,0.607,7.704,0.6,10.596c-0.017,2.892-0.138,4.825-0.138,4.825s0.046-1.928-0.052-4.828
				c-0.086-2.9-0.303-6.769-0.759-10.639c-0.432-3.867-1.104-7.732-1.677-10.619C-67.022,19.517-67.501,17.6-67.501,17.6z"/>
			<path fill="#CCCCCC" d="M-64.828,18.497c0,0,0.597,2.244,1.277,5.601c0.669,3.355,1.326,7.814,1.68,12.272
				c0.33,4.456,0.358,8.912,0.208,12.259c-0.16,3.347-0.405,5.584-0.405,5.584s0.168-2.228,0.214-5.577
				c0.058-3.35-0.001-7.823-0.361-12.296c-0.336-4.471-0.973-8.941-1.547-12.283C-64.322,20.718-64.828,18.497-64.828,18.497z"/>
			<path fill="#CCCCCC" d="M-62.171,19.309c0,0,0.149,0.645,0.387,1.774c0.235,1.128,0.555,2.739,0.882,4.67
				c0.622,3.857,1.23,8.997,1.474,14.133c0.187,5.133,0.012,10.27-0.284,14.125c-0.164,1.929-0.346,3.537-0.484,4.664
				c-0.141,1.127-0.235,1.771-0.235,1.771s0.072-0.641,0.176-1.764c0.107-1.123,0.246-2.728,0.358-4.656
				c0.256-3.858,0.379-9.005,0.131-14.156c-0.191-5.149-0.751-10.293-1.333-14.148c-0.275-1.925-0.547-3.528-0.748-4.65
				C-62.046,19.949-62.171,19.309-62.171,19.309z"/>
			<path fill="#CCCCCC" d="M-59.572,19.794c0,0,0.131,0.64,0.341,1.76c0.206,1.12,0.486,2.718,0.774,4.636
				c0.541,3.83,1.067,8.934,1.273,14.034c0.149,5.098-0.018,10.2-0.289,14.028c-0.151,1.915-0.317,3.512-0.443,4.631
				c-0.129,1.119-0.214,1.758-0.214,1.758s0.063-0.637,0.155-1.752c0.095-1.116,0.217-2.71,0.317-4.624
				c0.231-3.831,0.347-8.941,0.136-14.055c-0.154-5.112-0.631-10.22-1.133-14.049c-0.234-1.912-0.467-3.505-0.64-4.619
				C-59.465,20.43-59.572,19.794-59.572,19.794z"/>
			<g>
			</g>
			<path fill="#CCCCCC" d="M-53.782,25.835c0,0,0.075,0.628,0.193,1.726c0.114,1.098,0.268,2.667,0.419,4.548
				c0.27,3.76,0.496,8.772,0.505,13.782c-0.047,5.01-0.312,10.022-0.611,13.782c-0.166,1.881-0.332,3.45-0.455,4.548
				c-0.126,1.099-0.207,1.727-0.207,1.727s0.057-0.626,0.144-1.721c0.091-1.095,0.212-2.661,0.325-4.54
				c0.26-3.761,0.475-8.777,0.467-13.795c0.048-5.019-0.128-10.035-0.358-13.796c-0.099-1.879-0.208-3.445-0.29-4.54
				C-53.729,26.461-53.782,25.835-53.782,25.835z"/>
			<path fill="#CCCCCC" d="M-51.121,29.067c0,0,0.205,2.389,0.404,5.968c0.187,3.579,0.297,8.347,0.254,13.115
				c-0.067,4.768-0.287,9.537-0.561,13.117c-0.285,3.581-0.55,5.971-0.55,5.971s0.177-2.382,0.346-5.958
				c0.181-3.577,0.381-8.351,0.427-13.126c0.07-4.775-0.014-9.55-0.111-13.128C-50.997,31.45-51.121,29.067-51.121,29.067z"/>
			<path fill="#CCCCCC" d="M-48.658,31.155c0,0,0.136,2.326,0.269,5.812c0.121,3.486,0.177,8.132,0.134,12.777
				c-0.067,4.646-0.234,9.292-0.443,12.779c-0.221,3.488-0.42,5.814-0.42,5.814s0.109-2.321,0.213-5.805
				c0.116-3.484,0.263-8.134,0.311-12.784c0.071-4.65,0.043-9.3,0.012-12.786C-48.602,33.477-48.658,31.155-48.658,31.155z"/>
			<path fill="#CCCCCC" d="M-46.414,32.023c0,0,0.089,2.314,0.182,5.784c0.082,3.47,0.114,8.095,0.092,12.72
				c-0.045,4.625-0.145,9.251-0.283,12.721c-0.15,3.471-0.281,5.786-0.281,5.786s0.04-2.312,0.072-5.78
				c0.044-3.469,0.124-8.096,0.152-12.724c0.051-4.628,0.048-9.255,0.056-12.725C-46.405,34.336-46.414,32.023-46.414,32.023z"/>
			<path fill="#CCCCCC" d="M-44.198,32.621c0,0,0.053,2.331,0.124,5.826c0.06,3.496,0.09,8.156,0.114,12.817
				c0.001,4.661-0.004,9.322-0.05,12.818c-0.057,3.496-0.103,5.827-0.103,5.827s-0.046-2.33-0.107-5.825
				c-0.049-3.495-0.063-8.156-0.081-12.817c0.005-4.661,0.005-9.322,0.035-12.818C-44.224,34.951-44.198,32.621-44.198,32.621z"/>
			<path fill="#CCCCCC" d="M-18.108,17.029c0,0-0.378,1.462-0.849,3.662c-0.484,2.203-1.093,5.156-1.559,8.112
				c-0.49,2.96-0.836,5.92-1.062,8.14c-0.237,2.222-0.327,3.699-0.327,3.699s0.014-1.475,0.134-3.68
				c0.131-2.207,0.439-5.15,0.898-8.093c0.483-2.948,1.119-5.897,1.702-8.122C-18.576,18.519-18.108,17.029-18.108,17.029z"/>
			<path fill="#CCCCCC" d="M-20.819,18.121c0,0-0.469,1.941-1.014,4.86c-0.557,2.922-1.205,6.832-1.611,10.744
				c-0.43,3.915-0.618,7.83-0.681,10.763c-0.075,2.933-0.013,4.883-0.013,4.883s-0.138-1.956-0.177-4.882
				c-0.029-2.926,0.124-6.824,0.524-10.722c0.423-3.901,1.094-7.802,1.747-10.74C-21.379,20.086-20.819,18.121-20.819,18.121z"/>
			<path fill="#CCCCCC" d="M-23.479,18.993c0,0-0.489,2.227-1.028,5.576c-0.55,3.351-1.158,7.832-1.469,12.315
				c-0.334,4.485-0.371,8.969-0.297,12.327c0.062,3.358,0.238,5.591,0.238,5.591s-0.254-2.243-0.429-5.599
				c-0.164-3.356-0.159-7.824,0.146-12.291c0.328-4.469,0.957-8.94,1.602-12.304C-24.058,21.242-23.479,18.993-23.479,18.993z"/>
			<path fill="#CCCCCC" d="M-26.123,19.781c0,0-0.119,0.638-0.308,1.755c-0.192,1.117-0.451,2.714-0.712,4.632
				c-0.554,3.841-1.082,8.964-1.252,14.092c-0.227,5.13-0.094,10.256,0.166,14.099c0.114,1.92,0.253,3.519,0.36,4.637
				c0.104,1.118,0.175,1.757,0.175,1.757s-0.093-0.642-0.235-1.764c-0.138-1.122-0.32-2.724-0.486-4.645
				c-0.3-3.84-0.485-8.957-0.319-14.069c0.223-5.115,0.799-10.235,1.393-14.076c0.314-1.923,0.62-3.527,0.846-4.651
				C-26.267,20.423-26.123,19.781-26.123,19.781z"/>
			<path fill="#CCCCCC" d="M-28.711,20.244c0,0-0.101,0.634-0.261,1.744c-0.163,1.111-0.384,2.698-0.605,4.603
				c-0.475,3.816-0.923,8.906-1.057,14c-0.192,5.096-0.068,10.188,0.165,14.005c0.101,1.908,0.222,3.496,0.316,4.608
				C-30.062,60.316-30,60.95-30,60.95s-0.084-0.637-0.213-1.752c-0.125-1.114-0.291-2.706-0.443-4.615
				c-0.272-3.815-0.448-8.9-0.318-13.98c0.187-5.083,0.684-10.169,1.198-13.986c0.274-1.91,0.541-3.504,0.738-4.619
				C-28.837,20.882-28.711,20.244-28.711,20.244z"/>
			<path fill="#CCCCCC" d="M-31.316,20.753c0,0-0.383,2.721-0.757,6.807c-0.41,4.091-0.776,9.547-0.832,15.007
				c-0.113,5.461,0.085,10.918,0.37,15.009c0.25,4.089,0.552,6.81,0.552,6.81s-0.383-2.732-0.741-6.825
				c-0.324-4.09-0.571-9.541-0.518-14.989c0.11-5.449,0.524-10.901,0.973-14.992C-31.785,23.487-31.316,20.753-31.316,20.753z"/>
			<path fill="#CCCCCC" d="M-34.441,26.233c0,0-0.048,0.624-0.121,1.717c-0.076,1.093-0.175,2.655-0.265,4.53
				c-0.212,3.752-0.369,8.756-0.313,13.763c0,5.006,0.212,10.01,0.464,13.762c0.11,1.875,0.226,3.436,0.314,4.529
				c0.084,1.093,0.138,1.717,0.138,1.717s-0.078-0.626-0.201-1.722c-0.12-1.096-0.282-2.66-0.444-4.537
				c-0.292-3.751-0.553-8.752-0.608-13.75c0.002-4.998,0.209-9.998,0.46-13.749c0.141-1.877,0.286-3.441,0.394-4.537
				C-34.512,26.859-34.441,26.233-34.441,26.233z"/>
			<path fill="#CCCCCC" d="M-37.076,29.444c0,0-0.11,2.379-0.181,5.95c-0.083,3.572-0.154,8.337-0.082,13.104
				c0.049,4.766,0.242,9.531,0.412,13.102c0.158,3.57,0.324,5.947,0.324,5.947s-0.254-2.385-0.529-5.96
				c-0.263-3.574-0.476-8.334-0.545-13.094c-0.046-4.76,0.052-9.519,0.225-13.092C-37.268,31.828-37.076,29.444-37.076,29.444z"/>
			<path fill="#CCCCCC" d="M-39.522,31.517c0,0-0.045,2.319-0.054,5.801c-0.021,3.482-0.041,8.126,0.029,12.77
				c0.047,4.644,0.183,9.288,0.285,12.768c0.091,3.48,0.187,5.798,0.187,5.798s-0.186-2.324-0.394-5.807
				c-0.197-3.483-0.352-8.123-0.417-12.764c-0.042-4.64,0.006-9.28,0.118-12.762C-39.647,33.84-39.522,31.517-39.522,31.517z"/>
			<path fill="#CCCCCC" d="M-41.873,32.378c0,0,0.003,2.311,0.032,5.778c0.018,3.467,0.021,8.091,0.065,12.715
				c0.021,4.624,0.083,9.247,0.107,12.714c0.013,3.466,0.034,5.777,0.034,5.777s-0.112-2.313-0.243-5.781
				c-0.119-3.468-0.2-8.09-0.238-12.712c-0.015-4.622,0.011-9.244,0.083-12.711C-41.95,34.69-41.873,32.378-41.873,32.378z"/>
			<path fill="none" d="M-62.598,64.933"/>
			<path fill="none" d="M-60.535,66.464"/>
			<path fill="#FFFFFF" d="M-22.044,63.768"/>
			<path fill="#FFFFFF" d="M-23.315,54.03"/>
			<path fill="none" d="M-25.161,64.923"/>
			<path fill="none" d="M-27.224,66.454"/>
		</g>
		<g opacity="0.1">
			<path fill="#CCCCCC" d="M-56.861,20.772c0,0,0.448,2.542,0.926,6.348c0.443,3.803,0.867,8.871,1.021,13.936
				c0.098,5.064-0.072,10.13-0.323,13.932c-0.285,3.804-0.602,6.343-0.602,6.343s0.241-2.53,0.42-6.332
				c0.213-3.803,0.333-8.876,0.176-13.953c-0.102-5.075-0.479-10.146-0.884-13.949C-56.496,23.3-56.861,20.772-56.861,20.772z"/>
		</g>
	</g>
</g>
<g>
	<path fill="#231F20" d="M-42.525,16.536c10.597,0,19.602,1.16,24.498,3.129c-0.135,7.068-1.982,45.762-25.966,51.55
		C-67.9,65.513-69.862,27.106-70.017,19.768C-63.837,17.764-53.489,16.536-42.525,16.536 M-42.525,14.801
		c-11.178,0-22.734,1.308-29.24,3.738c0,0-0.636,48.082,27.711,54.445v0.028c28.408-6.31,27.772-54.472,27.772-54.472
		C-21.531,15.993-31.856,14.801-42.525,14.801L-42.525,14.801z"/>
</g>
<g>
	
		<circle fill="#ADADAD" stroke="#231F20" stroke-width="1.0543" stroke-linecap="square" stroke-linejoin="round" stroke-miterlimit="10" cx="-43.929" cy="21.144" r="11.283"/>
	<path fill="#565656" d="M-53.039,14.716c0,0-4.97,8.207,1.156,14.102c0.971,0.935,1.156-5.317,1.156-5.317L-53.039,14.716z"/>
	<g>
		<path d="M-51.855,29.136c0,0,0.159-0.238,0.35-0.675c0.192-0.432,0.393-1.055,0.491-1.778c0.029-0.18,0.046-0.367,0.042-0.565
			c0.013-0.192,0.023-0.389,0.008-0.596c0.003-0.202-0.017-0.411-0.053-0.626c-0.028-0.211-0.038-0.427-0.091-0.649
			c-0.053-0.441-0.227-0.888-0.332-1.351c-0.139-0.462-0.299-0.928-0.507-1.388c-0.19-0.522-0.379-1.044-0.566-1.557
			c-0.196-0.503-0.334-1.017-0.456-1.597c-0.123-0.559-0.247-1.082-0.25-1.625c-0.037-0.528-0.053-1.019,0.054-1.513
			c0.051-0.241,0.044-0.458,0.143-0.678c0.09-0.209,0.175-0.408,0.254-0.594c0.205-0.345,0.424-0.63,0.636-0.789
			c0.41-0.35,0.657-0.458,0.656-0.476l0.118,0.084c0,0-0.184,0.219-0.446,0.611c-0.148,0.187-0.251,0.458-0.366,0.76
			c-0.069,0.321-0.16,0.679-0.124,1.09c-0.027,0.407,0.068,0.843,0.151,1.305c0.054,0.467,0.245,0.932,0.382,1.424
			c0.131,0.494,0.338,0.988,0.544,1.491c0.203,0.504,0.409,1.016,0.614,1.527c0.215,0.515,0.374,1.05,0.513,1.583
			c0.119,0.536,0.23,1.069,0.253,1.594c0.03,0.261,0.033,0.519,0.019,0.772c0.001,0.253-0.016,0.5-0.057,0.738
			c-0.025,0.24-0.066,0.471-0.128,0.69c-0.046,0.223-0.112,0.431-0.188,0.628c-0.285,0.794-0.694,1.379-1.017,1.746
			c-0.323,0.367-0.563,0.531-0.563,0.531L-51.855,29.136z"/>
	</g>
	<path fill="#565656" d="M-33.042,22.807c0-4.756-0.347-8.322-1.387-7.167c-1.73,1.922-9.941,6.687-9.941,11.443
		s1.082,3.617,3.352,4.855C-39.746,32.632-33.042,27.563-33.042,22.807z"/>
	<g>
		<path d="M-41.069,32.131c0,0-0.371-0.079-0.967-0.352c-0.588-0.281-1.432-0.742-2.24-1.646c-0.403-0.45-0.811-1.016-1.074-1.742
			c-0.278-0.713-0.419-1.604-0.263-2.486c0.145-0.878,0.479-1.744,0.983-2.438c0.495-0.699,1.069-1.311,1.675-1.823
			c0.658-0.509,1.206-0.862,1.772-1.257c0.564-0.406,1.075-0.706,1.591-1.069c0.501-0.367,1.011-0.689,1.471-1.022
			c0.449-0.34,0.893-0.647,1.279-0.95c0.766-0.61,1.388-1.154,1.74-1.602c0.373-0.439,0.476-0.779,0.464-0.764l0.18-0.04
			c0.002,0.005,0.019,0.107,0.006,0.278c-0.021,0.17-0.064,0.417-0.18,0.707c-0.212,0.589-0.688,1.342-1.365,2.145
			c-0.68,0.801-1.555,1.661-2.561,2.498c-0.504,0.415-1.031,0.848-1.581,1.252c-0.547,0.409-1.117,0.815-1.642,1.246
			c-1.056,0.849-1.974,1.943-2.249,3.18c-0.299,1.239,0.146,2.438,0.688,3.287c0.55,0.866,1.182,1.467,1.631,1.862
			c0.455,0.395,0.742,0.581,0.742,0.581L-41.069,32.131z"/>
	</g>
	
		<circle fill="none" stroke="#231F20" stroke-width="1.0543" stroke-linecap="square" stroke-linejoin="round" stroke-miterlimit="10" cx="-43.929" cy="21.144" r="11.283"/>
</g>
<polygon fill="#ADADAD" stroke="#231F20" stroke-width="0.7824" stroke-linecap="square" stroke-linejoin="round" stroke-miterlimit="10" points="
	-68.566,71.095 -58.014,67.417 -60.381,60.625 -70.933,64.303 -66.826,66.549 "/>
<polygon fill="#ADADAD" points="-66.563,56.328 -63.442,64.535 -24.72,64.419 -21.599,56.097 "/>
<polyline fill="none" stroke="#231F20" stroke-width="0.8358" stroke-linecap="square" stroke-linejoin="round" stroke-miterlimit="10" points="
	-42.297,64.478 -63.557,64.478 -66.851,56.077 -42.982,56.077 "/>
<text transform="matrix(1 0 0 1 -62.4021 62.5693)"><tspan x="0" y="0" font-family="'Palatino-Bold'" font-size="6.9354">A</tspan><tspan x="4.875" y="0" font-family="'Palatino-Bold'" font-size="6.9354">CADEMY</tspan></text>
<polyline fill="none" stroke="#231F20" stroke-width="0.7824" stroke-linecap="round" stroke-linejoin="round" stroke-miterlimit="10" points="
	-66.851,56.077 -63.568,64.469 -58.238,67.305 "/>
<polyline fill="none" stroke="#231F20" stroke-width="0.8358" stroke-linecap="square" stroke-linejoin="round" stroke-miterlimit="10" points="
	-45.805,64.478 -24.546,64.478 -21.251,56.077 -45.12,56.077 "/>
<line fill="none" stroke="#231F20" stroke-width="0.7824" stroke-linecap="round" stroke-linejoin="round" stroke-miterlimit="10" x1="-58.055" y1="67.305" x2="-63.385" y2="64.469"/>
<polyline opacity="0.6" points="-62.852,64.535 -58.229,67.078 -58.845,64.304 "/>
<g>
	<g>
		<path fill="#FFFFFF" d="M-63.682,35.038c0.941,3.13,1.408,4.76,2.34,8.116c-0.507-0.058-0.76-0.089-1.266-0.152
			c-0.249-0.883-0.374-1.321-0.624-2.188c-0.784-0.074-1.176-0.113-1.959-0.194c-0.266,0.787-0.399,1.176-0.664,1.942
			c-0.336-0.049-0.504-0.075-0.84-0.126c0.98-2.81,1.477-4.298,2.474-7.399C-64.004,35.038-63.897,35.038-63.682,35.038z
			 M-64.959,39.945c0.608,0.055,0.912,0.081,1.521,0.132c-0.296-1.019-0.445-1.522-0.742-2.516
			C-64.492,38.528-64.648,39.005-64.959,39.945z"/>
		<path fill="#FFFFFF" d="M-60.681,35.16c0.736,0.001,1.104,0.002,1.841,0.003c0.472,0.001,0.906,0.064,1.302,0.192
			c0.396,0.128,0.736,0.316,1.021,0.565c0.285,0.249,0.506,0.555,0.663,0.919c0.157,0.363,0.235,0.778,0.233,1.242
			c-0.002,0.417-0.071,0.808-0.207,1.17c-0.136,0.362-0.334,0.673-0.594,0.931c-0.26,0.258-0.579,0.453-0.956,0.587
			c-0.377,0.133-0.809,0.183-1.295,0.15c-0.814-0.055-1.221-0.085-2.034-0.148C-60.696,38.526-60.691,37.404-60.681,35.16z
			 M-59.463,40.278c0.265,0.017,0.397,0.025,0.662,0.042c0.244,0.015,0.475-0.022,0.691-0.113c0.216-0.091,0.406-0.232,0.568-0.425
			c0.162-0.192,0.291-0.433,0.386-0.723c0.095-0.289,0.144-0.625,0.146-1.006c0.002-0.329-0.041-0.635-0.127-0.916
			c-0.087-0.281-0.208-0.526-0.365-0.732c-0.157-0.207-0.344-0.368-0.562-0.484c-0.218-0.116-0.456-0.174-0.715-0.177
			c-0.265-0.002-0.397-0.003-0.662-0.006C-59.45,37.554-59.454,38.462-59.463,40.278z"/>
		<path fill="#FFFFFF" d="M-52.63,35.038c0.94,2.482,1.411,3.744,2.356,6.285c-0.51-0.014-0.765-0.022-1.274-0.04
			c-0.252-0.677-0.378-1.014-0.629-1.686c-0.789-0.022-1.183-0.034-1.971-0.061c-0.269,0.647-0.404,0.969-0.674,1.609
			c-0.339-0.017-0.509-0.026-0.848-0.044c1.002-2.372,1.503-3.59,2.503-6.063C-52.953,35.038-52.845,35.038-52.63,35.038z
			 M-53.915,38.981c0.612,0.018,0.917,0.026,1.529,0.041c-0.298-0.793-0.447-1.188-0.744-1.974
			C-53.444,37.826-53.601,38.213-53.915,38.981z"/>
		<path fill="#FFFFFF" d="M-49.629,35.172c0.484,0,0.726,0,1.211,0.001c0.697,1.693,1.046,2.545,1.746,4.251
			c0.696-1.695,1.043-2.547,1.736-4.25c0.474,0,0.711,0,1.186,0c0.001,2.493,0.001,3.74,0.002,6.234
			c-0.499,0.001-0.748,0.001-1.247-0.001c0.001-1.625,0.001-2.437,0.002-4.062c-0.664,1.624-0.996,2.435-1.663,4.05
			c-0.193-0.002-0.289-0.003-0.482-0.006c-0.685-1.649-1.026-2.472-1.708-4.109c-0.004,1.631-0.006,2.447-0.01,4.079
			c-0.316-0.007-0.473-0.011-0.789-0.019C-49.639,38.872-49.636,37.639-49.629,35.172z"/>
		<path fill="#FFFFFF" d="M-40.752,41.475c-0.305,0.005-0.572-0.035-0.8-0.119c-0.229-0.084-0.424-0.203-0.584-0.356
			c-0.161-0.153-0.288-0.336-0.383-0.548c-0.094-0.212-0.159-0.445-0.195-0.699c0.345-0.002,0.518-0.003,0.864-0.006
			c0.031,0.154,0.075,0.299,0.133,0.433c0.057,0.135,0.13,0.251,0.218,0.349c0.088,0.098,0.193,0.175,0.315,0.23
			c0.121,0.055,0.262,0.082,0.421,0.079c0.107-0.002,0.212-0.017,0.316-0.046c0.103-0.029,0.196-0.075,0.278-0.137
			c0.082-0.062,0.148-0.144,0.198-0.245s0.074-0.224,0.074-0.369c0-0.185-0.039-0.349-0.117-0.49
			c-0.078-0.141-0.18-0.269-0.308-0.385c-0.128-0.116-0.273-0.224-0.436-0.324c-0.163-0.1-0.329-0.201-0.498-0.303
			c-0.169-0.102-0.335-0.208-0.498-0.32c-0.163-0.111-0.308-0.236-0.435-0.376s-0.23-0.296-0.307-0.471
			c-0.077-0.175-0.116-0.376-0.116-0.603c0-0.248,0.044-0.478,0.131-0.689c0.088-0.211,0.215-0.395,0.382-0.549
			c0.167-0.155,0.372-0.276,0.614-0.363c0.242-0.087,0.517-0.131,0.826-0.131c0.256,0,0.488,0.044,0.695,0.13
			c0.207,0.087,0.389,0.205,0.547,0.353c0.158,0.149,0.292,0.324,0.4,0.526c0.109,0.202,0.192,0.419,0.249,0.653
			c-0.314,0.002-0.47,0.003-0.784,0.005c-0.046-0.147-0.098-0.288-0.158-0.421c-0.06-0.133-0.134-0.25-0.222-0.351
			c-0.088-0.101-0.194-0.181-0.318-0.241c-0.124-0.059-0.272-0.089-0.445-0.089c-0.162,0-0.298,0.027-0.409,0.079
			c-0.112,0.053-0.202,0.119-0.27,0.199c-0.069,0.08-0.118,0.17-0.147,0.269c-0.03,0.099-0.044,0.197-0.044,0.293
			c0,0.166,0.04,0.316,0.12,0.451c0.08,0.135,0.186,0.26,0.318,0.374c0.132,0.114,0.281,0.224,0.448,0.329
			c0.166,0.105,0.337,0.21,0.512,0.316c0.175,0.106,0.346,0.216,0.514,0.33c0.168,0.114,0.318,0.24,0.45,0.379
			c0.132,0.138,0.239,0.292,0.319,0.461c0.08,0.169,0.12,0.36,0.121,0.574c0.001,0.251-0.041,0.485-0.127,0.702
			c-0.085,0.217-0.211,0.408-0.379,0.572c-0.167,0.164-0.375,0.295-0.624,0.391C-40.142,41.418-40.428,41.47-40.752,41.475z"/>
		<path fill="#FFFFFF" d="M-35.084,41.347c-0.273,0.012-0.535-0.013-0.785-0.076c-0.25-0.063-0.482-0.157-0.697-0.284
			c-0.215-0.127-0.41-0.284-0.587-0.47c-0.177-0.187-0.327-0.399-0.452-0.638c-0.124-0.238-0.221-0.498-0.29-0.78
			c-0.069-0.282-0.103-0.581-0.104-0.898c-0.001-0.311,0.032-0.605,0.099-0.884c0.067-0.278,0.162-0.534,0.284-0.768
			c0.123-0.234,0.272-0.444,0.447-0.633c0.175-0.188,0.369-0.347,0.582-0.476c0.213-0.129,0.444-0.228,0.693-0.298
			c0.249-0.07,0.51-0.104,0.783-0.104c0.273,0,0.534,0.035,0.784,0.103c0.25,0.069,0.481,0.167,0.696,0.293
			c0.214,0.127,0.41,0.28,0.586,0.459c0.176,0.18,0.327,0.381,0.452,0.604c0.124,0.223,0.221,0.466,0.29,0.73
			c0.069,0.264,0.104,0.543,0.105,0.839c0.001,0.312-0.031,0.607-0.097,0.886c-0.066,0.279-0.161,0.537-0.283,0.775
			c-0.122,0.238-0.271,0.454-0.446,0.647c-0.175,0.193-0.369,0.36-0.582,0.5c-0.213,0.14-0.445,0.251-0.694,0.332
			C-34.549,41.288-34.81,41.335-35.084,41.347z M-35.086,40.833c0.247-0.01,0.465-0.086,0.653-0.228
			c0.188-0.142,0.346-0.334,0.473-0.576c0.127-0.242,0.223-0.526,0.287-0.853c0.064-0.327,0.095-0.681,0.093-1.064
			c-0.002-0.377-0.036-0.723-0.103-1.036c-0.067-0.314-0.165-0.583-0.294-0.809c-0.129-0.226-0.288-0.402-0.478-0.528
			c-0.189-0.126-0.407-0.188-0.654-0.188c-0.249,0.001-0.469,0.065-0.658,0.194c-0.189,0.129-0.347,0.309-0.473,0.541
			c-0.126,0.232-0.221,0.509-0.285,0.831c-0.064,0.322-0.096,0.676-0.094,1.061c0.001,0.391,0.035,0.752,0.102,1.081
			c0.067,0.33,0.164,0.613,0.292,0.85c0.128,0.237,0.287,0.419,0.478,0.547C-35.556,40.785-35.335,40.843-35.086,40.833z"/>
		<path fill="#FFFFFF" d="M-31.232,35.165c0.318,0,0.476-0.001,0.794-0.001c1.164,1.473,1.746,2.188,2.907,3.552
			c-0.006-1.423-0.009-2.134-0.016-3.557c0.312-0.001,0.468-0.001,0.78-0.001c0.009,2.246,0.014,3.369,0.023,5.614
			c-0.214,0.018-0.322,0.027-0.536,0.044c-1.26-1.463-1.892-2.237-3.156-3.838c0.008,1.592,0.012,2.388,0.019,3.98
			c-0.315,0.02-0.472,0.03-0.787,0.05C-31.215,38.671-31.22,37.502-31.232,35.165z"/>
		<path fill="#FFFFFF" d="M-23.764,42.841c-0.302,0.043-0.566,0.026-0.793-0.051c-0.227-0.077-0.42-0.202-0.58-0.373
			c-0.16-0.172-0.287-0.385-0.381-0.64c-0.094-0.255-0.16-0.539-0.196-0.853c0.343-0.032,0.515-0.048,0.858-0.081
			c0.031,0.187,0.076,0.361,0.133,0.522c0.057,0.16,0.13,0.296,0.217,0.408c0.088,0.111,0.192,0.194,0.312,0.248
			c0.121,0.054,0.26,0.071,0.418,0.051c0.106-0.013,0.21-0.044,0.313-0.09c0.102-0.046,0.194-0.111,0.276-0.195
			c0.081-0.083,0.146-0.188,0.196-0.314c0.049-0.126,0.074-0.275,0.074-0.449c0-0.222-0.039-0.413-0.116-0.576
			c-0.077-0.162-0.179-0.308-0.305-0.438c-0.127-0.13-0.271-0.25-0.433-0.359c-0.162-0.11-0.327-0.221-0.496-0.335
			c-0.168-0.114-0.334-0.234-0.496-0.361c-0.163-0.127-0.307-0.274-0.435-0.44c-0.127-0.166-0.23-0.356-0.307-0.57
			c-0.078-0.214-0.117-0.463-0.118-0.747c-0.001-0.309,0.042-0.596,0.129-0.861c0.087-0.265,0.214-0.494,0.38-0.686
			c0.167-0.193,0.371-0.343,0.613-0.45c0.242-0.108,0.517-0.161,0.826-0.161c0.256,0,0.488,0.053,0.694,0.156
			c0.207,0.104,0.389,0.243,0.547,0.418c0.158,0.175,0.291,0.381,0.399,0.616c0.108,0.236,0.19,0.49,0.247,0.762
			c-0.313,0.013-0.469,0.019-0.781,0.031c-0.045-0.174-0.098-0.339-0.157-0.497c-0.059-0.157-0.133-0.295-0.221-0.415
			c-0.088-0.12-0.194-0.214-0.317-0.284c-0.123-0.07-0.272-0.104-0.445-0.102c-0.161,0.002-0.298,0.035-0.409,0.101
			c-0.111,0.065-0.201,0.148-0.27,0.247c-0.069,0.099-0.117,0.21-0.147,0.332c-0.029,0.122-0.044,0.242-0.043,0.36
			c0.001,0.204,0.041,0.387,0.121,0.55c0.08,0.163,0.186,0.311,0.317,0.445c0.132,0.134,0.281,0.26,0.447,0.379
			c0.166,0.119,0.336,0.238,0.51,0.355c0.174,0.118,0.344,0.239,0.511,0.365c0.167,0.126,0.316,0.266,0.447,0.421
			c0.131,0.155,0.236,0.328,0.315,0.521c0.079,0.193,0.119,0.414,0.119,0.665c0,0.295-0.042,0.574-0.127,0.838
			c-0.085,0.264-0.21,0.502-0.376,0.716c-0.166,0.213-0.372,0.393-0.618,0.537C-23.16,42.699-23.443,42.795-23.764,42.841z"/>
		<path fill="#FFFFFF" d="M-54.31,42.684c-0.001,0.233-0.002,0.35-0.003,0.584c-0.805-0.051-1.207-0.079-2.011-0.14
			c-0.012,2.471-0.018,3.707-0.029,6.178c-0.569-0.077-0.854-0.117-1.422-0.203c0.012-2.436,0.018-3.654,0.03-6.09
			c-0.803-0.069-1.205-0.105-2.007-0.184c0.001-0.221,0.002-0.331,0.003-0.552C-57.578,42.474-56.489,42.555-54.31,42.684z"/>
		<path fill="#FFFFFF" d="M-48.945,42.916c-0.001,0.241-0.001,0.361-0.001,0.601c-1.168-0.035-1.752-0.057-2.919-0.113
			c-0.003,0.922-0.005,1.383-0.008,2.305c0.97,0.059,1.456,0.084,2.427,0.125c-0.001,0.242-0.001,0.363-0.002,0.605
			c-0.971-0.043-1.457-0.069-2.427-0.132c-0.004,1.108-0.006,1.662-0.01,2.77c1.169,0.094,1.755,0.132,2.926,0.19
			c-0.001,0.29-0.001,0.435-0.002,0.726c-1.744-0.091-2.616-0.157-4.356-0.331c0.011-2.768,0.017-4.152,0.028-6.92
			C-51.553,42.833-50.684,42.868-48.945,42.916z"/>
		<path fill="#FFFFFF" d="M-47.759,42.944c0.365,0.007,0.547,0.011,0.912,0.016c1.326,1.831,1.991,2.75,3.324,4.557
			c-0.001-1.815-0.001-2.723-0.002-4.539c0.358-0.001,0.538-0.003,0.896-0.006c0.002,2.895,0.004,4.343,0.006,7.238
			c-0.248,0.004-0.372,0.006-0.62,0.009c-1.45-1.987-2.173-3.003-3.616-5.03c-0.003,1.955-0.004,2.933-0.007,4.888
			c-0.363-0.01-0.544-0.017-0.907-0.031C-47.767,47.205-47.764,45.785-47.759,42.944z"/>
		<path fill="#FFFFFF" d="M-41.196,42.953c0.365-0.006,0.547-0.01,0.912-0.019c1.332,1.775,2,2.65,3.335,4.342
			c-0.006-1.78-0.009-2.671-0.015-4.451c0.358-0.015,0.537-0.023,0.895-0.04c0.011,2.827,0.016,4.24,0.027,7.067
			c-0.247,0.023-0.371,0.033-0.618,0.054c-1.452-1.84-2.178-2.8-3.627-4.75c0.004,1.949,0.006,2.923,0.01,4.872
			c-0.363,0.016-0.544,0.023-0.907,0.035C-41.19,47.219-41.192,45.797-41.196,42.953z"/>
		<path fill="#FFFFFF" d="M-34.579,42.707c0.57-0.032,0.855-0.05,1.424-0.087c0.013,2.725,0.019,4.087,0.031,6.812
			c-0.57,0.07-0.855,0.103-1.426,0.164C-34.561,46.841-34.567,45.463-34.579,42.707z"/>
		<path fill="#FFFFFF" d="M-29.643,49.037c-0.347,0.057-0.651,0.058-0.912,0.005c-0.261-0.054-0.484-0.151-0.668-0.291
			c-0.184-0.14-0.331-0.319-0.439-0.535c-0.109-0.216-0.184-0.459-0.226-0.728c0.395-0.047,0.592-0.072,0.986-0.123
			c0.036,0.161,0.087,0.31,0.153,0.446c0.066,0.136,0.149,0.25,0.25,0.341c0.101,0.092,0.221,0.157,0.359,0.197
			c0.139,0.04,0.299,0.045,0.48,0.017c0.122-0.019,0.242-0.052,0.36-0.1c0.118-0.048,0.223-0.112,0.316-0.191
			c0.093-0.079,0.168-0.176,0.224-0.29s0.084-0.247,0.083-0.399c-0.001-0.195-0.046-0.36-0.134-0.496
			c-0.089-0.136-0.206-0.256-0.351-0.36c-0.146-0.104-0.312-0.197-0.498-0.281c-0.186-0.083-0.376-0.168-0.569-0.255
			c-0.193-0.087-0.383-0.179-0.57-0.278c-0.187-0.099-0.353-0.216-0.499-0.351c-0.146-0.135-0.264-0.293-0.353-0.473
			c-0.089-0.18-0.134-0.393-0.136-0.639c-0.001-0.268,0.048-0.52,0.147-0.756c0.099-0.237,0.245-0.445,0.435-0.627
			c0.191-0.181,0.424-0.329,0.701-0.445c0.276-0.116,0.591-0.187,0.944-0.217c0.293-0.025,0.558-0.002,0.794,0.068
			c0.236,0.07,0.445,0.174,0.626,0.311c0.181,0.138,0.333,0.305,0.458,0.501c0.124,0.197,0.219,0.412,0.285,0.646
			c-0.357,0.043-0.536,0.064-0.894,0.106c-0.052-0.148-0.112-0.289-0.181-0.421c-0.068-0.132-0.153-0.246-0.254-0.343
			c-0.101-0.096-0.222-0.169-0.363-0.218c-0.141-0.049-0.311-0.065-0.509-0.047c-0.184,0.017-0.34,0.059-0.468,0.126
			c-0.127,0.067-0.23,0.147-0.308,0.239c-0.078,0.092-0.134,0.193-0.168,0.302c-0.034,0.109-0.05,0.215-0.049,0.317
			c0.001,0.177,0.047,0.334,0.139,0.469c0.092,0.135,0.213,0.256,0.364,0.362c0.151,0.106,0.322,0.204,0.512,0.294
			c0.19,0.09,0.385,0.179,0.585,0.267c0.2,0.088,0.395,0.18,0.587,0.275c0.192,0.096,0.363,0.205,0.514,0.33
			c0.151,0.124,0.272,0.268,0.363,0.43c0.091,0.163,0.138,0.354,0.138,0.576c0.001,0.26-0.046,0.51-0.143,0.75
			c-0.096,0.24-0.239,0.461-0.429,0.662c-0.19,0.201-0.426,0.375-0.708,0.519C-28.948,48.873-29.274,48.977-29.643,49.037z"/>
	</g>
</g>
<g>
	<path fill="#565656" d="M67.359,17.776h-49.31c-0.907,0-1.641,0.734-1.641,1.64v48.133c0,0.908,0.734,1.642,1.641,1.642h49.31
		c0.907,0,1.641-0.735,1.641-1.642V19.417C69,18.51,68.265,17.776,67.359,17.776z"/>
	<g>
		<path fill="#FFFFFF" d="M44.016,45.992l-1.659-1.288c-0.505-0.419-1.196-0.972-1.196-1.985c0-1.017,0.691-1.663,1.291-2.262
			c1.933-1.521,3.864-3.141,3.864-6.553c0-3.509-2.208-5.355-3.266-6.23h2.853l2.995-1.882h-9.072c-2.489,0-6.077,0.589-8.703,2.757
			c-1.98,1.708-2.945,4.063-2.945,6.183c0,3.599,2.763,7.247,7.642,7.247c0.461,0,0.965-0.045,1.472-0.092
			c-0.228,0.554-0.458,1.016-0.458,1.8c0,1.429,0.734,2.306,1.382,3.136c-2.073,0.142-5.944,0.372-8.797,2.126
			c-2.717,1.616-3.544,3.968-3.544,5.628c0,3.417,3.22,6.599,9.898,6.599c7.919,0,12.111-4.382,12.111-8.72
			C47.884,49.268,46.043,47.699,44.016,45.992z M37.984,40.686c-3.962,0-5.756-5.121-5.756-8.211c0-1.203,0.228-2.445,1.011-3.415
			c0.739-0.924,2.025-1.523,3.226-1.523c3.819,0,5.8,5.167,5.8,8.49c0,0.831-0.092,2.305-1.151,3.37
			C40.374,40.135,39.135,40.686,37.984,40.686z M38.03,59.241c-4.926,0-8.103-2.357-8.103-5.633c0-3.276,2.946-4.384,3.959-4.751
			c1.933-0.65,4.42-0.741,4.835-0.741c0.46,0,0.691,0,1.057,0.046c3.502,2.492,5.022,3.735,5.022,6.094
			C44.8,57.113,42.451,59.241,38.03,59.241z"/>
		<polygon fill="#FFFFFF" points="55.644,40.616 55.644,36.002 53.365,36.002 53.365,40.616 48.759,40.616 48.759,42.92 
			53.365,42.92 53.365,47.561 55.644,47.561 55.644,42.92 60.273,42.92 60.273,40.616 		"/>
	</g>
</g>
</svg>
