<?xml version="1.0" encoding="utf-8"?>
<!-- Generator: Adobe Illustrator 17.0.0, SVG Export Plug-In . SVG Version: 6.00 Build 0)  -->
<!DOCTYPE svg PUBLIC "-//W3C//DTD SVG 1.1//EN" "http://www.w3.org/Graphics/SVG/1.1/DTD/svg11.dtd">
<svg version="1.1" id="Layer_1" xmlns="http://www.w3.org/2000/svg" xmlns:xlink="http://www.w3.org/1999/xlink" x="0px" y="0px"
	 width="600px" height="600px" viewBox="0 0 600 600" enable-background="new 0 0 600 600" xml:space="preserve">
<circle fill="#A5554A" stroke="#493405" stroke-width="12.1667" stroke-miterlimit="10" cx="299.464" cy="300.465" r="289.216"/>
<path fill="#576072" d="M8,290.804l289.567,17.642l290.783-17.642c0,0,1.825-274.967-292-275.575
	C296.35,15.229,60.317-4.237,8,290.804z"/>
<polygon fill="#A5554A" points="592,304.796 471.956,305.202 584.7,250.046 "/>
<polygon fill="#A5554A" points="9.217,302.363 126.017,302.363 16.517,248.829 "/>
<path fill="#576072" stroke="#B9C0B5" stroke-width="12.1667" stroke-miterlimit="10" d="M584.092,247.004
	c0.08,2.159-112.212,51.139-112.212,53.317c0,95.667-77.553,173.22-173.22,173.22s-173.22-77.553-173.22-173.22
	c0-1.955-109.392-51.175-109.328-53.114"/>
<path fill="#B9C0B5" stroke="#493405" stroke-width="12.1667" stroke-miterlimit="10" d="M298.66,10.971"/>
<circle fill="none" cx="298.35" cy="301.064" r="205.335"/>
<g>
	<path fill="#B9C0B5" d="M77.604,350.192l-35.01-5.205l-0.127-0.645l30.333-18.724l-32.025,6.26l-1.807-9.241l51.44-10.057
		l2.269,11.606L66.324,340.05l30.331,4.483l2.172,11.106l-51.441,10.055l-1.806-9.241L77.604,350.192z"/>
	<path fill="#B9C0B5" d="M110.302,382.463l-41.936,35.043l-4.035-9.309l7.871-6.435l-6.822-15.741l-10.049,1.412l-4.035-9.309
		l54.245-6.645L110.302,382.463z M74.874,384.611l4.819,11.119l17.052-14.072L74.874,384.611z"/>
	<path fill="#B9C0B5" d="M100.631,430.58l-4.175-6.076l-16.424,11.289l-5.335-7.761l43.196-29.688l11.081,16.124
		c1.351,1.964,2.285,3.967,2.798,6.005c0.516,2.038,0.594,4.021,0.236,5.949s-1.156,3.776-2.393,5.542
		c-1.237,1.766-2.899,3.365-4.983,4.799c-6.098,4.191-11.985,4.516-17.663,0.979l-11.765,20.131l-5.747-8.362L100.631,430.58z
		 M115.587,411.356l-11.431,7.856l5.624,8.18c2.59,3.77,5.691,4.415,9.301,1.934c4.01-2.755,4.721-6.02,2.129-9.79L115.587,411.356z
		"/>
	<path fill="#B9C0B5" d="M152.227,462.971c0.315-2.345,0.203-4.357-0.333-6.036c-0.538-1.68-1.503-3.2-2.897-4.559
		c-2.613-2.549-5.678-3.482-9.197-2.802c-3.52,0.681-7.08,2.867-10.681,6.56c-1.699,1.743-3.045,3.539-4.037,5.393
		c-0.992,1.854-1.624,3.684-1.893,5.496c-0.271,1.81-0.181,3.513,0.27,5.107c0.449,1.595,1.302,3.004,2.557,4.226
		c1.183,1.156,2.727,2.014,4.627,2.576c1.899,0.562,3.744,0.796,5.532,0.706l1.87,9.269c-7.69,1.61-14.182-0.168-19.476-5.332
		c-2.266-2.21-3.853-4.711-4.766-7.503c-0.912-2.793-1.207-5.716-0.883-8.766c0.323-3.05,1.257-6.117,2.802-9.197
		c1.545-3.082,3.676-6.017,6.396-8.803c2.65-2.718,5.48-4.905,8.487-6.559c3.007-1.656,6.014-2.699,9.02-3.133
		c3.006-0.434,5.925-0.22,8.759,0.64c2.831,0.86,5.432,2.443,7.803,4.755c5.817,5.675,7.741,12.379,5.773,20.112L152.227,462.971z"
		/>
	<path fill="#B9C0B5" d="M179.115,501.03l-14.829-9.466l-11.979,18.768l-7.938-5.067l28.2-44.18l7.938,5.066l-11.233,17.599
		l14.829,9.466l11.234-17.599l7.876,5.027l-28.201,44.181l-7.876-5.027L179.115,501.03z"/>
	<path fill="#B9C0B5" d="M245.467,505.989l-11.805,41.496l-9.689-2.757l11.805-41.496l-12.849-3.656l2.537-8.917l35.246,10.028
		l-2.537,8.917L245.467,505.989z"/>
	<path fill="#B9C0B5" d="M264.407,501.049l28.751,3.013l-0.966,9.221l-19.386-2.033l-1.21,11.544l12.053,1.264l-0.967,9.22
		l-12.051-1.264l-1.356,12.924l19.386,2.033l-0.967,9.22l-28.75-3.013L264.407,501.049z"/>
	<path fill="#B9C0B5" d="M309.827,521.486l2.831,34.486l-9.313,0.765l-4.289-52.238l10.767-0.885l19.513,31.577l-2.707-32.957
		l9.314-0.766l4.289,52.238l-10.04,0.827L309.827,521.486z"/>
	<path fill="#B9C0B5" d="M355.696,514.815l9.866,33.166l-8.956,2.664l-14.946-50.239l10.355-3.081l25.594,26.888l-9.43-31.696
		l8.956-2.664l14.947,50.239l-9.656,2.872L355.696,514.815z"/>
	<path fill="#B9C0B5" d="M383.49,486.34l8.529-3.993l22.227,47.469l-8.529,3.992L383.49,486.34z"/>
	<path fill="#B9C0B5" d="M439.989,516.105c-2.249,1.452-4.812,2.596-7.686,3.436c-2.874,0.842-5.666,1.18-8.378,1.018l-1.878-9.648
		c2.252,0.171,4.505,0.048,6.759-0.362c2.253-0.411,4.362-1.251,6.326-2.515c2.208-1.425,3.524-2.954,3.947-4.587
		c0.424-1.633,0.081-3.31-1.027-5.028c-0.474-0.735-1.055-1.274-1.737-1.615c-0.684-0.342-1.47-0.573-2.358-0.695
		c-0.89-0.121-1.912-0.156-3.065-0.107c-1.156,0.05-2.408,0.105-3.759,0.165c-1.675,0.096-3.491,0.267-5.445,0.514
		c-1.954,0.248-3.905,0.274-5.853,0.082c-1.947-0.19-3.822-0.718-5.625-1.583c-1.804-0.864-3.403-2.381-4.801-4.549
		c-1.212-1.88-1.903-3.781-2.07-5.701c-0.166-1.919,0.078-3.785,0.733-5.599c0.656-1.813,1.663-3.504,3.024-5.077
		c1.36-1.571,2.941-2.937,4.741-4.099c2.33-1.503,4.674-2.651,7.028-3.447c2.355-0.793,4.744-1.104,7.172-0.933l2.954,9.562
		c-2.197-0.261-4.224-0.171-6.08,0.272c-1.856,0.444-3.827,1.339-5.913,2.684c-1.84,1.186-3.118,2.418-3.832,3.688
		c-0.715,1.271-0.769,2.376-0.163,3.318c0.845,1.308,2.211,1.991,4.099,2.046c1.89,0.057,4.396-0.053,7.517-0.332
		c2.475-0.204,4.801-0.301,6.982-0.286c2.18,0.012,4.191,0.234,6.033,0.668c1.843,0.434,3.513,1.137,5.009,2.11
		c1.498,0.977,2.8,2.322,3.908,4.04c2.875,4.458,3.645,8.594,2.311,12.407C447.528,509.767,444.569,513.151,439.989,516.105z"/>
	<path fill="#B9C0B5" d="M476.622,431.584c-2.361-0.15-4.359,0.101-5.998,0.754c-1.638,0.654-3.087,1.723-4.345,3.207
		c-2.358,2.786-3.075,5.91-2.151,9.372c0.926,3.463,3.357,6.863,7.292,10.197c1.857,1.573,3.744,2.79,5.662,3.65
		c1.919,0.859,3.791,1.362,5.615,1.504c1.825,0.143,3.517-0.067,5.076-0.627c1.56-0.56,2.905-1.51,4.039-2.847
		c1.068-1.262,1.818-2.86,2.244-4.794c0.428-1.935,0.532-3.79,0.316-5.57l9.115-2.514c2.146,7.559,0.826,14.158-3.957,19.802
		c-2.045,2.414-4.428,4.175-7.151,5.279c-2.722,1.107-5.616,1.605-8.681,1.496c-3.065-0.109-6.189-0.826-9.372-2.152
		c-3.183-1.325-6.259-3.246-9.23-5.764c-2.897-2.454-5.275-5.122-7.137-8.007c-1.862-2.885-3.113-5.81-3.756-8.78
		c-0.643-2.967-0.634-5.894,0.025-8.78s2.058-5.591,4.198-8.116c5.253-6.201,11.807-8.59,19.659-7.168L476.622,431.584z"/>
	<path fill="#B9C0B5" d="M473.167,410.967l4.628-8.203l37.575,21.201l10.331-18.311l8.075,4.555l-14.959,26.512L473.167,410.967z"/>
	<path fill="#B9C0B5" d="M545.694,381.606c-0.946,2.764-2.233,5.088-3.856,6.974c-1.624,1.887-3.484,3.295-5.577,4.224
		c-2.094,0.929-4.414,1.394-6.961,1.395c-2.546,0.001-5.224-0.48-8.032-1.441l-31.835-10.914l3.03-8.837l31.56,10.818
		c3.637,1.246,6.456,1.39,8.456,0.428c2.002-0.959,3.484-2.843,4.446-5.652c0.899-2.625,0.834-4.871-0.196-6.743
		c-1.031-1.87-3.365-3.429-7.002-4.677l-31.56-10.818l3.055-8.908l31.558,10.818c2.855,0.978,5.318,2.235,7.389,3.768
		c2.073,1.534,3.667,3.301,4.78,5.303c1.116,2.004,1.751,4.202,1.907,6.598C547.012,376.335,546.626,378.891,545.694,381.606z"/>
	<path fill="#B9C0B5" d="M504.74,324.736c0.259-1.88,0.822-3.631,1.684-5.256c0.864-1.624,1.975-2.995,3.332-4.11
		c1.358-1.113,2.98-1.921,4.867-2.421c1.888-0.501,3.987-0.593,6.302-0.273c2.025,0.28,3.741,0.836,5.149,1.669
		c1.408,0.834,2.587,1.905,3.535,3.215c0.52-0.91,1.191-1.763,2.012-2.56c0.822-0.794,1.786-1.458,2.892-1.995
		c1.105-0.533,2.374-0.911,3.805-1.132c1.43-0.219,3.013-0.21,4.749,0.03c5.11,0.706,8.858,2.747,11.24,6.121
		c2.383,3.376,3.182,7.91,2.396,13.597l-2.398,17.354l-51.921-7.172L504.74,324.736z M512.855,333.743l11.498,1.586l1.099-7.953
		c0.179-1.302-0.257-2.492-1.312-3.57c-1.055-1.08-2.353-1.725-3.897-1.939c-1.542-0.213-2.931,0.062-4.166,0.826
		c-1.236,0.762-1.944,1.794-2.123,3.095L512.855,333.743z M533.537,336.599l12.871,1.777l1.309-9.472
		c0.239-1.737-0.141-3.251-1.142-4.543c-1.002-1.292-2.537-2.083-4.611-2.368c-2.023-0.28-3.655,0.061-4.893,1.018
		c-1.238,0.96-1.97,2.259-2.197,3.897L533.537,336.599z"/>
</g>
<g>
	<g>
		<polygon fill="#B9C0B5" points="150.2,128.189 275.249,247.246 273.947,249.851 148.54,129.479 		"/>
	</g>
	<g>
		<polygon fill="#B9C0B5" points="167.834,120.113 286.712,231.776 285.474,234.22 166.256,121.323 		"/>
	</g>
	<polygon fill="#B9C0B5" points="137.435,140.954 262.484,260.011 261.181,262.616 135.775,142.245 	"/>
	<polygon fill="#B9C0B5" points="118.822,169.351 235.13,280.249 233.918,282.676 117.278,170.553 	"/>
	<g>
		<polygon fill="#B9C0B5" points="187.39,118.289 287.951,212.362 286.903,214.42 186.055,119.309 		"/>
	</g>
	<g>
		<polygon fill="#B9C0B5" points="116.529,189.15 217.089,283.223 216.042,285.281 115.194,190.17 		"/>
	</g>
	<g>
		<g>
			<g>
				<path fill="#B9C0B5" d="M318.001,303.905c0,0-29.559-25.072-28.659-62.668c0,0,0-46.571-10.769-59.981
					c0,0,12.082,54.944-10.96,80.107c-23.057,25.117-80.367,14.791-80.367,14.791s21.492,12.547,66.27,8.945
					c0,0,35.818,10.746,51.929,29.559L318.001,303.905z"/>
				<path fill="#B9C0B5" d="M319.161,302.531L319.161,302.531c-0.29-0.237-28.888-24.995-28.018-61.256
					c0-1.969-0.13-47.396-11.166-61.141l-3.16,1.511c0.122,0.542,11.609,54.333-10.525,78.504
					c-22.126,24.102-78.146,14.341-78.718,14.242l-1.221,3.32c0.901,0.527,22.5,12.792,67.316,9.189l-0.664-0.076
					c0.351,0.115,35.497,10.83,51.074,29.002l1.175,1.366l1.359-1.16l12.555-10.746l1.603-1.381L319.161,302.531z M306.82,313.483
					c-16.264-18.981-51.296-29.666-52.784-30.101l-0.321-0.107l-0.336,0.031c-43.564,3.496-65.003-8.586-65.217-8.708l-1.214,3.328
					c2.374,0.435,58.546,10.204,82.008-15.348c23.4-25.552,11.891-79.428,11.387-81.717l-3.16,1.511
					c10.242,12.776,10.364,58.401,10.364,58.859c-0.908,37.97,28.056,62.996,29.285,64.041l-0.008-2.74l-12.547,10.754
					L306.82,313.483z"/>
			</g>
			<g>
				<path fill="#B9C0B5" d="M365.236,379.524c5.991,6.205,14.577,7.594,19.225,3.137l0,0c4.61-4.503,3.511-13.143-2.511-19.34
					l-44.938-46.373c-5.984-6.19-14.6-7.594-19.218-3.122l0,0c-4.633,4.48-3.48,13.127,2.503,19.325L365.236,379.524z"/>
				<path fill="#B9C0B5" d="M363.939,380.776c6.655,6.892,16.417,8.319,21.767,3.19c5.32-5.205,4.213-15.02-2.465-21.897
					l-44.931-46.365c-3.793-3.931-8.663-6.22-13.364-6.289c-3.343-0.061-6.243,1.023-8.403,3.122
					c-5.32,5.144-4.213,14.951,2.458,21.866L363.939,380.776z M321.588,331.907c-5.289-5.503-6.434-13.02-2.542-16.783
					c1.45-1.427,3.48-2.137,5.846-2.106c3.686,0.053,7.747,2,10.83,5.19l44.931,46.373c5.304,5.472,6.449,13.005,2.549,16.806
					c-3.908,3.755-11.395,2.366-16.669-3.106L321.588,331.907z"/>
			</g>
			<g>
				<path fill="#B9C0B5" d="M245.381,153.567c11.7,10.906,20.66,24.034,25.896,37.993c9.327,24.713,6.167,48.831-8.449,64.53
					c-9.487,10.181-22.79,15.867-38.474,16.424c-22.355,0.794-46.06-8.884-65.011-26.545
					c-33.337-31.032-41.168-77.016-17.447-102.508c9.487-10.181,22.782-15.867,38.451-16.432
					C202.71,126.244,226.415,135.906,245.381,153.567z M131.357,133.654c-29.132,31.299-20.981,86.419,18.172,122.855
					c21.729,20.248,49.189,31.322,75.345,30.384c19.294-0.679,36.52-8.136,48.502-21.004c18.432-19.79,22.683-49.472,11.387-79.405
					c-6.014-16.02-16.241-31.055-29.567-43.45c-21.736-20.248-49.205-31.322-75.36-30.391
					C160.542,113.33,143.324,120.794,131.357,133.654z"/>
			</g>
		</g>
		<g>
			<polygon fill="#B9C0B5" points="129.098,155.804 254.147,274.861 252.845,277.466 127.438,157.094 			"/>
		</g>
		<g>
			<polygon fill="#B9C0B5" points="119.199,199.05 202.044,116.726 203.346,118.549 120.501,201.394 			"/>
		</g>
		<g>
			<polygon fill="#B9C0B5" points="134.309,213.118 217.154,130.794 218.456,132.617 135.611,215.462 			"/>
		</g>
		<g>
			<polygon fill="#B9C0B5" points="143.427,230.863 236.788,140.433 238.256,142.436 144.895,233.438 			"/>
		</g>
		<g>
			<polygon fill="#B9C0B5" points="158.537,245.705 250.102,155.022 251.542,157.031 159.977,248.288 			"/>
		</g>
		<g>
			<polygon fill="#B9C0B5" points="172.345,257.682 264.423,166.745 265.871,168.76 173.792,260.272 			"/>
		</g>
		<g>
			<polygon fill="#B9C0B5" points="191.102,269.129 273.947,186.805 275.249,188.629 192.404,271.474 			"/>
		</g>
		<g>
			<polygon fill="#B9C0B5" points="205.43,281.2 285.71,201.915 286.973,203.672 206.693,283.458 			"/>
		</g>
	</g>
	<g>
		<polygon fill="#B9C0B5" points="150.2,128.189 275.249,247.246 273.947,249.851 148.54,129.479 		"/>
	</g>
	<g>
		<polygon fill="#B9C0B5" points="167.834,120.113 286.712,231.776 285.474,234.22 166.256,121.323 		"/>
	</g>
	<polygon fill="#B9C0B5" points="137.435,140.954 262.484,260.011 261.181,262.616 135.775,142.245 	"/>
	<polygon fill="#B9C0B5" points="118.822,169.351 235.13,280.249 233.918,282.676 117.278,170.553 	"/>
	<g>
		<polygon fill="#B9C0B5" points="187.39,118.289 287.951,212.362 286.903,214.42 186.055,119.309 		"/>
	</g>
	<g>
		<polygon fill="#B9C0B5" points="116.529,189.15 217.089,283.223 216.042,285.281 115.194,190.17 		"/>
	</g>
	<g>
		<g>
			<g>
				<g>
					<path fill="#B9C0B5" d="M278.349,303.905c0,0,29.559-25.072,28.659-62.668c0,0,0-46.571,10.769-59.981
						c0,0-12.082,54.944,10.96,80.107c23.057,25.117,80.367,14.791,80.367,14.791s-21.492,12.547-66.27,8.945
						c0,0-35.818,10.746-51.929,29.559L278.349,303.905z"/>
					<path fill="#B9C0B5" d="M275.579,303.905l1.603,1.381l12.555,10.746l1.359,1.16l1.175-1.366
						c15.577-18.172,50.723-28.888,51.074-29.002l-0.664,0.076c44.816,3.602,66.415-8.663,67.316-9.189l-1.221-3.32
						c-0.572,0.099-56.592,9.861-78.718-14.242c-22.133-24.171-10.647-77.963-10.525-78.504l-3.16-1.511
						c-11.036,13.746-11.166,59.172-11.166,61.141c0.87,36.26-27.728,61.019-28.018,61.256l0,0L275.579,303.905z M292.072,313.285
						l-12.547-10.754l-0.008,2.74c1.229-1.046,30.193-26.071,29.285-64.041c0-0.458,0.122-46.083,10.364-58.859l-3.16-1.511
						c-0.504,2.29-12.013,56.165,11.387,81.717c23.461,25.552,79.634,15.783,82.008,15.348l-1.214-3.328
						c-0.214,0.122-21.652,12.204-65.217,8.708l-0.336-0.031l-0.321,0.107c-1.488,0.435-36.52,11.12-52.784,30.101L292.072,313.285z
						"/>
				</g>
				<g>
					<path fill="#B9C0B5" d="M231.114,379.524c-5.991,6.205-14.577,7.594-19.225,3.137l0,0c-4.61-4.503-3.511-13.143,2.511-19.34
						l44.938-46.373c5.984-6.19,14.6-7.594,19.218-3.122l0,0c4.633,4.48,3.48,13.127-2.503,19.325L231.114,379.524z"/>
					<path fill="#B9C0B5" d="M277.349,334.403c6.671-6.915,7.777-16.722,2.458-21.866c-2.16-2.099-5.06-3.183-8.403-3.122
						c-4.701,0.069-9.571,2.358-13.364,6.289l-44.931,46.365c-6.678,6.877-7.785,16.692-2.465,21.897
						c5.35,5.129,15.112,3.702,21.767-3.19L277.349,334.403z M229.816,378.28c-5.274,5.472-12.761,6.861-16.669,3.106
						c-3.9-3.801-2.755-11.334,2.549-16.806l44.931-46.373c3.083-3.19,7.144-5.136,10.83-5.19c2.366-0.031,4.396,0.679,5.846,2.106
						c3.892,3.763,2.748,11.28-2.542,16.783L229.816,378.28z"/>
				</g>
				<g>
					<path fill="#B9C0B5" d="M416.003,127.03c15.669,0.565,28.964,6.251,38.451,16.432c23.721,25.491,15.89,71.475-17.447,102.508
						c-18.951,17.661-42.656,27.338-65.011,26.545c-15.684-0.557-28.987-6.243-38.474-16.424
						c-14.616-15.699-17.775-39.817-8.449-64.53c5.236-13.959,14.196-27.087,25.896-37.993
						C369.935,135.906,393.64,126.244,416.003,127.03z M416.514,112.643c-26.155-0.931-53.624,10.143-75.36,30.391
						c-13.326,12.395-23.553,27.43-29.567,43.45c-11.296,29.933-7.044,59.615,11.387,79.405
						c11.982,12.868,29.208,20.324,48.502,21.004c26.155,0.939,53.616-10.135,75.345-30.384
						c39.153-36.436,47.304-91.555,18.172-122.855C453.026,120.794,435.808,113.33,416.514,112.643z"/>
				</g>
			</g>
			<g>
				<polygon fill="#B9C0B5" points="467.252,155.804 342.203,274.861 343.505,277.466 468.912,157.094 				"/>
			</g>
			<g>
				<polygon fill="#B9C0B5" points="477.151,199.05 394.306,116.726 393.004,118.549 475.849,201.394 				"/>
			</g>
			<g>
				<polygon fill="#B9C0B5" points="462.041,213.118 379.196,130.794 377.894,132.617 460.739,215.462 				"/>
			</g>
			<g>
				<polygon fill="#B9C0B5" points="452.923,230.863 359.562,140.433 358.094,142.436 451.455,233.438 				"/>
			</g>
			<g>
				<polygon fill="#B9C0B5" points="437.813,245.705 346.248,155.022 344.808,157.031 436.373,248.288 				"/>
			</g>
			<g>
				<polygon fill="#B9C0B5" points="424.005,257.682 331.927,166.745 330.479,168.76 422.558,260.272 				"/>
			</g>
			<g>
				<polygon fill="#B9C0B5" points="405.248,269.129 322.403,186.805 321.101,188.629 403.946,271.474 				"/>
			</g>
			<g>
				<polygon fill="#B9C0B5" points="390.92,281.2 310.64,201.915 309.377,203.672 389.657,283.458 				"/>
			</g>
		</g>
	</g>
	<g>
		<polygon fill="#B9C0B5" points="446.15,128.189 321.101,247.246 322.403,249.851 447.81,129.479 		"/>
	</g>
	<g>
		<polygon fill="#B9C0B5" points="428.516,120.113 309.638,231.776 310.876,234.22 430.094,121.323 		"/>
	</g>
	<polygon fill="#B9C0B5" points="458.915,140.954 333.866,260.011 335.169,262.616 460.575,142.245 	"/>
	<polygon fill="#B9C0B5" points="477.528,169.351 361.22,280.249 362.432,282.676 479.072,170.553 	"/>
	<g>
		<polygon fill="#B9C0B5" points="408.96,118.289 308.4,212.362 309.447,214.42 410.295,119.309 		"/>
	</g>
	<g>
		<polygon fill="#B9C0B5" points="479.821,189.15 379.261,283.223 380.308,285.281 481.156,190.17 		"/>
	</g>
</g>
<g>
	<path fill="#B9C0B5" d="M296.476,119.33c15.784,0.916,29.299-11.064,30.21-26.768c0.121-2.077,0.009-4.129-0.307-6.092
		c-2.733,1.469-9.173,5.654-13.304,14.082c-0.235,0.432-5.67,10.428-14.855,12.129c-4.983,0.914-9.987-0.773-14.865-4.998
		l0.139,0.099c-0.274-0.188-6.745-5.091-7.024-12.582c-0.179-4.967,2.371-9.755,7.57-14.206l0.159-0.141l0.2-0.112
		c4.437-2.519,15.708-10.538,16.356-18.18c-0.331-0.03-0.652-0.059-0.984-0.079c-15.773-0.916-29.304,11.059-30.215,26.763
		C268.65,104.949,280.703,118.414,296.476,119.33z"/>
	<path fill="#B9C0B5" d="M286.788,84.461c-4.026,3.488-6.016,7.046-5.902,10.548c0.177,5.37,5.191,9.2,5.237,9.23l0.072,0.063
		l0.056,0.046c3.82,3.31,7.565,4.655,11.164,3.994c7.083-1.291,11.738-9.78,11.75-9.795c5.198-10.622,13.653-15.292,16.161-16.489
		c-3.028-9.166-10.591-16.366-20.216-18.751C303.853,74.131,288.845,83.26,286.788,84.461z"/>
</g>
<circle fill="none" stroke="#B9C0B5" stroke-width="12.1667" stroke-miterlimit="10" cx="299.464" cy="300.465" r="289.216"/>
<g>
	<path fill="#B9C0B5" d="M255.835,391.35h9.636v3.089h-6.497v3.869h4.04v3.092h-4.04v4.331h6.497v3.09h-9.636V391.35z"/>
	<path fill="#B9C0B5" d="M273.16,409.065c-0.892,0-1.817-0.143-2.774-0.427c-0.957-0.283-1.801-0.694-2.531-1.229l1.217-3.042
		c0.6,0.454,1.254,0.827,1.959,1.119c0.705,0.292,1.448,0.438,2.226,0.438c0.876,0,1.521-0.191,1.935-0.572
		c0.413-0.381,0.62-0.913,0.62-1.594c0-0.292-0.065-0.547-0.194-0.766c-0.13-0.22-0.308-0.427-0.536-0.62
		c-0.227-0.195-0.507-0.39-0.839-0.583c-0.333-0.195-0.693-0.406-1.082-0.633c-0.487-0.276-1.027-0.555-1.618-0.84
		c-0.592-0.283-1.144-0.627-1.655-1.034c-0.511-0.406-0.941-0.892-1.289-1.46c-0.349-0.567-0.523-1.282-0.523-2.141
		c0-0.746,0.15-1.403,0.45-1.971c0.3-0.568,0.706-1.046,1.217-1.435c0.511-0.39,1.098-0.682,1.764-0.877
		c0.665-0.195,1.354-0.292,2.069-0.292c0.924,0,1.788,0.102,2.591,0.304c0.803,0.204,1.529,0.549,2.178,1.035l-0.9,3.212
		c-0.569-0.47-1.153-0.81-1.753-1.022c-0.6-0.21-1.314-0.316-2.141-0.316c-0.73,0-1.31,0.114-1.74,0.34
		c-0.43,0.228-0.645,0.528-0.645,0.901c0,0.52,0.259,0.958,0.779,1.314c0.519,0.358,1.241,0.779,2.165,1.267
		c0.73,0.389,1.399,0.782,2.007,1.179c0.608,0.399,1.132,0.825,1.57,1.278c0.438,0.454,0.779,0.953,1.022,1.497
		c0.244,0.543,0.365,1.155,0.365,1.837c0,1.768-0.532,3.065-1.594,3.892C276.416,408.65,274.977,409.065,273.16,409.065z"/>
	<path fill="#B9C0B5" d="M288.417,394.44v14.381h-3.358V394.44h-4.453v-3.089h12.215v3.089H288.417z"/>
	<path fill="#B9C0B5" d="M302.894,395.706h-1.533v-2.848c1.184-0.129,1.857-0.633,2.02-1.508h2.603v17.471h-3.09V395.706z"/>
	<path fill="#B9C0B5" d="M314.088,391.106c0.828,0,1.561,0.166,2.202,0.499c0.642,0.333,1.181,0.803,1.618,1.412
		c0.438,0.608,0.771,1.347,0.998,2.215c0.227,0.867,0.341,1.837,0.341,2.909c0,1.41-0.191,2.761-0.572,4.05
		c-0.383,1.289-0.913,2.433-1.594,3.431c-0.682,0.997-1.488,1.8-2.421,2.408c-0.933,0.608-1.958,0.937-3.077,0.986l-0.366-2.944
		c0.99-0.081,1.902-0.471,2.737-1.169c0.836-0.696,1.448-1.661,1.837-2.894c-0.356,0.276-0.758,0.499-1.204,0.669
		c-0.446,0.17-0.88,0.255-1.301,0.255c-0.699,0-1.339-0.138-1.922-0.413c-0.585-0.276-1.084-0.665-1.497-1.169
		c-0.413-0.501-0.739-1.103-0.974-1.8s-0.352-1.467-0.352-2.311c0-2.06,0.494-3.598,1.484-4.612
		C311.014,391.614,312.369,391.106,314.088,391.106z M313.747,399.94c0.731,0,1.307-0.244,1.728-0.731
		c0.423-0.486,0.633-1.192,0.633-2.117c0-0.924-0.198-1.63-0.596-2.116c-0.398-0.486-0.945-0.731-1.642-0.731
		c-0.731,0-1.306,0.235-1.729,0.706c-0.421,0.471-0.632,1.169-0.632,2.094c0,0.924,0.203,1.638,0.608,2.141
		C312.523,399.689,313.066,399.94,313.747,399.94z"/>
	<path fill="#B9C0B5" d="M323.48,408.821c0.081-1.428,0.232-2.823,0.45-4.185c0.22-1.364,0.514-2.661,0.888-3.895
		c0.373-1.232,0.82-2.383,1.339-3.455c0.519-1.069,1.119-2.02,1.8-2.847h-6.789v-3.089h10.708v3.333
		c-0.73,0.633-1.404,1.465-2.02,2.494c-0.617,1.031-1.148,2.17-1.595,3.419c-0.446,1.25-0.794,2.578-1.046,3.99
		c-0.252,1.412-0.385,2.823-0.402,4.235H323.48z"/>
	<path fill="#B9C0B5" d="M339.03,409.04c-0.99,0-1.89-0.118-2.701-0.352c-0.813-0.235-1.606-0.621-2.386-1.157l1.558-2.992
		c0.697,0.486,1.322,0.832,1.874,1.034c0.551,0.203,1.079,0.304,1.583,0.304c0.404,0,0.794-0.057,1.167-0.171
		c0.373-0.113,0.694-0.291,0.962-0.535c0.266-0.244,0.482-0.548,0.644-0.913c0.162-0.365,0.244-0.798,0.244-1.302
		c0-0.501-0.07-0.941-0.207-1.314c-0.139-0.373-0.321-0.681-0.548-0.924c-0.228-0.242-0.491-0.421-0.791-0.535
		c-0.299-0.114-0.604-0.171-0.913-0.171c-0.681,0-1.183,0.097-1.509,0.292c-0.323,0.195-0.632,0.519-0.924,0.973l-2.919-1.242
		l0.754-8.685h9.075v3.089h-6.374l-0.244,2.994c0.356-0.228,0.722-0.378,1.095-0.452c0.373-0.072,0.753-0.109,1.143-0.109
		c1.72,0,3.046,0.511,3.979,1.533s1.398,2.443,1.398,4.258c0,2.094-0.506,3.679-1.521,4.757
		C342.456,408.5,340.976,409.04,339.03,409.04z"/>
</g>
</svg>
