<?xml version="1.0" encoding="utf-8"?>
<!-- Generator: Adobe Illustrator 17.0.0, SVG Export Plug-In . SVG Version: 6.00 Build 0)  -->
<!DOCTYPE svg PUBLIC "-//W3C//DTD SVG 1.1//EN" "http://www.w3.org/Graphics/SVG/1.1/DTD/svg11.dtd">
<svg version="1.1" id="Your_Icon" xmlns="http://www.w3.org/2000/svg" xmlns:xlink="http://www.w3.org/1999/xlink" x="0px" y="0px"
	 width="100px" height="100px" viewBox="0 0 100 100" enable-background="new 0 0 100 100" xml:space="preserve">
<g>
	<g>
		<g>
			<g>
				<path fill="#565F71" d="M28.744,66.614c0,0,9.424-7.987,9.14-19.978c0,0,0-14.843,3.424-19.127c0,0-3.849,17.532,3.498,25.544
					c7.347,8.014,25.612,4.714,25.612,4.714s-6.85,4-21.118,2.856c0,0-11.417,3.424-16.555,9.422L28.744,66.614z"/>
				<path fill="#565F71" d="M29.035,66.957c0.095-0.081,9.586-8.269,9.298-20.334c0-0.137,0.038-14.724,3.325-18.834l-0.79-0.379
					c-0.158,0.727-3.815,17.854,3.604,25.945c7.43,8.104,25.269,4.989,26.024,4.852l-0.308-0.831
					c-0.067,0.038-6.924,3.914-20.855,2.797l-0.085-0.007l-0.081,0.025c-0.471,0.138-11.6,3.532-16.766,9.557l0.635-0.049
					l-4.002-3.428L29.035,66.957z M33.087,70.337c4.991-5.827,16.228-9.251,16.341-9.284l-0.165,0.018
					c14.447,1.16,21.339-2.885,21.402-2.928l-0.327-0.818c-0.182,0.034-18.105,3.164-25.202-4.575
					c-7.106-7.75-3.428-24.97-3.39-25.143l-0.79-0.378c-3.484,4.354-3.521,18.792-3.521,19.408
					c0.275,11.652-8.888,19.559-8.982,19.638l-0.403,0.34l0.401,0.344l4.002,3.428l0.342,0.291L33.087,70.337z"/>
			</g>
			<g>
				<path fill="#565F71" d="M13.689,90.724c-1.915,1.977-4.655,2.424-6.127,0.998l0,0c-1.473-1.43-1.117-4.189,0.797-6.162
					l14.323-14.785c1.914-1.975,4.656-2.424,6.131-0.995l0,0c1.468,1.419,1.111,4.182-0.802,6.158L13.689,90.724z"/>
				<path fill="#565F71" d="M13.365,90.413c-1.737,1.789-4.201,2.232-5.493,0.986C7.381,90.921,7.113,90.25,7.1,89.46
					c-0.018-1.209,0.572-2.547,1.579-3.586l14.323-14.785c1.737-1.791,4.203-2.237,5.496-0.984c1.29,1.246,0.926,3.726-0.813,5.521
					L13.365,90.413z M28.334,76.252c2.083-2.153,2.439-5.199,0.793-6.793c-1.649-1.595-4.685-1.146-6.768,1.007L8.036,85.25
					c-1.187,1.223-1.854,2.764-1.833,4.228c0.016,1.034,0.378,1.919,1.045,2.57c1.647,1.592,4.681,1.142,6.764-1.009L28.334,76.252z
					"/>
			</g>
			<g>
				<path fill="#565F71" d="M49.103,15.691c-4.187,3.899-7.404,8.624-9.3,13.663c-3.527,9.363-2.209,18.636,3.525,24.805
					c3.732,4.007,9.102,6.329,15.125,6.541c8.207,0.29,16.829-3.192,23.654-9.555c6.838-6.365,10.926-14.722,11.219-22.931
					c0.218-6.106-1.665-11.476-5.444-15.534C78.782,2.906,61.386,4.258,49.103,15.691z M85.253,15.132
					c3.113,3.343,4.665,7.825,4.48,12.953c-0.259,7.264-3.932,14.706-10.075,20.426c-6.135,5.717-13.818,8.849-21.078,8.591
					c-5.135-0.18-9.498-2.045-12.618-5.395c-4.784-5.145-5.829-13.028-2.793-21.086c1.701-4.523,4.602-8.775,8.386-12.298
					C62.386,8.242,77.501,6.808,85.253,15.132z"/>
			</g>
		</g>
		<g>
			
				<rect x="36.691" y="24.47" transform="matrix(-0.7236 0.6902 -0.6902 -0.7236 116.7793 3.5257)" fill="#565F71" width="41.986" height="1.349"/>
		</g>
		<g>
			
				<rect x="37.616" y="30.66" transform="matrix(-0.7294 0.6841 -0.6841 -0.7294 131.0992 10.8097)" fill="#565F71" width="51.59" height="1.349"/>
		</g>
		<g>
			
				<rect x="44.88" y="37.326" transform="matrix(-0.721 0.6929 -0.6929 -0.721 146.5275 17.007)" fill="#565F71" width="49.92" height="1.349"/>
		</g>
		<g>
			
				<rect x="57.951" y="42.816" transform="matrix(-0.7005 0.7136 -0.7136 -0.7005 159.9332 19.8648)" fill="#565F71" width="35.696" height="1.349"/>
		</g>
		<g>
			
				<rect x="57.368" y="24.238" transform="matrix(-0.7071 -0.7071 0.7071 -0.7071 110.788 95.7153)" fill="#565F71" width="35.698" height="1.349"/>
		</g>
		<g>
			
				<rect x="48.407" y="30.783" transform="matrix(-0.6983 -0.7158 0.7158 -0.6983 93.5125 102.3281)" fill="#565F71" width="39.829" height="1.349"/>
		</g>
		<g>
			
				<rect x="42.557" y="37.091" transform="matrix(-0.704 -0.7102 0.7102 -0.704 77.6543 107.8957)" fill="#565F71" width="37.509" height="1.349"/>
		</g>
		<g>
			
				<rect x="38.725" y="42.821" transform="matrix(-0.6957 -0.7184 0.7184 -0.6957 60.626 112.6723)" fill="#565F71" width="30.909" height="1.347"/>
		</g>
	</g>
	<g>
		<path fill="#565F71" d="M43.168,81.162c0,5.618,4.53,10.172,10.12,10.172c0.739,0,1.466-0.081,2.156-0.232
			c-0.577-0.941-2.198-3.144-5.275-4.43c-0.156-0.074-3.82-1.806-4.606-5.027c-0.428-1.746,0.063-3.559,1.468-5.374l-0.04,0.045
			c0.074-0.104,1.667-2.502,4.329-2.75c1.754-0.162,3.503,0.638,5.192,2.396l0.054,0.052l0.04,0.063
			c0.991,1.527,4.068,5.36,6.795,5.433c0.002-0.115,0.005-0.232,0.005-0.351c0-5.613-4.534-10.172-10.12-10.172
			C47.696,70.989,43.168,75.549,43.168,81.162z"/>
		<path fill="#565F71" d="M55.336,77.011c-1.317-1.361-2.622-1.996-3.863-1.883c-1.897,0.176-3.158,2.031-3.165,2.048l-0.02,0.029
			L48.27,77.23c-1.095,1.419-1.495,2.782-1.185,4.043c0.604,2.484,3.71,3.962,3.717,3.962c3.878,1.633,5.705,4.534,6.187,5.395
			c3.185-1.261,5.588-4.095,6.241-7.555C59.36,82.849,55.811,77.716,55.336,77.011z"/>
	</g>
</g>
</svg>
